<?xml version="1.0" encoding="UTF-8"?>
<!--Generator: Apple Native CoreSVG 149-->
<!DOCTYPE svg
PUBLIC "-//W3C//DTD SVG 1.1//EN"
       "http://www.w3.org/Graphics/SVG/1.1/DTD/svg11.dtd">
<svg version="1.1" xmlns="http://www.w3.org/2000/svg" xmlns:xlink="http://www.w3.org/1999/xlink" width="3300" height="2200">
 <!--glyph: "uni10023D.medium", point size: 100.000000, font version: "Version 16.0d18e1", template writer version: "8"-->
 <g id="Notes">
  <rect height="2200" id="artboard" style="fill:white;opacity:1" width="3300" x="0" y="0"/>
  <line id="" style="fill:none;stroke:black;opacity:1;stroke-width:0.5;" x1="263" x2="3036" y1="292" y2="292"/>
  <text style="stroke:none;fill:black;font-family:-apple-system,&quot;SF Pro Display&quot;,&quot;SF Pro Text&quot;,Helvetica,sans-serif;font-weight:bold;" transform="matrix(1 0 0 1 263 322)">Weight/Scale Variations</text>
  <text style="stroke:none;fill:black;font-family:-apple-system,&quot;SF Pro Display&quot;,&quot;SF Pro Text&quot;,Helvetica,sans-serif;text-anchor:middle;" transform="matrix(1 0 0 1 559.711 322)">Ultralight</text>
  <text style="stroke:none;fill:black;font-family:-apple-system,&quot;SF Pro Display&quot;,&quot;SF Pro Text&quot;,Helvetica,sans-serif;text-anchor:middle;" transform="matrix(1 0 0 1 856.422 322)">Thin</text>
  <text style="stroke:none;fill:black;font-family:-apple-system,&quot;SF Pro Display&quot;,&quot;SF Pro Text&quot;,Helvetica,sans-serif;text-anchor:middle;" transform="matrix(1 0 0 1 1153.13 322)">Light</text>
  <text style="stroke:none;fill:black;font-family:-apple-system,&quot;SF Pro Display&quot;,&quot;SF Pro Text&quot;,Helvetica,sans-serif;text-anchor:middle;" transform="matrix(1 0 0 1 1449.84 322)">Regular</text>
  <text style="stroke:none;fill:black;font-family:-apple-system,&quot;SF Pro Display&quot;,&quot;SF Pro Text&quot;,Helvetica,sans-serif;text-anchor:middle;" transform="matrix(1 0 0 1 1746.56 322)">Medium</text>
  <text style="stroke:none;fill:black;font-family:-apple-system,&quot;SF Pro Display&quot;,&quot;SF Pro Text&quot;,Helvetica,sans-serif;text-anchor:middle;" transform="matrix(1 0 0 1 2043.27 322)">Semibold</text>
  <text style="stroke:none;fill:black;font-family:-apple-system,&quot;SF Pro Display&quot;,&quot;SF Pro Text&quot;,Helvetica,sans-serif;text-anchor:middle;" transform="matrix(1 0 0 1 2339.98 322)">Bold</text>
  <text style="stroke:none;fill:black;font-family:-apple-system,&quot;SF Pro Display&quot;,&quot;SF Pro Text&quot;,Helvetica,sans-serif;text-anchor:middle;" transform="matrix(1 0 0 1 2636.69 322)">Heavy</text>
  <text style="stroke:none;fill:black;font-family:-apple-system,&quot;SF Pro Display&quot;,&quot;SF Pro Text&quot;,Helvetica,sans-serif;text-anchor:middle;" transform="matrix(1 0 0 1 2933.4 322)">Black</text>
  <line id="" style="fill:none;stroke:black;opacity:1;stroke-width:0.5;" x1="263" x2="3036" y1="1903" y2="1903"/>
  <g id="" transform="matrix(1 0 0 1 263 1933)">
   <path d="M9.24805 0.830078C13.5547 0.830078 17.1387-2.74414 17.1387-7.05078C17.1387-11.3574 13.5449-14.9316 9.23828-14.9316C4.94141-14.9316 1.36719-11.3574 1.36719-7.05078C1.36719-2.74414 4.95117 0.830078 9.24805 0.830078ZM9.24805-0.654297C5.70312-0.654297 2.87109-3.49609 2.87109-7.05078C2.87109-10.6055 5.69336-13.4473 9.23828-13.4473C12.793-13.4473 15.6348-10.6055 15.6445-7.05078C15.6543-3.49609 12.8027-0.654297 9.24805-0.654297ZM6.39648-6.31836L8.50586-6.31836L8.50586-4.19922C8.50586-3.75977 8.79883-3.45703 9.22852-3.45703C9.67773-3.45703 9.9707-3.75977 9.9707-4.19922L9.9707-6.31836L12.0996-6.31836C12.5391-6.31836 12.8418-6.61133 12.8418-7.04102C12.8418-7.48047 12.5391-7.7832 12.0996-7.7832L9.9707-7.7832L9.9707-9.89258C9.9707-10.3418 9.67773-10.6445 9.22852-10.6445C8.79883-10.6445 8.50586-10.3418 8.50586-9.89258L8.50586-7.7832L6.39648-7.7832C5.94727-7.7832 5.64453-7.48047 5.64453-7.04102C5.64453-6.61133 5.94727-6.31836 6.39648-6.31836Z"/>
  </g>
  <g id="" transform="matrix(1 0 0 1 281.506 1933)">
   <path d="M11.709 2.91016C17.1582 2.91016 21.6699-1.61133 21.6699-7.05078C21.6699-12.5 17.1484-17.0117 11.6992-17.0117C6.25977-17.0117 1.74805-12.5 1.74805-7.05078C1.74805-1.61133 6.26953 2.91016 11.709 2.91016ZM11.709 1.25C7.09961 1.25 3.41797-2.44141 3.41797-7.05078C3.41797-11.6602 7.08984-15.3516 11.6992-15.3516C16.3086-15.3516 20-11.6602 20.0098-7.05078C20.0195-2.44141 16.3184 1.25 11.709 1.25ZM7.98828-6.23047L10.8789-6.23047L10.8789-3.32031C10.8789-2.83203 11.2109-2.5 11.6895-2.5C12.1777-2.5 12.5195-2.83203 12.5195-3.32031L12.5195-6.23047L15.4297-6.23047C15.918-6.23047 16.25-6.5625 16.25-7.04102C16.25-7.5293 15.918-7.87109 15.4297-7.87109L12.5195-7.87109L12.5195-10.7617C12.5195-11.2695 12.1777-11.6016 11.6895-11.6016C11.2109-11.6016 10.8789-11.2598 10.8789-10.7617L10.8789-7.87109L7.98828-7.87109C7.48047-7.87109 7.14844-7.5293 7.14844-7.04102C7.14844-6.5625 7.49023-6.23047 7.98828-6.23047Z"/>
  </g>
  <g id="" transform="matrix(1 0 0 1 304.924 1933)">
   <path d="M14.9707 5.66406C21.9336 5.66406 27.6953-0.0976562 27.6953-7.05078C27.6953-14.0137 21.9238-19.7754 14.9609-19.7754C8.00781-19.7754 2.25586-14.0137 2.25586-7.05078C2.25586-0.0976562 8.01758 5.66406 14.9707 5.66406ZM14.9707 3.84766C8.93555 3.84766 4.08203-1.01562 4.08203-7.05078C4.08203-13.0957 8.92578-17.9492 14.9609-17.9492C21.0059-17.9492 25.8594-13.0957 25.8691-7.05078C25.8789-1.01562 21.0156 3.84766 14.9707 3.84766ZM10.0586-6.14258L14.0625-6.14258L14.0625-2.12891C14.0625-1.5918 14.4336-1.2207 14.9512-1.2207C15.4883-1.2207 15.8594-1.5918 15.8594-2.12891L15.8594-6.14258L19.8828-6.14258C20.4102-6.14258 20.791-6.51367 20.791-7.03125C20.791-7.56836 20.4199-7.94922 19.8828-7.94922L15.8594-7.94922L15.8594-11.9531C15.8594-12.5098 15.4883-12.8809 14.9512-12.8809C14.4336-12.8809 14.0625-12.5 14.0625-11.9531L14.0625-7.94922L10.0586-7.94922C9.50195-7.94922 9.13086-7.56836 9.13086-7.03125C9.13086-6.51367 9.51172-6.14258 10.0586-6.14258Z"/>
  </g>
  <text style="stroke:none;fill:black;font-family:-apple-system,&quot;SF Pro Display&quot;,&quot;SF Pro Text&quot;,Helvetica,sans-serif;font-weight:bold;" transform="matrix(1 0 0 1 263 1953)">Design Variations</text>
  <text style="stroke:none;fill:black;font-family:-apple-system,&quot;SF Pro Display&quot;,&quot;SF Pro Text&quot;,Helvetica,sans-serif;" transform="matrix(1 0 0 1 263 1971)">Symbols are supported in up to nine weights and three scales.</text>
  <text style="stroke:none;fill:black;font-family:-apple-system,&quot;SF Pro Display&quot;,&quot;SF Pro Text&quot;,Helvetica,sans-serif;" transform="matrix(1 0 0 1 263 1989)">For optimal layout with text and other symbols, vertically align</text>
  <text style="stroke:none;fill:black;font-family:-apple-system,&quot;SF Pro Display&quot;,&quot;SF Pro Text&quot;,Helvetica,sans-serif;" transform="matrix(1 0 0 1 263 2007)">symbols with the adjacent text.</text>
  <line id="" style="fill:none;stroke:#00AEEF;stroke-width:0.5;opacity:1.0;" x1="776" x2="776" y1="1919" y2="1933"/>
  <g id="" transform="matrix(1 0 0 1 776 1933)">
   <path d="M3.31055 0.126953C3.82812 0.126953 4.08203-0.0683594 4.26758-0.605469L5.52734-4.0625L11.2891-4.0625L12.5488-0.605469C12.7344-0.0683594 12.9883 0.126953 13.4961 0.126953C14.0137 0.126953 14.3457-0.185547 14.3457-0.673828C14.3457-0.839844 14.3164-0.986328 14.2383-1.20117L9.6582-13.3887C9.43359-13.9941 9.0332-14.2871 8.4082-14.2871C7.80273-14.2871 7.39258-13.9941 7.17773-13.3984L2.59766-1.19141C2.51953-0.976562 2.49023-0.830078 2.49023-0.664062C2.49023-0.175781 2.80273 0.126953 3.31055 0.126953ZM6.00586-5.53711L8.37891-12.1094L8.42773-12.1094L10.8008-5.53711Z"/>
  </g>
  <line id="" style="fill:none;stroke:#00AEEF;stroke-width:0.5;opacity:1.0;" x1="792.836" x2="792.836" y1="1919" y2="1933"/>
  <text style="stroke:none;fill:black;font-family:-apple-system,&quot;SF Pro Display&quot;,&quot;SF Pro Text&quot;,Helvetica,sans-serif;font-weight:bold;" transform="matrix(1 0 0 1 776 1953)">Margins</text>
  <text style="stroke:none;fill:black;font-family:-apple-system,&quot;SF Pro Display&quot;,&quot;SF Pro Text&quot;,Helvetica,sans-serif;" transform="matrix(1 0 0 1 776 1971)">Leading and trailing margins on the left and right side of each symbol</text>
  <text style="stroke:none;fill:black;font-family:-apple-system,&quot;SF Pro Display&quot;,&quot;SF Pro Text&quot;,Helvetica,sans-serif;" transform="matrix(1 0 0 1 776 1989)">can be adjusted by modifying the x-location of the margin guidelines.</text>
  <text style="stroke:none;fill:black;font-family:-apple-system,&quot;SF Pro Display&quot;,&quot;SF Pro Text&quot;,Helvetica,sans-serif;" transform="matrix(1 0 0 1 776 2007)">Modifications are automatically applied proportionally to all</text>
  <text style="stroke:none;fill:black;font-family:-apple-system,&quot;SF Pro Display&quot;,&quot;SF Pro Text&quot;,Helvetica,sans-serif;" transform="matrix(1 0 0 1 776 2025)">scales and weights.</text>
  <g id="" transform="matrix(1 0 0 1 1289 1933)">
   <path d="M2.8418 1.86523L4.54102 3.57422C5.40039 4.44336 6.38672 4.38477 7.31445 3.35938L17.4902-7.85156C17.7539-7.76367 18.0273-7.7832 18.3398-7.8418L19.4043-8.03711L20.0684-7.36328L20.0293-6.80664C19.9902-6.30859 20.1172-5.92773 20.6055-5.44922L21.3672-4.70703C21.8457-4.22852 22.4609-4.19922 22.9297-4.66797L25.8398-7.58789C26.3086-8.05664 26.2891-8.65234 25.8105-9.13086L25.0391-9.89258C24.5605-10.3711 24.1895-10.5273 23.7109-10.4883L23.1348-10.4395L22.4902-11.0742L22.7344-12.1973C22.8613-12.7637 22.7051-13.2031 22.1191-13.7891L19.9219-15.9766C16.582-19.2969 12.1484-19.2188 9.25781-16.3281C8.83789-15.918 8.80859-15.3418 9.04297-14.9512C9.27734-14.5898 9.73633-14.3555 10.3809-14.5215C11.8457-14.8633 13.3691-14.9219 14.7949-13.9844L14.209-12.5293C14.0137-12.0508 13.9844-11.6504 14.1113-11.2891L3.04688-0.898438C2.06055 0.0195312 1.98242 0.996094 2.8418 1.86523ZM10.752-15.957C13.1836-17.7344 16.4746-17.4316 18.7012-15.2051L21.1328-12.793C21.3672-12.5586 21.4062-12.373 21.3379-12.0312L21.0156-10.5469L22.5195-9.0625L23.5059-9.12109C23.7598-9.13086 23.8379-9.11133 24.0332-8.91602L24.6094-8.33984L22.168-5.89844L21.5918-6.47461C21.3965-6.66992 21.3672-6.74805 21.377-7.01172L21.4453-7.98828L19.9512-9.47266L18.4277-9.21875C18.1055-9.15039 17.959-9.17969 17.7148-9.41406L15.7129-11.416C15.459-11.6504 15.4297-11.8164 15.5859-12.1875L16.4648-14.2773C14.9023-15.7324 12.8711-16.3574 10.8398-15.7617C10.6836-15.7227 10.625-15.8496 10.752-15.957ZM5.27344 2.30469L4.10156 1.14258C3.63281 0.683594 3.74023 0.341797 4.14062-0.0195312L14.9512-10.1953L16.416-8.71094L6.42578 2.27539C6.07422 2.67578 5.74219 2.77344 5.27344 2.30469Z"/>
  </g>
  <text style="stroke:none;fill:black;font-family:-apple-system,&quot;SF Pro Display&quot;,&quot;SF Pro Text&quot;,Helvetica,sans-serif;font-weight:bold;" transform="matrix(1 0 0 1 1289 1953)">Exporting</text>
  <text style="stroke:none;fill:black;font-family:-apple-system,&quot;SF Pro Display&quot;,&quot;SF Pro Text&quot;,Helvetica,sans-serif;" transform="matrix(1 0 0 1 1289 1971)">Symbols should be outlined when exporting to ensure the</text>
  <text style="stroke:none;fill:black;font-family:-apple-system,&quot;SF Pro Display&quot;,&quot;SF Pro Text&quot;,Helvetica,sans-serif;" transform="matrix(1 0 0 1 1289 1989)">design is preserved when submitting to Xcode.</text>
  <text id="template-version" style="stroke:none;fill:black;font-family:-apple-system,&quot;SF Pro Display&quot;,&quot;SF Pro Text&quot;,Helvetica,sans-serif;text-anchor:end;" transform="matrix(1 0 0 1 3036 1933)">Template v.2.0</text>
  <text style="stroke:none;fill:black;font-family:-apple-system,&quot;SF Pro Display&quot;,&quot;SF Pro Text&quot;,Helvetica,sans-serif;text-anchor:end;" transform="matrix(1 0 0 1 3036 1951)">Requires Xcode 12 or greater</text>
  <text style="stroke:none;fill:black;font-family:-apple-system,&quot;SF Pro Display&quot;,&quot;SF Pro Text&quot;,Helvetica,sans-serif;text-anchor:end;" transform="matrix(1 0 0 1 3036 1969)">Generated from arrow.down.doc</text>
  <text style="stroke:none;fill:black;font-family:-apple-system,&quot;SF Pro Display&quot;,&quot;SF Pro Text&quot;,Helvetica,sans-serif;text-anchor:end;" transform="matrix(1 0 0 1 3036 1987)">Typeset at 100 points</text>
  <text style="stroke:none;fill:black;font-family:-apple-system,&quot;SF Pro Display&quot;,&quot;SF Pro Text&quot;,Helvetica,sans-serif;" transform="matrix(1 0 0 1 263 726)">Small</text>
  <text style="stroke:none;fill:black;font-family:-apple-system,&quot;SF Pro Display&quot;,&quot;SF Pro Text&quot;,Helvetica,sans-serif;" transform="matrix(1 0 0 1 263 1156)">Medium</text>
  <text style="stroke:none;fill:black;font-family:-apple-system,&quot;SF Pro Display&quot;,&quot;SF Pro Text&quot;,Helvetica,sans-serif;" transform="matrix(1 0 0 1 263 1586)">Large</text>
 </g>
 <g id="Guides">
  <g id="H-reference" style="fill:#27AAE1;stroke:none;" transform="matrix(1 0 0 1 339 696)">
   <path d="M0.976562 0L3.66211 0L12.9883-24.4629L45.752-24.4629L55.127 0L57.7637 0L30.6152-70.459L28.125-70.459ZM29.3457-67.1387L29.4434-67.1387L44.873-26.709L13.8672-26.709Z"/>
  </g>
  <line id="Baseline-S" style="fill:none;stroke:#27AAE1;opacity:1;stroke-width:0.5;" x1="263" x2="3036" y1="696" y2="696"/>
  <line id="Capline-S" style="fill:none;stroke:#27AAE1;opacity:1;stroke-width:0.5;" x1="263" x2="3036" y1="625.541" y2="625.541"/>
  <g id="H-reference" style="fill:#27AAE1;stroke:none;" transform="matrix(1 0 0 1 339 1126)">
   <path d="M0.976562 0L3.66211 0L12.9883-24.4629L45.752-24.4629L55.127 0L57.7637 0L30.6152-70.459L28.125-70.459ZM29.3457-67.1387L29.4434-67.1387L44.873-26.709L13.8672-26.709Z"/>
  </g>
  <line id="Baseline-M" style="fill:none;stroke:#27AAE1;opacity:1;stroke-width:0.5;" x1="263" x2="3036" y1="1126" y2="1126"/>
  <line id="Capline-M" style="fill:none;stroke:#27AAE1;opacity:1;stroke-width:0.5;" x1="263" x2="3036" y1="1055.54" y2="1055.54"/>
  <g id="H-reference" style="fill:#27AAE1;stroke:none;" transform="matrix(1 0 0 1 339 1556)">
   <path d="M0.976562 0L3.66211 0L12.9883-24.4629L45.752-24.4629L55.127 0L57.7637 0L30.6152-70.459L28.125-70.459ZM29.3457-67.1387L29.4434-67.1387L44.873-26.709L13.8672-26.709Z"/>
  </g>
  <line id="Baseline-L" style="fill:none;stroke:#27AAE1;opacity:1;stroke-width:0.5;" x1="263" x2="3036" y1="1556" y2="1556"/>
  <line id="Capline-L" style="fill:none;stroke:#27AAE1;opacity:1;stroke-width:0.5;" x1="263" x2="3036" y1="1485.54" y2="1485.54"/>
  <line id="left-margin" style="fill:none;stroke:#00AEEF;stroke-width:0.5;opacity:1.0;" x1="1396.33" x2="1396.33" y1="1030.79" y2="1150.12"/>
  <line id="right-margin" style="fill:none;stroke:#00AEEF;stroke-width:0.5;opacity:1.0;" x1="1503.36" x2="1503.36" y1="1030.79" y2="1150.12"/>
 </g>
 <g id="Symbols">
  <g id="Black-L" transform="matrix(1 0 0 1 2859.65 1556)">
   <path d="M39.8926 35.2539L107.617 35.2539C122.803 35.2539 131.445 26.5625 131.445 11.3281L131.445-45.3613C131.445-56.4453 129.688-62.207 122.559-69.3848L95.4102-96.7773C88.3789-103.809 82.4707-105.664 71.7285-105.664L39.8926-105.664C24.707-105.664 16.0645-96.9727 16.0645-81.7383L16.0645 11.3281C16.0645 26.5625 24.707 35.2539 39.8926 35.2539ZM42.7246 14.9902C38.1836 14.9902 36.3281 12.8418 36.3281 8.59375L36.3281-79.0039C36.3281-83.252 38.1836-85.4004 42.7246-85.4004L65.332-85.4004L65.332-58.1055C65.332-45.2637 71.2891-39.3066 84.1309-39.3066L111.23-39.3066L111.23 8.59375C111.23 12.8418 109.326 14.9902 104.785 14.9902ZM85.4492-55.2246C82.666-55.2246 81.25-56.6406 81.25-59.4727L81.25-84.4727L110.254-55.2246ZM81.7383-26.123C81.7383-30.5664 78.1738-33.4961 73.7793-33.4961C69.3359-33.4961 65.7715-30.5664 65.7715-26.123L65.7715-19.1895L66.5527-11.1816L63.9648-14.1602L61.9629-16.3086C60.791-17.7246 58.8379-18.8477 56.9336-18.8477C53.0273-18.8477 50.0977-16.0156 50.0977-12.3047C50.0977-10.2051 50.6836-8.69141 52.4902-7.12891L67.2363 6.05469C69.1406 7.8125 71.1426 8.93555 73.7793 8.93555C76.3672 8.93555 78.3691 7.8125 80.2734 6.05469L95.0195-7.12891C96.8262-8.69141 97.4121-10.2051 97.4121-12.3047C97.4121-16.0156 94.4824-18.8477 90.5762-18.8477C88.7207-18.8477 86.6211-17.7246 85.5957-16.3086L83.5938-14.1602L80.957-11.1816L81.7383-19.1895Z"/>
  </g>
  <g id="Heavy-L" transform="matrix(1 0 0 1 2564.18 1556)">
   <path d="M38.7207 34.4727L106.348 34.4727C120.898 34.4727 128.955 26.3672 128.955 11.7188L128.955-45.3613C128.955-55.5664 127.393-60.6934 120.898-67.2363L91.6016-96.8262C85.2051-103.271 79.8828-104.932 70.1172-104.932L38.7207-104.932C24.1699-104.932 16.0645-96.7773 16.0645-82.1777L16.0645 11.7188C16.0645 26.3672 24.1211 34.4727 38.7207 34.4727ZM40.9668 16.9922C35.8887 16.9922 33.5938 14.4531 33.5938 9.61914L33.5938-80.0293C33.5938-84.8633 35.8887-87.4023 41.0156-87.4023L65.0879-87.4023L65.0879-57.7148C65.0879-46.1426 70.5078-40.7227 82.0801-40.7227L111.475-40.7227L111.475 9.61914C111.475 14.4531 109.18 16.9922 104.053 16.9922ZM83.3008-54.834C80.5176-54.834 79.1504-56.1523 79.1504-58.9844L79.1504-86.2793L110.303-54.834ZM79.5898-27.832C79.5898-31.7383 76.416-34.4238 72.5098-34.4238C68.6035-34.4238 65.4297-31.7383 65.4297-27.832L65.4297-16.6016L66.1133-7.86133L62.4512-11.8652L59.5703-14.8438C58.5449-16.1133 56.7871-17.041 55.0781-17.041C51.5625-17.041 48.9746-14.5508 48.9746-11.1816C48.9746-9.22852 49.5605-7.86133 51.123-6.49414L66.7969 7.71484C68.5547 9.27734 70.2637 10.2539 72.5098 10.2539C74.7559 10.2539 76.5137 9.27734 78.2227 7.71484L93.8965-6.49414C95.459-7.86133 96.0938-9.22852 96.0938-11.1816C96.0938-14.5508 93.4082-17.041 89.9414-17.041C88.2324-17.041 86.4258-16.1133 85.4492-14.8438L82.6172-11.8652L78.9062-7.86133L79.5898-16.6016Z"/>
  </g>
  <g id="Bold-L" transform="matrix(1 0 0 1 2268.86 1556)">
   <path d="M37.4023 33.6426L104.883 33.6426C118.701 33.6426 126.172 26.123 126.172 12.207L126.172-45.3613C126.172-54.541 124.854-59.0332 119.043-64.8926L87.3535-96.9238C81.6895-102.637 76.9531-104.053 68.3594-104.053L37.4023-104.053C23.584-104.053 16.0645-96.5332 16.0645-82.6172L16.0645 12.207C16.0645 26.123 23.5352 33.6426 37.4023 33.6426ZM39.0137 19.1895C33.252 19.1895 30.5176 16.2598 30.5176 10.7422L30.5176-81.1523C30.5176-86.6211 33.252-89.6484 39.0625-89.6484L64.7949-89.6484L64.7949-57.2754C64.7949-47.1191 69.6777-42.334 79.7363-42.334L111.719-42.334L111.719 10.7422C111.719 16.2598 108.984 19.1895 103.223 19.1895ZM80.8594-54.3945C78.0762-54.3945 76.8066-55.6152 76.8066-58.3984L76.8066-88.2812L110.4-54.3945ZM77.1973-29.7363C77.1973-33.1055 74.4141-35.4492 71.1426-35.4492C67.8223-35.4492 65.0391-33.1055 65.0391-29.7363L65.0391-13.6719L65.625-4.15039L60.7422-9.27734L56.9824-13.1836C56.0059-14.3066 54.4922-15.0391 53.0273-15.0391C49.9512-15.0391 47.7051-12.8906 47.7051-9.91211C47.7051-8.20312 48.291-6.98242 49.6094-5.81055L66.3574 9.57031C67.8711 10.9375 69.2871 11.7188 71.1426 11.7188C72.9492 11.7188 74.3652 10.9375 75.8789 9.57031L92.627-5.81055C93.9453-6.98242 94.5312-8.20312 94.5312-9.91211C94.5312-12.8906 92.2363-15.0391 89.209-15.0391C87.7441-15.0391 86.1816-14.3066 85.2539-13.1836L81.4941-9.27734L76.6113-4.15039L77.1973-13.6719Z"/>
  </g>
  <g id="Semibold-L" transform="matrix(1 0 0 1 1973.1 1556)">
   <path d="M36.4746 33.0566L103.857 33.0566C117.188 33.0566 124.268 25.9277 124.268 12.5L124.268-45.3613C124.268-53.8574 123.096-57.8613 117.725-63.2812L84.4238-96.9727C79.248-102.246 74.9512-103.516 67.1387-103.516L36.4746-103.516C23.1445-103.516 16.0645-96.3867 16.0645-82.9102L16.0645 12.5C16.0645 25.9766 23.0957 33.0566 36.4746 33.0566ZM37.6465 20.752C31.4453 20.752 28.418 17.5293 28.418 11.5234L28.418-81.9336C28.418-87.8418 31.4453-91.1621 37.6953-91.1621L64.5996-91.1621L64.5996-56.9824C64.5996-47.8027 69.0918-43.4082 78.125-43.4082L111.914-43.4082L111.914 11.5234C111.914 17.5293 108.838 20.752 102.637 20.752ZM79.1992-54.0527C76.416-54.0527 75.2441-55.2734 75.2441-58.0566L75.2441-89.6973L110.449-54.0527ZM75.5371-31.0547C75.5371-33.9844 73.0957-36.1816 70.166-36.1816C67.2363-36.1816 64.7949-33.9844 64.7949-31.0547L64.7949-11.6211L65.2832-1.5625L59.6191-7.51953L55.1758-12.0605C54.2969-13.0371 52.9297-13.6719 51.6113-13.6719C48.8281-13.6719 46.8262-11.7188 46.8262-9.0332C46.8262-7.4707 47.4121-6.34766 48.584-5.32227L66.0156 10.8398C67.3828 12.1094 68.6035 12.6953 70.166 12.6953C71.6797 12.6953 72.9492 12.1094 74.3164 10.8398L91.6992-5.32227C92.9199-6.34766 93.5059-7.4707 93.5059-9.0332C93.5059-11.7188 91.4551-13.6719 88.7207-13.6719C87.4023-13.6719 85.9863-13.0371 85.1562-12.0605L80.7617-7.51953L75-1.5625L75.5371-11.6211Z"/>
  </g>
  <g id="Medium-L" transform="matrix(1 0 0 1 1677.12 1556)">
   <path d="M35.791 32.666L103.076 32.666C116.064 32.666 122.803 25.8301 122.803 12.7441L122.803-45.3613C122.803-53.3203 121.729-56.9824 116.748-62.0117L82.2266-97.0215C77.4414-101.904 73.4375-103.076 66.2109-103.076L35.791-103.076C22.8516-103.076 16.0645-96.2402 16.0645-83.1543L16.0645 12.7441C16.0645 25.8789 22.8027 32.666 35.791 32.666ZM36.6211 21.9238C30.127 21.9238 26.8066 18.457 26.8066 12.1094L26.8066-82.5684C26.8066-88.7695 30.127-92.334 36.6699-92.334L64.4531-92.334L64.4531-56.7383C64.4531-48.291 68.6035-44.2871 76.9043-44.2871L112.061-44.2871L112.061 12.1094C112.061 18.457 108.74 21.9238 102.197 21.9238ZM77.9297-53.8086C75.1465-53.8086 74.0234-54.9805 74.0234-57.7637L74.0234-90.7227L110.449-53.8086ZM74.2676-32.0801C74.2676-34.7168 72.0215-36.7188 69.4336-36.7188C66.7969-36.7188 64.5996-34.7168 64.5996-32.0801L64.5996-10.1074L65.0391 0.390625L58.6914-6.15234L53.8086-11.1816C52.9785-12.1094 51.709-12.6465 50.5371-12.6465C47.998-12.6465 46.1426-10.8887 46.1426-8.39844C46.1426-6.88477 46.7285-5.9082 47.8027-4.93164L65.7715 11.8164C67.041 12.9395 68.1152 13.4766 69.4336 13.4766C70.752 13.4766 71.8262 12.9395 73.0957 11.8164L91.0645-4.93164C92.1387-5.9082 92.7246-6.88477 92.7246-8.39844C92.7246-10.8887 90.8203-12.6465 88.3301-12.6465C87.1094-12.6465 85.8398-12.1094 85.0586-11.1816L80.1758-6.15234L73.8281 0.390625L74.2676-10.1074Z"/>
  </g>
  <g id="Regular-L" transform="matrix(1 0 0 1 1381.36 1556)">
   <path d="M34.8633 32.0801L102.1 32.0801C114.6 32.0801 120.898 25.6348 120.898 13.0859L120.898-45.3613C120.898-52.6367 120.02-55.8105 115.479-60.4004L79.2969-97.0703C75-101.514 71.4844-102.49 64.9902-102.49L34.8633-102.49C22.4609-102.49 16.0645-96.0938 16.0645-83.4961L16.0645 13.0859C16.0645 25.6836 22.3633 32.0801 34.8633 32.0801ZM35.3027 23.4375C28.3203 23.4375 24.707 19.7266 24.707 12.8906L24.707-83.3008C24.707-89.9902 28.3203-93.8477 35.3516-93.8477L64.2578-93.8477L64.2578-56.4453C64.2578-48.9746 68.0176-45.3613 75.3418-45.3613L112.256-45.3613L112.256 12.8906C112.256 19.7266 108.643 23.4375 101.611 23.4375ZM76.2695-53.5156C73.5352-53.5156 72.4121-54.5898 72.4121-57.373L72.4121-92.1387L110.547-53.5156ZM72.6074-33.3984C72.6074-35.5957 70.7031-37.4023 68.5059-37.4023C66.2598-37.4023 64.3555-35.5957 64.3555-33.3984L64.3555-8.10547L64.6973 2.92969L57.5684-4.39453L52.002-10.0586C51.2695-10.8398 50.1465-11.2793 49.1211-11.2793C46.875-11.2793 45.2637-9.7168 45.2637-7.51953C45.2637-6.20117 45.8984-5.27344 46.7773-4.44336L65.4297 13.0859C66.5527 14.1113 67.4316 14.502 68.5059 14.502C69.5312 14.502 70.4102 14.1113 71.5332 13.0859L90.1855-4.44336C91.0645-5.27344 91.6992-6.20117 91.6992-7.51953C91.6992-9.7168 90.0391-11.2793 87.8418-11.2793C86.7676-11.2793 85.6934-10.8398 84.9609-10.0586L79.3945-4.39453L72.2656 2.92969L72.6074-8.10547Z"/>
  </g>
  <g id="Light-L" transform="matrix(1 0 0 1 1085.43 1556)">
   <path d="M33.9355 31.7871L101.514 31.7871C113.281 31.7871 119.336 25.6348 119.336 13.7695L119.336-46.2891C119.336-52.4414 118.506-55.1758 114.697-59.0332L76.5625-97.4609C72.9004-101.172 69.9219-102.1 64.3066-102.1L33.9355-102.1C22.2168-102.1 16.0645-95.9961 16.0645-84.1309L16.0645 13.7695C16.0645 25.6836 22.1191 31.7871 33.9355 31.7871ZM34.2285 25.1465C26.6113 25.1465 22.7051 21.1426 22.7051 13.623L22.7051-83.9844C22.7051-91.2598 26.6113-95.5078 34.2773-95.5078L64.4531-95.5078L64.4531-56.8848C64.4531-50.0488 67.9199-46.9238 74.4629-46.9238L112.744-46.9238L112.744 13.623C112.744 21.1426 108.789 25.1465 101.172 25.1465ZM75.0977-53.2227C72.0215-53.2227 70.752-54.4434 70.752-57.5684L70.752-94.0918L111.328-53.2227ZM70.8984-34.9121C70.8984-36.6211 69.4336-38.0371 67.7246-38.0371C65.9668-38.0371 64.502-36.6211 64.502-34.9121L64.502-6.29883L64.7949 5.76172L55.2246-3.95508L49.8535-9.47266C49.2676-10.0586 48.3887-10.4492 47.5586-10.4492C45.8496-10.4492 44.5801-9.17969 44.5801-7.42188C44.5801-6.20117 45.2148-5.51758 45.9961-4.78516L65.332 13.8672C66.1621 14.5996 66.8945 14.9414 67.7246 14.9414C68.5059 14.9414 69.2383 14.5996 70.0684 13.8672L89.4531-4.78516C90.2344-5.51758 90.8203-6.20117 90.8203-7.42188C90.8203-9.17969 89.502-10.4492 87.8418-10.4492C86.9629-10.4492 86.1328-10.0586 85.5957-9.47266L80.1758-3.95508L70.6055 5.76172L70.8984-6.29883Z"/>
  </g>
  <g id="Thin-L" transform="matrix(1 0 0 1 789.747 1556)">
   <path d="M32.666 31.3477L100.732 31.3477C111.572 31.3477 117.285 25.6348 117.285 14.7461L117.285-47.5098C117.285-52.1484 116.455-54.2969 113.672-57.1777L72.9004-97.9492C70.1172-100.781 67.9199-101.611 63.3789-101.611L32.666-101.611C21.9238-101.611 16.0645-95.8496 16.0645-84.9609L16.0645 14.7461C16.0645 25.6348 21.7773 31.3477 32.666 31.3477ZM32.8613 27.4414C24.3652 27.4414 19.9707 22.998 19.9707 14.5996L19.9707-84.8145C19.9707-92.9688 24.3652-97.6562 32.8613-97.6562L64.7461-97.6562L64.7461-57.5195C64.7461-51.5137 67.7246-48.9746 73.291-48.9746L113.379-48.9746L113.379 14.5996C113.379 22.998 108.984 27.4414 100.537 27.4414ZM73.584-52.832C69.9707-52.832 68.6035-54.248 68.6035-57.8125L68.6035-96.6797L112.354-52.832ZM68.6035-36.9141C68.6035-37.9883 67.7246-38.8184 66.6992-38.8184C65.625-38.8184 64.7461-37.9883 64.7461-36.9141L64.7461-3.90625L64.9414 9.57031L52.0996-3.41797L46.9727-8.69141C46.6797-9.0332 46.0938-9.27734 45.5566-9.27734C44.4824-9.27734 43.6523-8.44727 43.6523-7.32422C43.6523-6.25 44.2871-5.81055 44.9219-5.22461L65.2344 14.8926C65.6738 15.2832 66.2109 15.5762 66.6992 15.5762C67.1875 15.5762 67.6758 15.2832 68.1152 14.8926L88.4766-5.22461C89.0625-5.81055 89.6973-6.25 89.6973-7.32422C89.6973-8.44727 88.8672-9.27734 87.793-9.27734C87.2559-9.27734 86.6699-9.0332 86.377-8.69141L81.25-3.41797L68.4082 9.57031L68.6035-3.90625Z"/>
  </g>
  <g id="Ultralight-L" transform="matrix(1 0 0 1 493.549 1556)">
   <path d="M31.9824 31.1523L100.293 31.1523C110.693 31.1523 116.26 25.5859 116.26 15.2344L116.26-48.0957C116.26-52.002 115.43-53.8574 113.135-56.2012L71.0449-98.1934C68.7012-100.537 66.8945-101.318 62.8906-101.318L31.9824-101.318C21.7773-101.318 16.0645-95.8008 16.0645-85.4004L16.0645 15.2344C16.0645 25.5859 21.6309 31.1523 31.9824 31.1523ZM32.1289 28.5645C23.2422 28.5645 18.6035 23.9746 18.6035 15.0879L18.6035-85.2539C18.6035-93.8477 23.2422-98.7793 32.1289-98.7793L64.8438-98.7793L64.8438-57.8613C64.8438-52.2949 67.6758-50 72.7051-50L113.672-50L113.672 15.0879C113.672 23.9746 109.082 28.5645 100.195 28.5645ZM72.8027-52.6367C68.9453-52.6367 67.4805-54.1016 67.4805-57.9102L67.4805-97.998L112.891-52.6367ZM67.4316-37.9395C67.4316-38.6719 66.8945-39.2578 66.1621-39.2578C65.4297-39.2578 64.8438-38.6719 64.8438-37.9395L64.8438-2.68555L64.9902 11.5234L50.5371-3.125L45.5078-8.30078C45.3125-8.44727 44.9219-8.69141 44.5312-8.69141C43.7988-8.69141 43.1641-8.05664 43.1641-7.27539C43.1641-6.25 43.8477-6.00586 44.3359-5.46875L65.1855 15.4297C65.3809 15.625 65.8203 15.8691 66.1621 15.8691C66.4551 15.8691 66.8945 15.625 67.1387 15.4297L87.9395-5.46875C88.4766-6.00586 89.1113-6.25 89.1113-7.27539C89.1113-8.05664 88.5254-8.69141 87.793-8.69141C87.4023-8.69141 86.9629-8.44727 86.8164-8.30078L81.7871-3.125L67.334 11.5234L67.4316-2.68555Z"/>
  </g>
  <g id="Black-M" transform="matrix(1 0 0 1 2874.98 1126)">
   <path d="M31.9824 20.2148L84.8633 20.2148C97.1191 20.2148 104.395 12.9395 104.395 0.683594L104.395-43.6035C104.395-52.7832 102.734-57.8125 96.7773-63.7695L77.5879-83.0078C71.582-88.9648 66.6016-90.625 57.3242-90.625L31.9824-90.625C19.7266-90.625 12.4512-83.3496 12.4512-71.0938L12.4512 0.683594C12.4512 12.9395 19.7266 20.2148 31.9824 20.2148ZM34.9121 1.9043C31.8359 1.9043 30.7617 0.585938 30.7617-2.24609L30.7617-68.1641C30.7617-70.9961 31.8359-72.3145 34.9121-72.3145L51.0742-72.3145L51.0742-53.7598C51.0742-42.4316 56.2012-37.3047 67.5293-37.3047L86.1328-37.3047L86.1328-2.24609C86.1328 0.585938 85.0098 1.9043 81.9336 1.9043ZM68.5547-51.123C66.1621-51.123 64.8926-52.3926 64.8926-54.7852L64.8926-71.9727L85.791-51.123ZM65.332-26.6602C65.332-30.5664 62.2559-32.959 58.4473-32.959C54.5898-32.959 51.5137-30.5664 51.5137-26.6602L51.5137-25.3906L52.1973-19.5312L50.3418-21.7773L50-22.2656C49.0723-23.4375 47.4609-24.4629 45.8008-24.4629C42.4805-24.4629 39.9902-22.0703 39.9902-18.9453C39.9902-17.0898 40.4785-15.8691 42.041-14.4531L52.6367-5.07812C54.1992-3.61328 56.0059-2.53906 58.4473-2.53906C60.8398-2.53906 62.6465-3.61328 64.209-5.07812L74.8047-14.4531C76.3672-15.8691 76.9043-17.0898 76.9043-18.9453C76.9043-22.0703 74.3652-24.4629 71.0449-24.4629C69.4824-24.4629 67.627-23.4375 66.8457-22.2656L66.5527-21.7773L64.6484-19.5312L65.332-25.3906Z"/>
  </g>
  <g id="Heavy-M" transform="matrix(1 0 0 1 2579.41 1126)">
   <path d="M30.957 19.4824L83.5938 19.4824C95.3125 19.4824 102.1 12.6953 102.1 0.927734L102.1-43.3594C102.1-51.8555 100.635-56.3477 95.166-61.8652L74.1211-83.0078C68.7012-88.4277 64.1602-89.8926 55.8105-89.8926L30.957-89.8926C19.1895-89.8926 12.4512-83.1055 12.4512-71.3379L12.4512 0.927734C12.4512 12.7441 19.1895 19.4824 30.957 19.4824ZM33.252 3.66211C29.7363 3.66211 28.2715 2.00195 28.2715-1.31836L28.2715-69.0918C28.2715-72.3633 29.7363-74.0723 33.3008-74.0723L50.7324-74.0723L50.7324-53.2227C50.7324-43.1152 55.4199-38.4277 65.4785-38.4277L86.2793-38.4277L86.2793-1.31836C86.2793 2.00195 84.8145 3.66211 81.25 3.66211ZM66.4551-50.7324C64.209-50.7324 63.0371-51.9043 63.0371-54.1992L63.0371-73.4375L85.6445-50.7324ZM63.4277-28.125C63.4277-31.5918 60.6934-33.7891 57.2754-33.7891C53.8574-33.7891 51.123-31.5918 51.123-28.125L51.123-22.998L51.709-16.6504L49.3164-19.3848L47.998-20.8008C47.1191-21.875 45.6543-22.7539 44.1895-22.7539C41.1621-22.7539 38.916-20.6055 38.916-17.7246C38.916-16.0645 39.4043-14.8926 40.7715-13.6719L52.1973-3.4668C53.6133-2.14844 55.2246-1.2207 57.2754-1.2207C59.3262-1.2207 60.8887-2.14844 62.3535-3.4668L73.7305-13.6719C75.1465-14.8926 75.6348-16.0645 75.6348-17.7246C75.6348-20.6055 73.3398-22.7539 70.3613-22.7539C68.9453-22.7539 67.2852-21.875 66.5039-20.8008L65.2832-19.3848L62.8418-16.6504L63.4277-22.998Z"/>
  </g>
  <g id="Bold-M" transform="matrix(1 0 0 1 2284 1126)">
   <path d="M29.7852 18.6523L82.1777 18.6523C93.3105 18.6523 99.5117 12.4512 99.5117 1.2207L99.5117-43.0664C99.5117-50.8301 98.291-54.6875 93.3594-59.668L70.3125-83.0078C65.4785-87.8418 61.4258-89.1113 54.0527-89.1113L29.7852-89.1113C18.6035-89.1113 12.4512-82.8613 12.4512-71.6797L12.4512 1.2207C12.4512 12.5 18.6035 18.6523 29.7852 18.6523ZM31.4453 5.56641C27.3926 5.56641 25.5371 3.56445 25.5371-0.292969L25.5371-70.1172C25.5371-73.9746 27.3926-76.0254 31.4453-76.0254L50.3906-76.0254L50.3906-52.5879C50.3906-43.8477 54.4922-39.7461 63.2324-39.7461L86.4258-39.7461L86.4258-0.292969C86.4258 3.56445 84.5703 5.56641 80.4688 5.56641ZM64.1602-50.3418C62.0117-50.3418 60.9863-51.3672 60.9863-53.5156L60.9863-75.0977L85.498-50.3418ZM61.2793-29.7852C61.2793-32.7637 58.8867-34.7656 55.957-34.7656C53.0273-34.7656 50.6348-32.7637 50.6348-29.7852L50.6348-20.3125L51.1719-13.4277L48.1445-16.6992L45.752-19.1406C44.9707-20.1172 43.6523-20.8008 42.3828-20.8008C39.6973-20.8008 37.7441-18.9453 37.7441-16.3574C37.7441-14.8926 38.1836-13.8672 39.4043-12.8418L51.709-1.66016C52.9785-0.439453 54.2969 0.244141 55.957 0.244141C57.666 0.244141 58.9355-0.439453 60.2539-1.66016L72.5586-12.8418C73.7305-13.8672 74.2188-14.8926 74.2188-16.3574C74.2188-18.9453 72.2168-20.8008 69.5801-20.8008C68.3105-20.8008 66.8945-20.1172 66.1621-19.1406L63.8184-16.6992L60.791-13.4277L61.2793-20.3125Z"/>
  </g>
  <g id="Semibold-M" transform="matrix(1 0 0 1 1988.19 1126)">
   <path d="M29.0039 18.1152L81.1523 18.1152C91.9434 18.1152 97.7051 12.2559 97.7051 1.41602L97.7051-42.8711C97.7051-50.0977 96.6797-53.5645 92.1387-58.1543L67.6758-82.959C63.2324-87.4512 59.5215-88.5254 52.8809-88.5254L29.0039-88.5254C18.2129-88.5254 12.4512-82.7148 12.4512-71.875L12.4512 1.41602C12.4512 12.3047 18.2129 18.1152 29.0039 18.1152ZM30.1758 6.93359C25.7324 6.93359 23.6328 4.63867 23.6328 0.439453L23.6328-70.8496C23.6328-75.0488 25.7324-77.3438 30.1758-77.3438L50.1465-77.3438L50.1465-52.1484C50.1465-44.3359 53.9062-40.625 61.6211-40.625L86.5234-40.625L86.5234 0.439453C86.5234 4.63867 84.375 6.93359 79.9805 6.93359ZM62.5488-50.0488C60.498-50.0488 59.5703-50.9766 59.5703-53.0762L59.5703-76.2207L85.4004-50.0488ZM59.8145-30.957C59.8145-33.5449 57.666-35.4004 55.0781-35.4004C52.4902-35.4004 50.3418-33.5449 50.3418-30.957L50.3418-18.457L50.7812-11.1816L47.3633-14.8438L44.2383-18.0176C43.457-18.8965 42.2852-19.4824 41.1133-19.4824C38.7207-19.4824 36.9141-17.7734 36.9141-15.4297C36.9141-14.1113 37.4023-13.1348 38.4277-12.2559L51.3672-0.390625C52.5879 0.683594 53.6621 1.26953 55.0781 1.26953C56.4941 1.26953 57.5684 0.683594 58.7891-0.390625L71.7285-12.2559C72.7539-13.1348 73.2422-14.1113 73.2422-15.4297C73.2422-17.7734 71.4355-19.4824 69.043-19.4824C67.8711-19.4824 66.6504-18.8965 65.918-18.0176L62.8418-14.8438L59.375-11.1816L59.8145-18.457Z"/>
  </g>
  <g id="Medium-M" transform="matrix(1 0 0 1 1692.16 1126)">
   <path d="M28.3691 17.6758L80.4199 17.6758C90.918 17.6758 96.3379 12.1582 96.3379 1.61133L96.3379-42.7246C96.3379-49.5605 95.459-52.6855 91.2109-57.0312L65.6738-82.959C61.5234-87.1582 58.1055-88.1348 51.9531-88.1348L28.3691-88.1348C17.9199-88.1348 12.4512-82.6172 12.4512-72.0215L12.4512 1.61133C12.4512 12.1582 17.9199 17.6758 28.3691 17.6758ZM29.1992 7.91016C24.5117 7.91016 22.168 5.46875 22.168 0.976562L22.168-71.4355C22.168-75.8789 24.5117-78.3691 29.248-78.3691L49.9512-78.3691L49.9512-51.8066C49.9512-44.7266 53.418-41.3086 60.4492-41.3086L86.6211-41.3086L86.6211 0.976562C86.6211 5.46875 84.2773 7.91016 79.541 7.91016ZM61.377-49.8535C59.3262-49.8535 58.4473-50.7324 58.4473-52.7344L58.4473-77.0996L85.3027-49.8535ZM58.6914-31.7871C58.6914-34.1797 56.7383-35.9375 54.3945-35.9375C52.0508-35.9375 50.0977-34.1797 50.0977-31.7871L50.0977-17.041L50.4883-9.52148L46.7285-13.4277L43.0664-17.1875C42.334-17.9688 41.2109-18.5059 40.1855-18.5059C37.9395-18.5059 36.2793-16.8945 36.2793-14.7461C36.2793-13.5254 36.7676-12.5977 37.6953-11.7676L51.123 0.537109C52.2461 1.5625 53.1738 2.05078 54.3945 2.05078C55.6152 2.05078 56.543 1.5625 57.666 0.537109L71.0938-11.7676C72.0215-12.5977 72.5098-13.5254 72.5098-14.7461C72.5098-16.8945 70.8496-18.5059 68.6035-18.5059C67.5781-18.5059 66.4551-17.9688 65.7227-17.1875L62.0605-13.4277L58.3008-9.52148L58.6914-17.041Z"/>
  </g>
  <g id="Regular-M" transform="matrix(1 0 0 1 1396.33 1126)">
   <path d="M27.5879 17.0898L79.4434 17.0898C89.5508 17.0898 94.5801 11.9629 94.5801 1.80664L94.5801-42.5293C94.5801-48.8281 93.8477-51.5625 89.9414-55.5664L63.0371-82.959C59.3262-86.7676 56.25-87.5977 50.7812-87.5977L27.5879-87.5977C17.5293-87.5977 12.4512-82.4219 12.4512-72.2656L12.4512 1.80664C12.4512 12.0117 17.4805 17.0898 27.5879 17.0898ZM27.9297 9.22852C22.9004 9.22852 20.3125 6.54297 20.3125 1.66016L20.3125-72.1191C20.3125-76.9531 22.9004-79.7363 27.9785-79.7363L49.707-79.7363L49.707-51.3672C49.707-45.2148 52.7832-42.1875 58.8867-42.1875L86.7188-42.1875L86.7188 1.66016C86.7188 6.54297 84.1309 9.22852 79.0527 9.22852ZM59.7656-49.5605C57.8125-49.5605 57.0801-50.3418 57.0801-52.2949L57.0801-78.2227L85.2051-49.5605ZM57.2266-32.959C57.2266-34.9609 55.5176-36.5723 53.5156-36.5723C51.5137-36.5723 49.8047-34.9609 49.8047-32.959L49.8047-15.2344L50.0977-7.27539L45.9473-11.5723L41.5527-16.0645C40.8691-16.7969 39.8438-17.1875 38.916-17.1875C36.9141-17.1875 35.498-15.7715 35.498-13.8184C35.498-12.6953 35.9375-11.8652 36.7188-11.1816L50.7812 1.75781C51.8066 2.68555 52.5879 3.02734 53.5156 3.02734C54.4434 3.02734 55.2246 2.68555 56.25 1.75781L70.3125-11.1816C71.0938-11.8652 71.5332-12.6953 71.5332-13.8184C71.5332-15.7715 70.0684-17.1875 68.1152-17.1875C67.1387-17.1875 66.1621-16.7969 65.4785-16.0645L61.084-11.5723L56.9336-7.27539L57.2266-15.2344Z"/>
  </g>
  <g id="Light-M" transform="matrix(1 0 0 1 1100.33 1126)">
   <path d="M26.709 16.8457L78.9062 16.8457C88.3789 16.8457 93.1641 11.9629 93.1641 2.44141L93.1641-43.3594C93.1641-48.6328 92.4805-50.9766 89.2578-54.2969L60.5469-83.3008C57.4219-86.4746 54.8828-87.207 50.1465-87.207L26.709-87.207C17.334-87.207 12.4512-82.373 12.4512-72.8516L12.4512 2.44141C12.4512 11.9629 17.2852 16.8457 26.709 16.8457ZM27.002 10.791C21.3867 10.791 18.5059 7.8125 18.5059 2.29492L18.5059-72.7051C18.5059-78.0762 21.3867-81.2012 27.0508-81.2012L49.8535-81.2012L49.8535-51.8066C49.8535-46.2402 52.6855-43.6035 58.1055-43.6035L87.1582-43.6035L87.1582 2.29492C87.1582 7.8125 84.2285 10.791 78.6133 10.791ZM58.7402-49.3164C56.4941-49.3164 55.5664-50.1953 55.5664-52.4414L55.5664-79.9805L85.9375-49.3164ZM55.7129-34.2773C55.7129-35.8398 54.3945-37.1094 52.832-37.1094C51.2695-37.1094 49.9512-35.8398 49.9512-34.2773L49.9512-13.623L50.1953-4.73633L43.8477-11.1816L39.5996-15.5273C39.0625-16.0645 38.2812-16.4062 37.5488-16.4062C35.9863-16.4062 34.8633-15.2832 34.8633-13.7207C34.8633-12.7441 35.3516-12.1094 35.9863-11.4746L50.6836 2.44141C51.4648 3.17383 52.0996 3.4668 52.832 3.4668C53.5645 3.4668 54.1992 3.17383 54.9316 2.44141L69.6289-11.4746C70.3125-12.1094 70.752-12.7441 70.752-13.7207C70.752-15.2832 69.5801-16.4062 68.0664-16.4062C67.334-16.4062 66.5527-16.0645 66.0645-15.5273L61.8164-11.1816L55.4688-4.73633L55.7129-13.623Z"/>
  </g>
  <g id="Thin-M" transform="matrix(1 0 0 1 804.518 1126)">
   <path d="M25.5859 16.4551L78.2227 16.4551C86.8164 16.4551 91.3574 11.9141 91.3574 3.27148L91.3574-44.4824C91.3574-48.3887 90.7227-50.1953 88.3301-52.6367L57.3242-83.7402C54.9316-86.084 53.0762-86.7676 49.3164-86.7676L25.5859-86.7676C17.041-86.7676 12.4512-82.2266 12.4512-73.584L12.4512 3.27148C12.4512 11.9629 16.9434 16.4551 25.5859 16.4551ZM25.7324 12.8418C19.3848 12.8418 16.0645 9.52148 16.0645 3.17383L16.0645-73.4863C16.0645-79.5898 19.3848-83.1543 25.7812-83.1543L50.0977-83.1543L50.0977-52.3926C50.0977-47.5586 52.5391-45.4102 57.0801-45.4102L87.7441-45.4102L87.7441 3.17383C87.7441 9.52148 84.4238 12.8418 78.0273 12.8418ZM57.373-48.9258C54.6875-48.9258 53.6133-50 53.6133-52.6855L53.6133-82.2754L86.8652-48.9258ZM53.6621-36.084C53.6621-37.0605 52.8809-37.8418 51.9043-37.8418C50.9277-37.8418 50.1465-37.0605 50.1465-36.084L50.1465-11.4746L50.293-1.31836L41.0645-10.6934L37.0117-14.8438C36.7188-15.1367 36.2305-15.3809 35.7422-15.3809C34.7656-15.3809 34.0332-14.6484 34.0332-13.623C34.0332-12.7441 34.5215-12.4023 35.0098-11.9141L50.5859 3.36914C50.9766 3.75977 51.4648 4.00391 51.9043 4.00391C52.3438 4.00391 52.7832 3.75977 53.2227 3.36914L68.75-11.9141C69.2871-12.4023 69.7754-12.7441 69.7754-13.623C69.7754-14.6484 68.9941-15.3809 68.0664-15.3809C67.5781-15.3809 67.041-15.1367 66.748-14.8438L62.7441-10.6934L53.5156-1.31836L53.6621-11.4746Z"/>
  </g>
  <g id="Ultralight-M" transform="matrix(1 0 0 1 508.295 1126)">
   <path d="M25 16.2598L77.8809 16.2598C86.0352 16.2598 90.3809 11.9141 90.3809 3.71094L90.3809-45.0195C90.3809-48.291 89.7949-49.8047 87.8418-51.7578L55.6152-83.9355C53.6621-85.9375 52.1484-86.5234 48.877-86.5234L25-86.5234C16.9434-86.5234 12.4512-82.1777 12.4512-73.9746L12.4512 3.71094C12.4512 11.9141 16.7969 16.2598 25 16.2598ZM25.0977 13.8672C18.3594 13.8672 14.8438 10.3516 14.8438 3.61328L14.8438-73.877C14.8438-80.3711 18.3594-84.1309 25.0977-84.1309L50.2441-84.1309L50.2441-52.6855C50.2441-48.1934 52.4414-46.3867 56.543-46.3867L87.9883-46.3867L87.9883 3.61328C87.9883 10.3516 84.5215 13.8672 77.7344 13.8672ZM56.6406-48.7793C53.7598-48.7793 52.6367-49.9023 52.6367-52.7832L52.6367-83.4961L87.3535-48.7793ZM52.6367-37.0117C52.6367-37.6953 52.0996-38.2324 51.416-38.2324C50.7812-38.2324 50.2441-37.6953 50.2441-37.0117L50.2441-10.3516L50.3418 0.390625L39.6484-10.4492L35.6934-14.4531C35.5469-14.6484 35.1562-14.8438 34.8145-14.8438C34.1309-14.8438 33.5938-14.3066 33.5938-13.5742C33.5938-12.7441 34.082-12.5 34.5215-12.1094L50.5371 3.85742C50.7812 4.10156 51.123 4.29688 51.416 4.29688C51.709 4.29688 52.0996 4.10156 52.3438 3.85742L68.3105-12.1094C68.75-12.5 69.2383-12.7441 69.2383-13.5742C69.2383-14.3066 68.7012-14.8438 68.0664-14.8438C67.6758-14.8438 67.334-14.6484 67.1387-14.4531L63.2324-10.4492L52.4902 0.390625L52.6367-10.3516Z"/>
  </g>
  <g id="Black-S" transform="matrix(1 0 0 1 2887.7 696)">
   <path d="M25 8.1543L66.4062 8.1543C75.9766 8.1543 81.6406 2.49023 81.6406-7.08008L81.6406-41.748C81.6406-48.9258 80.3711-52.832 75.7324-57.4707L60.5469-72.6562C55.9082-77.2949 52.002-78.5645 44.8242-78.5645L25-78.5645C15.4297-78.5645 9.76562-72.9004 9.76562-63.3301L9.76562-7.08008C9.76562 2.49023 15.4297 8.1543 25 8.1543ZM27.2461-6.00586C24.8047-6.00586 23.9258-7.08008 23.9258-9.32617L23.9258-61.084C23.9258-63.3301 24.8047-64.4043 27.2461-64.4043L39.9902-64.4043L39.9902-49.707C39.9902-40.918 43.9941-36.9141 52.7832-36.9141L67.4805-36.9141L67.4805-9.32617C67.4805-7.08008 66.6016-6.00586 64.1602-6.00586ZM53.5645-47.6562C51.709-47.6562 50.7324-48.6328 50.7324-50.4883L50.7324-64.1113L67.1875-47.6562ZM51.0742-28.6133C51.0742-31.6406 48.6816-33.4961 45.7031-33.4961C42.7246-33.4961 40.332-31.6406 40.332-28.6133L40.332-27.3438L40.8691-22.7539L39.4043-24.5117L39.0625-24.9512C38.3301-25.8789 37.0605-26.6602 35.791-26.6602C33.2031-26.6602 31.25-24.8047 31.25-22.3633C31.25-20.9473 31.6406-19.9707 32.8613-18.8965L41.2109-11.4746C42.4316-10.3516 43.8477-9.52148 45.7031-9.52148C47.5586-9.52148 48.9746-10.3516 50.1953-11.4746L58.5449-18.8965C59.7656-19.9707 60.1562-20.9473 60.1562-22.3633C60.1562-24.8047 58.2031-26.6602 55.6152-26.6602C54.3945-26.6602 52.9785-25.8789 52.3438-24.9512L52.0508-24.5117L50.5371-22.7539L51.0742-27.3438Z"/>
  </g>
  <g id="Heavy-S" transform="matrix(1 0 0 1 2591.79 696)">
   <path d="M24.3164 7.61719L65.4785 7.61719C74.7559 7.61719 80.0293 2.29492 80.0293-6.93359L80.0293-41.4551C80.0293-48.2422 78.9062-51.7578 74.5605-56.1035L58.2031-72.6074C53.9062-76.9043 50.293-78.0762 43.7012-78.0762L24.3164-78.0762C15.0391-78.0762 9.76562-72.7539 9.76562-63.4766L9.76562-6.93359C9.76562 2.34375 15.0391 7.61719 24.3164 7.61719ZM26.0742-4.83398C23.3887-4.83398 22.2656-6.15234 22.2656-8.69141L22.2656-61.7188C22.2656-64.3066 23.3887-65.5762 26.123-65.5762L39.6973-65.5762L39.6973-49.2188C39.6973-41.3086 43.4082-37.6465 51.3184-37.6465L67.5293-37.6465L67.5293-8.69141C67.5293-6.15234 66.4062-4.83398 63.6719-4.83398ZM52.0996-47.4121C50.3418-47.4121 49.4629-48.291 49.4629-50L49.4629-65.0391L66.9922-47.4121ZM49.8047-29.5898C49.8047-32.3242 47.6074-34.082 44.873-34.082C42.1875-34.082 39.9902-32.3242 39.9902-29.5898L39.9902-25.6836L40.4785-20.8496L38.8672-22.7051L37.7441-23.877C37.0605-24.7559 35.8398-25.4395 34.7168-25.4395C32.3242-25.4395 30.5176-23.7305 30.5176-21.4355C30.5176-20.166 30.9082-19.2383 31.9824-18.2617L40.8691-10.3027C42.041-9.27734 43.2617-8.54492 44.873-8.54492C46.5332-8.54492 47.7539-9.27734 48.9258-10.3027L57.8125-18.2617C58.8867-19.2383 59.2773-20.166 59.2773-21.4355C59.2773-23.7305 57.4707-25.4395 55.0781-25.4395C53.9551-25.4395 52.6855-24.7559 52.0508-23.877L50.9766-22.7051L49.3164-20.8496L49.8047-25.6836Z"/>
  </g>
  <g id="Bold-S" transform="matrix(1 0 0 1 2295.98 696)">
   <path d="M23.5352 7.03125L64.4531 7.03125C73.3398 7.03125 78.2227 2.09961 78.2227-6.78711L78.2227-41.1621C78.2227-47.4609 77.2949-50.5859 73.291-54.6387L55.5664-72.5586C51.6602-76.5137 48.3887-77.4902 42.4805-77.4902L23.5352-77.4902C14.6484-77.4902 9.76562-72.5586 9.76562-63.623L9.76562-6.78711C9.76562 2.14844 14.6484 7.03125 23.5352 7.03125ZM24.8047-3.56445C21.7773-3.56445 20.3613-5.07812 20.3613-7.95898L20.3613-62.4512C20.3613-65.332 21.7773-66.8945 24.8047-66.8945L39.4043-66.8945L39.4043-48.6816C39.4043-41.748 42.7246-38.4766 49.6582-38.4766L67.627-38.4766L67.627-7.95898C67.627-5.07812 66.2109-3.56445 63.1348-3.56445ZM50.4395-47.1191C48.8281-47.1191 48.0957-47.9004 48.0957-49.5117L48.0957-66.0645L66.7969-47.1191ZM48.3398-30.7129C48.3398-33.1055 46.3867-34.7656 43.9941-34.7656C41.6016-34.7656 39.6484-33.1055 39.6484-30.7129L39.6484-23.8281L40.0391-18.6523L38.2324-20.7031L36.2793-22.7051C35.5957-23.4863 34.5215-24.0723 33.4961-24.0723C31.2988-24.0723 29.6875-22.5098 29.6875-20.4102C29.6875-19.2871 30.0781-18.4082 31.0059-17.5781L40.5273-9.0332C41.6016-8.05664 42.627-7.4707 43.9941-7.4707C45.3613-7.4707 46.3867-8.05664 47.4609-9.0332L56.9824-17.5781C57.9102-18.4082 58.3008-19.2871 58.3008-20.4102C58.3008-22.5098 56.6406-24.0723 54.4922-24.0723C53.4668-24.0723 52.3438-23.4863 51.709-22.7051L49.8047-20.7031L47.9492-18.6523L48.3398-23.8281Z"/>
  </g>
  <g id="Semibold-S" transform="matrix(1 0 0 1 1999.91 696)">
   <path d="M22.998 6.64062L63.7695 6.64062C72.4121 6.64062 76.9531 2.00195 76.9531-6.68945L76.9531-40.918C76.9531-46.9238 76.1719-49.7559 72.4121-53.5645L53.7598-72.5098C50.0977-76.2207 47.0703-77.0996 41.6016-77.0996L22.998-77.0996C14.3555-77.0996 9.76562-72.4609 9.76562-63.7695L9.76562-6.68945C9.76562 2.00195 14.3555 6.64062 22.998 6.64062ZM23.9258-2.68555C20.6543-2.68555 19.0918-4.39453 19.0918-7.4707L19.0918-62.9883C19.0918-66.0645 20.6543-67.7734 23.9258-67.7734L39.209-67.7734L39.209-48.3398C39.209-42.041 42.2363-39.0137 48.4863-39.0137L67.6758-39.0137L67.6758-7.4707C67.6758-4.39453 66.0645-2.68555 62.793-2.68555ZM49.3164-46.9238C47.8027-46.9238 47.1191-47.6074 47.1191-49.1211L47.1191-66.7969L66.6504-46.9238ZM47.3633-31.4453C47.3633-33.6426 45.5078-35.2051 43.3594-35.2051C41.2109-35.2051 39.4043-33.6426 39.4043-31.4453L39.4043-22.5586L39.7461-17.1875L37.793-19.2871L35.2539-21.875C34.6191-22.6562 33.5938-23.0957 32.666-23.0957C30.6152-23.0957 29.1016-21.6797 29.1016-19.7266C29.1016-18.6523 29.4922-17.8223 30.3223-17.0898L40.2832-8.1543C41.3086-7.22656 42.1875-6.73828 43.3594-6.73828C44.5312-6.73828 45.4102-7.22656 46.4844-8.1543L56.3965-17.0898C57.2754-17.8223 57.6172-18.6523 57.6172-19.7266C57.6172-21.6797 56.1035-23.0957 54.1016-23.0957C53.125-23.0957 52.0996-22.6562 51.4648-21.875L48.9746-19.2871L46.9727-17.1875L47.3633-22.5586Z"/>
  </g>
  <g id="Medium-S" transform="matrix(1 0 0 1 1703.66 696)">
   <path d="M22.5586 6.29883L63.2324 6.29883C71.6797 6.29883 76.0254 1.9043 76.0254-6.64062L76.0254-40.7715C76.0254-46.4844 75.293-49.1211 71.7285-52.7832L52.3926-72.5098C48.9258-76.0254 46.0449-76.8066 40.918-76.8066L22.5586-76.8066C14.1113-76.8066 9.76562-72.3633 9.76562-63.8672L9.76562-6.64062C9.76562 1.9043 14.1113 6.29883 22.5586 6.29883ZM23.2422-2.00195C19.8242-2.00195 18.0664-3.85742 18.0664-7.12891L18.0664-63.3789C18.0664-66.6504 19.8242-68.457 23.291-68.457L39.0625-68.457L39.0625-48.0469C39.0625-42.2852 41.8945-39.4531 47.6562-39.4531L67.6758-39.4531L67.6758-7.12891C67.6758-3.85742 65.9668-2.00195 62.5-2.00195ZM48.4863-46.7773C47.0215-46.7773 46.3867-47.4121 46.3867-48.877L46.3867-67.334L66.5527-46.7773ZM46.582-32.0312C46.582-34.0332 44.873-35.5469 42.8711-35.5469C40.8691-35.5469 39.209-34.0332 39.209-32.0312L39.209-21.6309L39.502-16.0645L37.4512-18.2617L34.4727-21.2891C33.8379-21.9727 32.9102-22.4121 32.0312-22.4121C30.0781-22.4121 28.7109-21.0449 28.7109-19.1895C28.7109-18.1641 29.0527-17.3828 29.7852-16.748L40.0879-7.4707C41.0645-6.5918 41.8457-6.20117 42.8711-6.20117C43.8965-6.20117 44.7266-6.5918 45.7031-7.4707L55.957-16.748C56.7383-17.3828 57.0801-18.1641 57.0801-19.1895C57.0801-21.0449 55.6641-22.4121 53.7598-22.4121C52.832-22.4121 51.9043-21.9727 51.2695-21.2891L48.3398-18.2617L46.2891-16.0645L46.582-21.6309Z"/>
  </g>
  <g id="Regular-S" transform="matrix(1 0 0 1 1407.56 696)">
   <path d="M22.0215 5.9082L62.5 5.9082C70.7031 5.9082 74.8047 1.75781 74.8047-6.54297L74.8047-40.5762C74.8047-45.9473 74.2188-48.291 70.8496-51.7578L50.5859-72.4609C47.4121-75.7324 44.7754-76.416 40.0879-76.416L22.0215-76.416C13.8184-76.416 9.76562-72.2656 9.76562-63.9648L9.76562-6.54297C9.76562 1.80664 13.8184 5.9082 22.0215 5.9082ZM22.3633-1.12305C18.7012-1.12305 16.7969-3.125 16.7969-6.64062L16.7969-63.8672C16.7969-67.3828 18.7012-69.3848 22.4121-69.3848L38.8672-69.3848L38.8672-47.6562C38.8672-42.5781 41.4551-39.9902 46.5332-39.9902L67.7246-39.9902L67.7246-6.64062C67.7246-3.125 65.8203-1.12305 62.1582-1.12305ZM47.3633-46.582C45.9961-46.582 45.4102-47.168 45.4102-48.5352L45.4102-68.0664L66.4062-46.582ZM45.6055-32.7637C45.6055-34.5703 44.043-36.0352 42.2852-36.0352C40.4785-36.0352 38.916-34.5703 38.916-32.7637L38.916-20.3613L39.209-14.5996L37.0117-16.8945L33.4961-20.459C32.8613-21.1426 31.9824-21.4844 31.2012-21.4844C29.3945-21.4844 28.125-20.2148 28.125-18.5059C28.125-17.5781 28.4668-16.8457 29.1504-16.2598L39.8438-6.5918C40.7715-5.76172 41.4062-5.46875 42.2852-5.46875C43.1152-5.46875 43.7988-5.76172 44.7266-6.5918L55.4199-16.2598C56.1035-16.8457 56.4453-17.5781 56.4453-18.5059C56.4453-20.2148 55.127-21.4844 53.3691-21.4844C52.5391-21.4844 51.6602-21.1426 51.0742-20.459L47.5098-16.8945L45.3125-14.5996L45.6055-20.3613Z"/>
  </g>
  <g id="Light-S" transform="matrix(1 0 0 1 1111.48 696)">
   <path d="M21.2891 5.66406L62.0605 5.66406C69.6777 5.66406 73.5352 1.75781 73.5352-5.95703L73.5352-41.3086C73.5352-45.8008 72.998-47.8027 70.2148-50.6348L48.3887-72.7539C45.752-75.4883 43.5547-76.123 39.5508-76.123L21.2891-76.123C13.6719-76.123 9.76562-72.168 9.76562-64.4531L9.76562-5.95703C9.76562 1.75781 13.623 5.66406 21.2891 5.66406ZM21.5332 0.244141C17.3828 0.244141 15.1855-2.00195 15.1855-6.05469L15.1855-64.3555C15.1855-68.3594 17.3828-70.6543 21.582-70.6543L39.0137-70.6543L39.0137-48.0469C39.0137-43.457 41.3574-41.2598 45.8008-41.2598L68.1152-41.2598L68.1152-6.05469C68.1152-2.00195 65.9668 0.244141 61.7676 0.244141ZM46.4355-46.3379C44.7754-46.3379 44.1406-47.0215 44.1406-48.6816L44.1406-69.5801L67.041-46.3379ZM44.2383-33.9844C44.2383-35.3516 43.0664-36.5234 41.6504-36.5234C40.2832-36.5234 39.0625-35.3516 39.0625-33.9844L39.0625-18.8965L39.3066-12.3047L35.1562-16.5527L31.7871-20.0195C31.2988-20.5078 30.6152-20.752 29.9805-20.752C28.5645-20.752 27.5879-19.7754 27.5879-18.4082C27.5879-17.5781 27.9297-17.041 28.4668-16.5039L39.7461-5.95703C40.4785-5.32227 41.0156-5.07812 41.6504-5.07812C42.334-5.07812 42.8711-5.32227 43.5547-5.95703L54.834-16.5039C55.3711-17.041 55.7617-17.5781 55.7617-18.4082C55.7617-19.7754 54.6875-20.752 53.3691-20.752C52.6855-20.752 52.002-20.5078 51.5625-20.0195L48.1445-16.5527L44.043-12.3047L44.2383-18.8965Z"/>
  </g>
  <g id="Thin-S" transform="matrix(1 0 0 1 815.578 696)">
   <path d="M20.2637 5.32227L61.4258 5.32227C68.3594 5.32227 71.9238 1.70898 71.9238-5.22461L71.9238-42.2363C71.9238-45.6055 71.4355-47.1191 69.3848-49.1699L45.5078-73.1445C43.5547-75.1465 41.9434-75.6836 38.8184-75.6836L20.2637-75.6836C13.4277-75.6836 9.76562-72.0703 9.76562-65.1367L9.76562-5.22461C9.76562 1.75781 13.3789 5.32227 20.2637 5.32227ZM20.4102 2.05078C15.5762 2.05078 13.0859-0.488281 13.0859-5.32227L13.0859-65.0391C13.0859-69.7266 15.5762-72.4121 20.459-72.4121L39.209-72.4121L39.209-48.5352C39.209-44.6289 41.2109-42.8711 44.9219-42.8711L68.6035-42.8711L68.6035-5.32227C68.6035-0.488281 66.1133 2.05078 61.2793 2.05078ZM45.2148-46.0449C43.2129-46.0449 42.3828-46.8262 42.3828-48.8281L42.3828-71.6309L67.8711-46.0449ZM42.4316-35.5469C42.4316-36.4258 41.6992-37.1582 40.8691-37.1582C39.9902-37.1582 39.2578-36.4258 39.2578-35.5469L39.2578-17.041L39.4043-9.32617L32.7148-16.1133L29.4922-19.3848C29.248-19.6777 28.8086-19.873 28.3691-19.873C27.4902-19.873 26.8555-19.2383 26.8555-18.3105C26.8555-17.627 27.1973-17.2852 27.6367-16.8457L39.6484-5.17578C40.0391-4.78516 40.4297-4.58984 40.8691-4.58984C41.2598-4.58984 41.6504-4.78516 42.041-5.17578L54.0527-16.8457C54.4922-17.2852 54.8828-17.627 54.8828-18.3105C54.8828-19.2383 54.1992-19.873 53.3203-19.873C52.8809-19.873 52.4414-19.6777 52.1973-19.3848L48.9746-16.1133L42.2852-9.32617L42.4316-17.041Z"/>
  </g>
  <g id="Ultralight-S" transform="matrix(1 0 0 1 519.281 696)">
   <path d="M19.7266 5.17578L61.084 5.17578C67.627 5.17578 71.0938 1.70898 71.0938-4.83398L71.0938-42.7734C71.0938-45.5078 70.6055-46.7773 68.9453-48.4375L44.043-73.3398C42.3828-75 41.1133-75.4883 38.4277-75.4883L19.7266-75.4883C13.3301-75.4883 9.76562-72.0215 9.76562-65.4785L9.76562-4.83398C9.76562 1.70898 13.2324 5.17578 19.7266 5.17578ZM19.873 2.97852C14.6484 2.97852 11.9629 0.244141 11.9629-4.93164L11.9629-65.3809C11.9629-70.4102 14.6484-73.291 19.873-73.291L39.3066-73.291L39.3066-48.8281C39.3066-45.2148 41.1133-43.7012 44.4336-43.7012L68.8965-43.7012L68.8965-4.93164C68.8965 0.244141 66.2109 2.97852 60.9863 2.97852ZM44.5801-45.8984C42.3828-45.8984 41.5039-46.7285 41.5039-48.9746L41.5039-72.7051L68.3105-45.8984ZM41.5039-36.377C41.5039-36.9629 41.0156-37.4512 40.4297-37.4512C39.8438-37.4512 39.3555-36.9629 39.3555-36.377L39.3555-16.0645L39.4531-7.76367L31.4453-15.8691L28.3203-19.043C28.1738-19.2383 27.832-19.3848 27.5391-19.3848C26.9531-19.3848 26.4648-18.8965 26.4648-18.2617C26.4648-17.627 26.8555-17.3828 27.1973-17.041L39.5996-4.73633C39.8438-4.49219 40.1367-4.3457 40.4297-4.3457C40.7227-4.3457 41.0156-4.49219 41.2598-4.73633L53.6621-17.041C54.0039-17.3828 54.3945-17.627 54.3945-18.2617C54.3945-18.8965 53.9062-19.3848 53.3203-19.3848C52.9785-19.3848 52.6855-19.2383 52.4902-19.043L49.4141-15.8691L41.4062-7.76367L41.5039-16.0645Z"/>
  </g>
 </g>
</svg>
