<?xml version="1.0" encoding="UTF-8"?>
<!--Generator: Apple Native CoreSVG 149-->
<!DOCTYPE svg
PUBLIC "-//W3C//DTD SVG 1.1//EN"
       "http://www.w3.org/Graphics/SVG/1.1/DTD/svg11.dtd">
<svg version="1.1" xmlns="http://www.w3.org/2000/svg" xmlns:xlink="http://www.w3.org/1999/xlink" width="3300" height="2200">
 <!--glyph: "uni10022D.medium", point size: 100.000000, font version: "Version 16.0d18e1", template writer version: "8"-->
 <g id="Notes">
  <rect height="2200" id="artboard" style="fill:white;opacity:1" width="3300" x="0" y="0"/>
  <line id="" style="fill:none;stroke:black;opacity:1;stroke-width:0.5;" x1="263" x2="3036" y1="292" y2="292"/>
  <text style="stroke:none;fill:black;font-family:-apple-system,&quot;SF Pro Display&quot;,&quot;SF Pro Text&quot;,Helvetica,sans-serif;font-weight:bold;" transform="matrix(1 0 0 1 263 322)">Weight/Scale Variations</text>
  <text style="stroke:none;fill:black;font-family:-apple-system,&quot;SF Pro Display&quot;,&quot;SF Pro Text&quot;,Helvetica,sans-serif;text-anchor:middle;" transform="matrix(1 0 0 1 559.711 322)">Ultralight</text>
  <text style="stroke:none;fill:black;font-family:-apple-system,&quot;SF Pro Display&quot;,&quot;SF Pro Text&quot;,Helvetica,sans-serif;text-anchor:middle;" transform="matrix(1 0 0 1 856.422 322)">Thin</text>
  <text style="stroke:none;fill:black;font-family:-apple-system,&quot;SF Pro Display&quot;,&quot;SF Pro Text&quot;,Helvetica,sans-serif;text-anchor:middle;" transform="matrix(1 0 0 1 1153.13 322)">Light</text>
  <text style="stroke:none;fill:black;font-family:-apple-system,&quot;SF Pro Display&quot;,&quot;SF Pro Text&quot;,Helvetica,sans-serif;text-anchor:middle;" transform="matrix(1 0 0 1 1449.84 322)">Regular</text>
  <text style="stroke:none;fill:black;font-family:-apple-system,&quot;SF Pro Display&quot;,&quot;SF Pro Text&quot;,Helvetica,sans-serif;text-anchor:middle;" transform="matrix(1 0 0 1 1746.56 322)">Medium</text>
  <text style="stroke:none;fill:black;font-family:-apple-system,&quot;SF Pro Display&quot;,&quot;SF Pro Text&quot;,Helvetica,sans-serif;text-anchor:middle;" transform="matrix(1 0 0 1 2043.27 322)">Semibold</text>
  <text style="stroke:none;fill:black;font-family:-apple-system,&quot;SF Pro Display&quot;,&quot;SF Pro Text&quot;,Helvetica,sans-serif;text-anchor:middle;" transform="matrix(1 0 0 1 2339.98 322)">Bold</text>
  <text style="stroke:none;fill:black;font-family:-apple-system,&quot;SF Pro Display&quot;,&quot;SF Pro Text&quot;,Helvetica,sans-serif;text-anchor:middle;" transform="matrix(1 0 0 1 2636.69 322)">Heavy</text>
  <text style="stroke:none;fill:black;font-family:-apple-system,&quot;SF Pro Display&quot;,&quot;SF Pro Text&quot;,Helvetica,sans-serif;text-anchor:middle;" transform="matrix(1 0 0 1 2933.4 322)">Black</text>
  <line id="" style="fill:none;stroke:black;opacity:1;stroke-width:0.5;" x1="263" x2="3036" y1="1903" y2="1903"/>
  <g id="" transform="matrix(1 0 0 1 263 1933)">
   <path d="M9.24805 0.830078C13.5547 0.830078 17.1387-2.74414 17.1387-7.05078C17.1387-11.3574 13.5449-14.9316 9.23828-14.9316C4.94141-14.9316 1.36719-11.3574 1.36719-7.05078C1.36719-2.74414 4.95117 0.830078 9.24805 0.830078ZM9.24805-0.654297C5.70312-0.654297 2.87109-3.49609 2.87109-7.05078C2.87109-10.6055 5.69336-13.4473 9.23828-13.4473C12.793-13.4473 15.6348-10.6055 15.6445-7.05078C15.6543-3.49609 12.8027-0.654297 9.24805-0.654297ZM6.39648-6.31836L8.50586-6.31836L8.50586-4.19922C8.50586-3.75977 8.79883-3.45703 9.22852-3.45703C9.67773-3.45703 9.9707-3.75977 9.9707-4.19922L9.9707-6.31836L12.0996-6.31836C12.5391-6.31836 12.8418-6.61133 12.8418-7.04102C12.8418-7.48047 12.5391-7.7832 12.0996-7.7832L9.9707-7.7832L9.9707-9.89258C9.9707-10.3418 9.67773-10.6445 9.22852-10.6445C8.79883-10.6445 8.50586-10.3418 8.50586-9.89258L8.50586-7.7832L6.39648-7.7832C5.94727-7.7832 5.64453-7.48047 5.64453-7.04102C5.64453-6.61133 5.94727-6.31836 6.39648-6.31836Z"/>
  </g>
  <g id="" transform="matrix(1 0 0 1 281.506 1933)">
   <path d="M11.709 2.91016C17.1582 2.91016 21.6699-1.61133 21.6699-7.05078C21.6699-12.5 17.1484-17.0117 11.6992-17.0117C6.25977-17.0117 1.74805-12.5 1.74805-7.05078C1.74805-1.61133 6.26953 2.91016 11.709 2.91016ZM11.709 1.25C7.09961 1.25 3.41797-2.44141 3.41797-7.05078C3.41797-11.6602 7.08984-15.3516 11.6992-15.3516C16.3086-15.3516 20-11.6602 20.0098-7.05078C20.0195-2.44141 16.3184 1.25 11.709 1.25ZM7.98828-6.23047L10.8789-6.23047L10.8789-3.32031C10.8789-2.83203 11.2109-2.5 11.6895-2.5C12.1777-2.5 12.5195-2.83203 12.5195-3.32031L12.5195-6.23047L15.4297-6.23047C15.918-6.23047 16.25-6.5625 16.25-7.04102C16.25-7.5293 15.918-7.87109 15.4297-7.87109L12.5195-7.87109L12.5195-10.7617C12.5195-11.2695 12.1777-11.6016 11.6895-11.6016C11.2109-11.6016 10.8789-11.2598 10.8789-10.7617L10.8789-7.87109L7.98828-7.87109C7.48047-7.87109 7.14844-7.5293 7.14844-7.04102C7.14844-6.5625 7.49023-6.23047 7.98828-6.23047Z"/>
  </g>
  <g id="" transform="matrix(1 0 0 1 304.924 1933)">
   <path d="M14.9707 5.66406C21.9336 5.66406 27.6953-0.0976562 27.6953-7.05078C27.6953-14.0137 21.9238-19.7754 14.9609-19.7754C8.00781-19.7754 2.25586-14.0137 2.25586-7.05078C2.25586-0.0976562 8.01758 5.66406 14.9707 5.66406ZM14.9707 3.84766C8.93555 3.84766 4.08203-1.01562 4.08203-7.05078C4.08203-13.0957 8.92578-17.9492 14.9609-17.9492C21.0059-17.9492 25.8594-13.0957 25.8691-7.05078C25.8789-1.01562 21.0156 3.84766 14.9707 3.84766ZM10.0586-6.14258L14.0625-6.14258L14.0625-2.12891C14.0625-1.5918 14.4336-1.2207 14.9512-1.2207C15.4883-1.2207 15.8594-1.5918 15.8594-2.12891L15.8594-6.14258L19.8828-6.14258C20.4102-6.14258 20.791-6.51367 20.791-7.03125C20.791-7.56836 20.4199-7.94922 19.8828-7.94922L15.8594-7.94922L15.8594-11.9531C15.8594-12.5098 15.4883-12.8809 14.9512-12.8809C14.4336-12.8809 14.0625-12.5 14.0625-11.9531L14.0625-7.94922L10.0586-7.94922C9.50195-7.94922 9.13086-7.56836 9.13086-7.03125C9.13086-6.51367 9.51172-6.14258 10.0586-6.14258Z"/>
  </g>
  <text style="stroke:none;fill:black;font-family:-apple-system,&quot;SF Pro Display&quot;,&quot;SF Pro Text&quot;,Helvetica,sans-serif;font-weight:bold;" transform="matrix(1 0 0 1 263 1953)">Design Variations</text>
  <text style="stroke:none;fill:black;font-family:-apple-system,&quot;SF Pro Display&quot;,&quot;SF Pro Text&quot;,Helvetica,sans-serif;" transform="matrix(1 0 0 1 263 1971)">Symbols are supported in up to nine weights and three scales.</text>
  <text style="stroke:none;fill:black;font-family:-apple-system,&quot;SF Pro Display&quot;,&quot;SF Pro Text&quot;,Helvetica,sans-serif;" transform="matrix(1 0 0 1 263 1989)">For optimal layout with text and other symbols, vertically align</text>
  <text style="stroke:none;fill:black;font-family:-apple-system,&quot;SF Pro Display&quot;,&quot;SF Pro Text&quot;,Helvetica,sans-serif;" transform="matrix(1 0 0 1 263 2007)">symbols with the adjacent text.</text>
  <line id="" style="fill:none;stroke:#00AEEF;stroke-width:0.5;opacity:1.0;" x1="776" x2="776" y1="1919" y2="1933"/>
  <g id="" transform="matrix(1 0 0 1 776 1933)">
   <path d="M3.31055 0.126953C3.82812 0.126953 4.08203-0.0683594 4.26758-0.605469L5.52734-4.0625L11.2891-4.0625L12.5488-0.605469C12.7344-0.0683594 12.9883 0.126953 13.4961 0.126953C14.0137 0.126953 14.3457-0.185547 14.3457-0.673828C14.3457-0.839844 14.3164-0.986328 14.2383-1.20117L9.6582-13.3887C9.43359-13.9941 9.0332-14.2871 8.4082-14.2871C7.80273-14.2871 7.39258-13.9941 7.17773-13.3984L2.59766-1.19141C2.51953-0.976562 2.49023-0.830078 2.49023-0.664062C2.49023-0.175781 2.80273 0.126953 3.31055 0.126953ZM6.00586-5.53711L8.37891-12.1094L8.42773-12.1094L10.8008-5.53711Z"/>
  </g>
  <line id="" style="fill:none;stroke:#00AEEF;stroke-width:0.5;opacity:1.0;" x1="792.836" x2="792.836" y1="1919" y2="1933"/>
  <text style="stroke:none;fill:black;font-family:-apple-system,&quot;SF Pro Display&quot;,&quot;SF Pro Text&quot;,Helvetica,sans-serif;font-weight:bold;" transform="matrix(1 0 0 1 776 1953)">Margins</text>
  <text style="stroke:none;fill:black;font-family:-apple-system,&quot;SF Pro Display&quot;,&quot;SF Pro Text&quot;,Helvetica,sans-serif;" transform="matrix(1 0 0 1 776 1971)">Leading and trailing margins on the left and right side of each symbol</text>
  <text style="stroke:none;fill:black;font-family:-apple-system,&quot;SF Pro Display&quot;,&quot;SF Pro Text&quot;,Helvetica,sans-serif;" transform="matrix(1 0 0 1 776 1989)">can be adjusted by modifying the x-location of the margin guidelines.</text>
  <text style="stroke:none;fill:black;font-family:-apple-system,&quot;SF Pro Display&quot;,&quot;SF Pro Text&quot;,Helvetica,sans-serif;" transform="matrix(1 0 0 1 776 2007)">Modifications are automatically applied proportionally to all</text>
  <text style="stroke:none;fill:black;font-family:-apple-system,&quot;SF Pro Display&quot;,&quot;SF Pro Text&quot;,Helvetica,sans-serif;" transform="matrix(1 0 0 1 776 2025)">scales and weights.</text>
  <g id="" transform="matrix(1 0 0 1 1289 1933)">
   <path d="M2.8418 1.86523L4.54102 3.57422C5.40039 4.44336 6.38672 4.38477 7.31445 3.35938L17.4902-7.85156C17.7539-7.76367 18.0273-7.7832 18.3398-7.8418L19.4043-8.03711L20.0684-7.36328L20.0293-6.80664C19.9902-6.30859 20.1172-5.92773 20.6055-5.44922L21.3672-4.70703C21.8457-4.22852 22.4609-4.19922 22.9297-4.66797L25.8398-7.58789C26.3086-8.05664 26.2891-8.65234 25.8105-9.13086L25.0391-9.89258C24.5605-10.3711 24.1895-10.5273 23.7109-10.4883L23.1348-10.4395L22.4902-11.0742L22.7344-12.1973C22.8613-12.7637 22.7051-13.2031 22.1191-13.7891L19.9219-15.9766C16.582-19.2969 12.1484-19.2188 9.25781-16.3281C8.83789-15.918 8.80859-15.3418 9.04297-14.9512C9.27734-14.5898 9.73633-14.3555 10.3809-14.5215C11.8457-14.8633 13.3691-14.9219 14.7949-13.9844L14.209-12.5293C14.0137-12.0508 13.9844-11.6504 14.1113-11.2891L3.04688-0.898438C2.06055 0.0195312 1.98242 0.996094 2.8418 1.86523ZM10.752-15.957C13.1836-17.7344 16.4746-17.4316 18.7012-15.2051L21.1328-12.793C21.3672-12.5586 21.4062-12.373 21.3379-12.0312L21.0156-10.5469L22.5195-9.0625L23.5059-9.12109C23.7598-9.13086 23.8379-9.11133 24.0332-8.91602L24.6094-8.33984L22.168-5.89844L21.5918-6.47461C21.3965-6.66992 21.3672-6.74805 21.377-7.01172L21.4453-7.98828L19.9512-9.47266L18.4277-9.21875C18.1055-9.15039 17.959-9.17969 17.7148-9.41406L15.7129-11.416C15.459-11.6504 15.4297-11.8164 15.5859-12.1875L16.4648-14.2773C14.9023-15.7324 12.8711-16.3574 10.8398-15.7617C10.6836-15.7227 10.625-15.8496 10.752-15.957ZM5.27344 2.30469L4.10156 1.14258C3.63281 0.683594 3.74023 0.341797 4.14062-0.0195312L14.9512-10.1953L16.416-8.71094L6.42578 2.27539C6.07422 2.67578 5.74219 2.77344 5.27344 2.30469Z"/>
  </g>
  <text style="stroke:none;fill:black;font-family:-apple-system,&quot;SF Pro Display&quot;,&quot;SF Pro Text&quot;,Helvetica,sans-serif;font-weight:bold;" transform="matrix(1 0 0 1 1289 1953)">Exporting</text>
  <text style="stroke:none;fill:black;font-family:-apple-system,&quot;SF Pro Display&quot;,&quot;SF Pro Text&quot;,Helvetica,sans-serif;" transform="matrix(1 0 0 1 1289 1971)">Symbols should be outlined when exporting to ensure the</text>
  <text style="stroke:none;fill:black;font-family:-apple-system,&quot;SF Pro Display&quot;,&quot;SF Pro Text&quot;,Helvetica,sans-serif;" transform="matrix(1 0 0 1 1289 1989)">design is preserved when submitting to Xcode.</text>
  <text id="template-version" style="stroke:none;fill:black;font-family:-apple-system,&quot;SF Pro Display&quot;,&quot;SF Pro Text&quot;,Helvetica,sans-serif;text-anchor:end;" transform="matrix(1 0 0 1 3036 1933)">Template v.2.0</text>
  <text style="stroke:none;fill:black;font-family:-apple-system,&quot;SF Pro Display&quot;,&quot;SF Pro Text&quot;,Helvetica,sans-serif;text-anchor:end;" transform="matrix(1 0 0 1 3036 1951)">Requires Xcode 12 or greater</text>
  <text style="stroke:none;fill:black;font-family:-apple-system,&quot;SF Pro Display&quot;,&quot;SF Pro Text&quot;,Helvetica,sans-serif;text-anchor:end;" transform="matrix(1 0 0 1 3036 1969)">Generated from archivebox</text>
  <text style="stroke:none;fill:black;font-family:-apple-system,&quot;SF Pro Display&quot;,&quot;SF Pro Text&quot;,Helvetica,sans-serif;text-anchor:end;" transform="matrix(1 0 0 1 3036 1987)">Typeset at 100 points</text>
  <text style="stroke:none;fill:black;font-family:-apple-system,&quot;SF Pro Display&quot;,&quot;SF Pro Text&quot;,Helvetica,sans-serif;" transform="matrix(1 0 0 1 263 726)">Small</text>
  <text style="stroke:none;fill:black;font-family:-apple-system,&quot;SF Pro Display&quot;,&quot;SF Pro Text&quot;,Helvetica,sans-serif;" transform="matrix(1 0 0 1 263 1156)">Medium</text>
  <text style="stroke:none;fill:black;font-family:-apple-system,&quot;SF Pro Display&quot;,&quot;SF Pro Text&quot;,Helvetica,sans-serif;" transform="matrix(1 0 0 1 263 1586)">Large</text>
 </g>
 <g id="Guides">
  <g id="H-reference" style="fill:#27AAE1;stroke:none;" transform="matrix(1 0 0 1 339 696)">
   <path d="M0.976562 0L3.66211 0L12.9883-24.4629L45.752-24.4629L55.127 0L57.7637 0L30.6152-70.459L28.125-70.459ZM29.3457-67.1387L29.4434-67.1387L44.873-26.709L13.8672-26.709Z"/>
  </g>
  <line id="Baseline-S" style="fill:none;stroke:#27AAE1;opacity:1;stroke-width:0.5;" x1="263" x2="3036" y1="696" y2="696"/>
  <line id="Capline-S" style="fill:none;stroke:#27AAE1;opacity:1;stroke-width:0.5;" x1="263" x2="3036" y1="625.541" y2="625.541"/>
  <g id="H-reference" style="fill:#27AAE1;stroke:none;" transform="matrix(1 0 0 1 339 1126)">
   <path d="M0.976562 0L3.66211 0L12.9883-24.4629L45.752-24.4629L55.127 0L57.7637 0L30.6152-70.459L28.125-70.459ZM29.3457-67.1387L29.4434-67.1387L44.873-26.709L13.8672-26.709Z"/>
  </g>
  <line id="Baseline-M" style="fill:none;stroke:#27AAE1;opacity:1;stroke-width:0.5;" x1="263" x2="3036" y1="1126" y2="1126"/>
  <line id="Capline-M" style="fill:none;stroke:#27AAE1;opacity:1;stroke-width:0.5;" x1="263" x2="3036" y1="1055.54" y2="1055.54"/>
  <g id="H-reference" style="fill:#27AAE1;stroke:none;" transform="matrix(1 0 0 1 339 1556)">
   <path d="M0.976562 0L3.66211 0L12.9883-24.4629L45.752-24.4629L55.127 0L57.7637 0L30.6152-70.459L28.125-70.459ZM29.3457-67.1387L29.4434-67.1387L44.873-26.709L13.8672-26.709Z"/>
  </g>
  <line id="Baseline-L" style="fill:none;stroke:#27AAE1;opacity:1;stroke-width:0.5;" x1="263" x2="3036" y1="1556" y2="1556"/>
  <line id="Capline-L" style="fill:none;stroke:#27AAE1;opacity:1;stroke-width:0.5;" x1="263" x2="3036" y1="1485.54" y2="1485.54"/>
  <line id="left-margin" style="fill:none;stroke:#00AEEF;stroke-width:0.5;opacity:1.0;" x1="1388.59" x2="1388.59" y1="1030.79" y2="1150.12"/>
  <line id="right-margin" style="fill:none;stroke:#00AEEF;stroke-width:0.5;opacity:1.0;" x1="1511.1" x2="1511.1" y1="1030.79" y2="1150.12"/>
 </g>
 <g id="Symbols">
  <g id="Black-L" transform="matrix(1 0 0 1 2850.15 1556)">
   <path d="M48.8281 26.5137L117.676 26.5137C132.666 26.5137 141.357 17.9199 141.357 2.97852L141.357-53.125C147.07-56.2012 150.439-62.207 150.439-69.9219L150.439-77.8809C150.439-89.209 143.115-96.875 131.689-96.875L34.9121-96.875C23.6816-96.875 16.0645-89.209 16.0645-77.8809L16.0645-69.9219C16.0645-62.2559 19.4824-56.25 25.1953-53.1738L25.1953 2.97852C25.1953 17.9199 33.8379 26.5137 48.8281 26.5137ZM36.9629-68.8965C34.9609-68.8965 33.7402-70.1172 33.7402-72.168L33.7402-75.6348C33.7402-77.6367 34.9609-78.8574 36.9629-78.8574L129.541-78.8574C131.592-78.8574 132.812-77.6367 132.812-75.6348L132.812-72.168C132.812-70.1172 131.592-68.8965 129.541-68.8965ZM51.4648 6.49414C47.4609 6.49414 45.4102 4.6875 45.4102 0.439453L45.4102-50.8789L121.094-50.8789L121.094 0.439453C121.094 4.6875 119.043 6.49414 115.039 6.49414ZM64.5996-24.0723L102.002-24.0723C106.104-24.0723 109.277-27.1973 109.277-31.3965L109.277-33.4473C109.277-37.6953 106.152-40.7227 102.002-40.7227L64.5996-40.7227C60.4492-40.7227 57.3242-37.6953 57.3242-33.4473L57.3242-31.3965C57.3242-27.1973 60.498-24.0723 64.5996-24.0723Z"/>
  </g>
  <g id="Heavy-L" transform="matrix(1 0 0 1 2554.56 1556)">
   <path d="M47.6074 25.4883L116.65 25.4883C130.908 25.4883 139.062 17.4805 139.062 3.22266L139.062-54.4922C144.824-57.1289 148.193-62.793 148.193-70.2148L148.193-78.5645C148.193-88.916 141.65-95.8496 131.201-95.8496L33.1055-95.8496C22.9004-95.8496 16.0645-88.916 16.0645-78.5645L16.0645-70.2148C16.0645-62.793 19.4824-57.1289 25.1953-54.541L25.1953 3.22266C25.1953 17.4805 33.3496 25.4883 47.6074 25.4883ZM35.1562-68.6035C32.8613-68.6035 31.5918-69.9219 31.5918-72.2168L31.5918-76.5625C31.5918-78.8574 32.8613-80.1758 35.1562-80.1758L129.15-80.1758C131.445-80.1758 132.666-78.8574 132.666-76.5625L132.666-72.2168C132.666-69.9219 131.445-68.6035 129.15-68.6035ZM49.6094 8.30078C45.0684 8.30078 42.7246 6.10352 42.7246 1.36719L42.7246-52.9297L121.582-52.9297L121.582 1.36719C121.582 6.10352 119.189 8.30078 114.648 8.30078ZM62.8906-26.4648L101.465-26.4648C105.176-26.4648 107.959-29.248 107.959-33.1055L107.959-35.1074C107.959-38.9648 105.225-41.6504 101.465-41.6504L62.8906-41.6504C59.1309-41.6504 56.3965-38.9648 56.3965-35.1074L56.3965-33.1055C56.3965-29.248 59.1797-26.4648 62.8906-26.4648Z"/>
  </g>
  <g id="Bold-L" transform="matrix(1 0 0 1 2259.09 1556)">
   <path d="M46.2402 24.3652L115.479 24.3652C129.004 24.3652 136.523 16.9434 136.523 3.4668L136.523-56.1035C142.334-58.1543 145.703-63.4277 145.703-70.5566L145.703-79.3457C145.703-88.5742 139.99-94.7266 130.664-94.7266L31.1035-94.7266C22.0215-94.7266 16.0645-88.5742 16.0645-79.3457L16.0645-70.5566C16.0645-63.4766 19.4336-58.2031 25.1953-56.1523L25.1953 3.4668C25.1953 16.9922 32.7637 24.3652 46.2402 24.3652ZM33.1543-68.2617C30.5176-68.2617 29.248-69.6289 29.248-72.2656L29.248-77.6367C29.248-80.2734 30.5176-81.6406 33.1543-81.6406L128.662-81.6406C131.25-81.6406 132.52-80.2734 132.52-77.6367L132.52-72.2656C132.52-69.6289 131.25-68.2617 128.662-68.2617ZM47.5586 10.3027C42.3828 10.3027 39.6484 7.66602 39.6484 2.39258L39.6484-55.1758L122.07-55.1758L122.07 2.39258C122.07 7.66602 119.287 10.3027 114.209 10.3027ZM61.0352-29.1504L100.781-29.1504C104.102-29.1504 106.494-31.5918 106.494-35.0098L106.494-36.9629C106.494-40.3809 104.15-42.7246 100.781-42.7246L61.0352-42.7246C57.666-42.7246 55.3223-40.3809 55.3223-36.9629L55.3223-35.0098C55.3223-31.5918 57.7148-29.1504 61.0352-29.1504Z"/>
  </g>
  <g id="Semibold-L" transform="matrix(1 0 0 1 1963.26 1556)">
   <path d="M45.3125 23.584L114.697 23.584C127.637 23.584 134.766 16.6016 134.766 3.66211L134.766-57.3242C140.625-58.9355 143.945-63.916 143.945-70.8008L143.945-79.8828C143.945-88.3789 138.867-93.9453 130.322-93.9453L29.6875-93.9453C21.4355-93.9453 16.0645-88.3789 16.0645-79.8828L16.0645-70.8008C16.0645-63.916 19.4336-58.9355 25.2441-57.3242L25.2441 3.66211C25.2441 16.6016 32.373 23.584 45.3125 23.584ZM31.7383-68.0176C28.9062-68.0176 27.5879-69.4824 27.5879-72.2656L27.5879-78.3691C27.5879-81.2012 28.9062-82.6172 31.7383-82.6172L128.32-82.6172C131.152-82.6172 132.422-81.2012 132.422-78.3691L132.422-72.2656C132.422-69.4824 131.152-68.0176 128.32-68.0176ZM46.1426 11.6699C40.5273 11.6699 37.5488 8.74023 37.5488 3.125L37.5488-56.7383L122.461-56.7383L122.461 3.125C122.461 8.74023 119.385 11.6699 113.867 11.6699ZM59.7168-31.0547L100.342-31.0547C103.369-31.0547 105.518-33.2031 105.518-36.2793L105.518-38.2812C105.518-41.3574 103.369-43.457 100.342-43.457L59.7168-43.457C56.6895-43.457 54.5898-41.3574 54.5898-38.2812L54.5898-36.2793C54.5898-33.2031 56.6895-31.0547 59.7168-31.0547Z"/>
  </g>
  <g id="Medium-L" transform="matrix(1 0 0 1 1667.21 1556)">
   <path d="M44.5801 22.998L114.111 22.998C126.611 22.998 133.447 16.3086 133.447 3.80859L133.447-58.3008C139.307-59.5703 142.627-64.2578 142.627-70.9473L142.627-80.2734C142.627-88.1836 138.037-93.3105 130.029-93.3105L28.6621-93.3105C20.9473-93.3105 16.0645-88.1836 16.0645-80.2734L16.0645-70.9473C16.0645-64.2578 19.3848-59.5703 25.2441-58.3008L25.2441 3.80859C25.2441 16.3574 32.0801 22.998 44.5801 22.998ZM30.6641-67.8711C27.6855-67.8711 26.3184-69.3359 26.3184-72.3145L26.3184-78.9551C26.3184-81.9336 27.6855-83.3984 30.6641-83.3984L128.027-83.3984C131.055-83.3984 132.373-81.9336 132.373-78.9551L132.373-72.3145C132.373-69.3359 131.055-67.8711 128.027-67.8711ZM45.0195 12.6953C39.1602 12.6953 35.9863 9.57031 35.9863 3.66211L35.9863-57.9102L122.705-57.9102L122.705 3.66211C122.705 9.57031 119.434 12.6953 113.672 12.6953ZM58.7402-32.4219L100-32.4219C102.832-32.4219 104.736-34.4238 104.736-37.3047L104.736-39.209C104.736-42.1387 102.832-44.043 100-44.043L58.7402-44.043C55.9082-44.043 54.0039-42.1387 54.0039-39.209L54.0039-37.3047C54.0039-34.4238 55.957-32.4219 58.7402-32.4219Z"/>
  </g>
  <g id="Regular-L" transform="matrix(1 0 0 1 1371.35 1556)">
   <path d="M43.6523 22.2168L113.281 22.2168C125.293 22.2168 131.738 15.9668 131.738 4.00391L131.738-59.6191C137.646-60.4004 140.918-64.7461 140.918-71.1914L140.918-80.8105C140.918-87.9883 136.914-92.5293 129.688-92.5293L27.2949-92.5293C20.3613-92.5293 16.0645-87.9883 16.0645-80.8105L16.0645-71.1914C16.0645-64.7461 19.3359-60.4004 25.2441-59.6191L25.2441 4.00391C25.2441 16.0156 31.6895 22.2168 43.6523 22.2168ZM29.2969-67.627C26.123-67.627 24.707-69.1406 24.707-72.3633L24.707-79.6875C24.707-82.8613 26.123-84.375 29.2969-84.375L127.734-84.375C130.908-84.375 132.275-82.8613 132.275-79.6875L132.275-72.3633C132.275-69.1406 130.908-67.627 127.734-67.627ZM43.6523 14.0625C37.3047 14.0625 33.8867 10.6445 33.8867 4.3457L33.8867-59.4727L123.047-59.4727L123.047 4.3457C123.047 10.6445 119.531 14.0625 113.33 14.0625ZM57.4219-34.2773L99.5605-34.2773C102.1-34.2773 103.76-35.9863 103.76-38.5742L103.76-40.4785C103.76-43.1152 102.1-44.7266 99.5605-44.7266L57.4219-44.7266C54.9316-44.7266 53.2715-43.1152 53.2715-40.4785L53.2715-38.5742C53.2715-35.9863 54.9316-34.2773 57.4219-34.2773Z"/>
  </g>
  <g id="Light-L" transform="matrix(1 0 0 1 1075.4 1556)">
   <path d="M42.5781 21.4355L112.891 21.4355C124.365 21.4355 130.469 15.332 130.469 3.95508L130.469-60.8398C136.182-61.3281 139.404-65.3809 139.404-71.3867L139.404-81.0547C139.404-87.5 135.693-91.6992 129.199-91.6992L26.2207-91.6992C19.9707-91.6992 16.0645-87.5 16.0645-81.0547L16.0645-71.3867C16.0645-65.3809 19.2871-61.3281 24.9512-60.8398L24.9512 3.95508C24.9512 15.4297 31.1035 21.4355 42.5781 21.4355ZM27.4902-67.0898C24.2676-67.0898 22.7051-68.8477 22.7051-72.1191L22.7051-80.3711C22.7051-83.5938 24.2676-85.4004 27.4902-85.4004L127.979-85.4004C131.201-85.4004 132.764-83.5938 132.764-80.3711L132.764-72.1191C132.764-68.8477 131.201-67.0898 127.979-67.0898ZM42.627 15.0879C35.4004 15.0879 31.5918 11.2793 31.5918 4.10156L31.5918-60.791L123.877-60.791L123.877 4.10156C123.877 11.2793 119.824 15.0879 112.842 15.0879ZM56.2988-35.8398L99.1699-35.8398C101.514-35.8398 102.881-37.3535 102.881-39.7461L102.881-41.5527C102.881-43.9453 101.514-45.4102 99.1699-45.4102L56.2988-45.4102C54.0039-45.4102 52.5879-43.9453 52.5879-41.5527L52.5879-39.7461C52.5879-37.3535 54.0039-35.8398 56.2988-35.8398Z"/>
  </g>
  <g id="Thin-L" transform="matrix(1 0 0 1 779.689 1556)">
   <path d="M41.1133 20.3613L112.305 20.3613C123.096 20.3613 128.857 14.502 128.857 3.85742L128.857-62.5C134.082-62.5 137.402-66.1621 137.402-71.6309L137.402-81.3965C137.402-86.9141 134.082-90.5762 128.564-90.5762L24.8535-90.5762C19.4336-90.5762 16.0645-86.9141 16.0645-81.3965L16.0645-71.6309C16.0645-66.2598 19.2871-62.5977 24.6094-62.5L24.6094 3.85742C24.6094 14.6484 30.3223 20.3613 41.1133 20.3613ZM25.1465-66.3574C21.875-66.3574 19.9707-68.5059 19.9707-71.7773L19.9707-81.25C19.9707-84.5703 21.875-86.7188 25.1465-86.7188L128.32-86.7188C131.592-86.7188 133.447-84.5703 133.447-81.25L133.447-71.7773C133.447-68.5059 131.592-66.3574 128.32-66.3574ZM41.2598 16.5039C32.9102 16.5039 28.5156 12.1094 28.5156 3.75977L28.5156-62.5L124.902-62.5L124.902 3.75977C124.902 12.1094 120.264 16.5039 112.158 16.5039ZM54.834-37.9395L98.6328-37.9395C100.732-37.9395 101.758-39.209 101.758-41.3086L101.758-42.9199C101.758-45.0195 100.732-46.2891 98.6328-46.2891L54.834-46.2891C52.7344-46.2891 51.709-45.0195 51.709-42.9199L51.709-41.3086C51.709-39.209 52.7344-37.9395 54.834-37.9395Z"/>
  </g>
  <g id="Ultralight-L" transform="matrix(1 0 0 1 483.49 1556)">
   <path d="M40.3809 19.7754L112.012 19.7754C122.461 19.7754 128.027 14.0625 128.027 3.80859L128.027-63.3789L128.271-63.3789C133.252-63.3789 136.377-66.748 136.377-71.7773L136.377-81.5918C136.377-86.5723 133.252-89.9902 128.271-89.9902L24.1699-89.9902C19.1406-89.9902 16.0645-86.5723 16.0645-81.5918L16.0645-71.7773C16.0645-66.748 19.1895-63.3789 24.1699-63.3789L24.4141-63.3789L24.4141 3.80859C24.4141 14.2578 29.9316 19.7754 40.3809 19.7754ZM23.9258-65.9668C20.6055-65.9668 18.6035-68.3105 18.6035-71.6309L18.6035-81.7383C18.6035-85.0586 20.6055-87.4023 23.9258-87.4023L128.516-87.4023C131.787-87.4023 133.789-85.0586 133.789-81.7383L133.789-71.6309C133.789-68.3105 131.787-65.9668 128.516-65.9668ZM40.5762 17.1875C31.5918 17.1875 26.9531 12.5488 26.9531 3.56445L26.9531-63.3789L125.439-63.3789L125.439 3.56445C125.439 12.5488 120.459 17.1875 111.865 17.1875ZM54.0527-39.0137L98.3398-39.0137C100.293-39.0137 101.172-40.1367 101.172-42.0898L101.172-43.6523C101.172-45.6055 100.293-46.7285 98.3398-46.7285L54.0527-46.7285C52.0996-46.7285 51.2207-45.6055 51.2207-43.6523L51.2207-42.0898C51.2207-40.1367 52.0996-39.0137 54.0527-39.0137Z"/>
  </g>
  <g id="Black-M" transform="matrix(1 0 0 1 2867.75 1126)">
   <path d="M38.916 13.5742L92.3828 13.5742C104.639 13.5742 111.914 6.25 111.914-6.00586L111.914-47.9492C116.26-50.7812 118.848-55.7129 118.848-61.7676L118.848-67.4805C118.848-77.1973 112.207-83.9355 102.393-83.9355L28.9551-83.9355C19.1895-83.9355 12.4512-77.1973 12.4512-67.4805L12.4512-61.7676C12.4512-55.7617 15.0391-50.8301 19.3359-47.998L19.3359-6.00586C19.3359 6.25 26.6113 13.5742 38.916 13.5742ZM30.127-61.4258C28.9551-61.4258 27.9297-62.4512 27.9297-63.6719L27.9297-65.5762C27.9297-66.7969 28.9551-67.8223 30.127-67.8223L101.123-67.8223C102.344-67.8223 103.369-66.7969 103.369-65.5762L103.369-63.6719C103.369-62.4512 102.344-61.4258 101.123-61.4258ZM41.8457-4.73633C39.0137-4.73633 37.6465-5.85938 37.6465-8.93555L37.6465-45.3125L93.6523-45.3125L93.6523-8.93555C93.6523-5.85938 92.2852-4.73633 89.4531-4.73633ZM51.709-24.1699L79.6387-24.1699C83.2031-24.1699 85.9863-26.9043 85.9863-30.5664L85.9863-32.1777C85.9863-35.8398 83.252-38.5742 79.6387-38.5742L51.709-38.5742C48.0957-38.5742 45.3613-35.8398 45.3613-32.1777L45.3613-30.5664C45.3613-26.9043 48.1445-24.1699 51.709-24.1699Z"/>
  </g>
  <g id="Heavy-M" transform="matrix(1 0 0 1 2572.09 1126)">
   <path d="M37.8418 12.6465L91.3574 12.6465C102.979 12.6465 109.766 5.9082 109.766-5.71289L109.766-49.0723C114.16-51.5137 116.748-56.1523 116.748-62.0605L116.748-68.1641C116.748-77.002 110.938-83.0566 102.051-83.0566L27.2461-83.0566C18.457-83.0566 12.4512-77.002 12.4512-68.1641L12.4512-62.0605C12.4512-56.2012 15.0879-51.5625 19.4336-49.1211L19.4336-5.71289C19.4336 5.9082 26.2207 12.6465 37.8418 12.6465ZM28.6133-61.2793C27.0996-61.2793 26.123-62.2559 26.123-63.7695L26.123-66.4551C26.123-67.9688 27.0996-68.9941 28.6133-68.9941L100.586-68.9941C102.1-68.9941 103.076-67.9688 103.076-66.4551L103.076-63.7695C103.076-62.2559 102.1-61.2793 100.586-61.2793ZM40.0879-3.07617C36.8652-3.07617 35.2539-4.49219 35.2539-7.86133L35.2539-47.2168L93.9453-47.2168L93.9453-7.86133C93.9453-4.49219 92.334-3.07617 89.1113-3.07617ZM50.1953-26.3672L79.1016-26.3672C82.3242-26.3672 84.7656-28.8574 84.7656-32.1289L84.7656-33.7402C84.7656-37.0117 82.373-39.4043 79.1016-39.4043L50.1953-39.4043C46.9238-39.4043 44.4824-37.0117 44.4824-33.7402L44.4824-32.1289C44.4824-28.8574 46.9727-26.3672 50.1953-26.3672Z"/>
  </g>
  <g id="Bold-M" transform="matrix(1 0 0 1 2276.53 1126)">
   <path d="M36.6699 11.6699L90.2344 11.6699C101.172 11.6699 107.373 5.51758 107.373-5.37109L107.373-50.3906C111.816-52.3438 114.453-56.6895 114.453-62.4023L114.453-68.9453C114.453-76.8066 109.521-82.0312 101.611-82.0312L25.3418-82.0312C17.627-82.0312 12.4512-76.8066 12.4512-68.9453L12.4512-62.4023C12.4512-56.6895 15.0879-52.3926 19.5312-50.4395L19.5312-5.37109C19.5312 5.56641 25.7324 11.6699 36.6699 11.6699ZM26.9531-61.0352C25.0977-61.0352 24.1211-62.0605 24.1211-63.916L24.1211-67.4316C24.1211-69.2871 25.0977-70.3125 26.9531-70.3125L100-70.3125C101.807-70.3125 102.783-69.2871 102.783-67.4316L102.783-63.916C102.783-62.0605 101.807-61.0352 100-61.0352ZM38.1348-1.17188C34.5215-1.17188 32.6172-2.92969 32.6172-6.68945L32.6172-49.3164L94.2871-49.3164L94.2871-6.68945C94.2871-2.92969 92.3828-1.17188 88.7695-1.17188ZM48.4375-28.8574L78.5156-28.8574C81.3477-28.8574 83.4473-30.957 83.4473-33.8867L83.4473-35.4492C83.4473-38.3301 81.3477-40.3809 78.5156-40.3809L48.4375-40.3809C45.6055-40.3809 43.5059-38.3301 43.5059-35.4492L43.5059-33.8867C43.5059-30.957 45.6055-28.8574 48.4375-28.8574Z"/>
  </g>
  <g id="Semibold-M" transform="matrix(1 0 0 1 1980.62 1126)">
   <path d="M35.8887 10.9863L89.4531 10.9863C99.8535 10.9863 105.713 5.27344 105.713-5.17578L105.713-51.416C110.254-52.9785 112.842-57.0801 112.842-62.5977L112.842-69.4824C112.842-76.6602 108.496-81.3477 101.318-81.3477L24.0234-81.3477C17.041-81.3477 12.4512-76.6602 12.4512-69.4824L12.4512-62.5977C12.4512-57.0801 15.0879-52.9785 19.6289-51.416L19.6289-5.17578C19.6289 5.27344 25.4395 10.9863 35.8887 10.9863ZM25.7812-60.8887C23.7305-60.8887 22.7539-61.9141 22.7539-63.9648L22.7539-68.1152C22.7539-70.166 23.7305-71.1914 25.7812-71.1914L99.5605-71.1914C101.611-71.1914 102.588-70.166 102.588-68.1152L102.588-63.9648C102.588-61.9141 101.611-60.8887 99.5605-60.8887ZM36.7676 0.0976562C32.8613 0.0976562 30.7617-1.85547 30.7617-5.85938L30.7617-50.7324L94.5312-50.7324L94.5312-5.85938C94.5312-1.85547 92.3828 0.0976562 88.5254 0.0976562ZM47.2656-30.6152L78.125-30.6152C80.6641-30.6152 82.5195-32.4707 82.5195-35.0586L82.5195-36.6211C82.5195-39.2578 80.6641-41.0645 78.125-41.0645L47.2656-41.0645C44.6777-41.0645 42.8711-39.2578 42.8711-36.6211L42.8711-35.0586C42.8711-32.4707 44.7266-30.6152 47.2656-30.6152Z"/>
  </g>
  <g id="Medium-M" transform="matrix(1 0 0 1 1684.52 1126)">
   <path d="M35.2539 10.4492L88.8184 10.4492C98.9258 10.4492 104.443 5.07812 104.443-4.98047L104.443-52.2461C109.033-53.4668 111.621-57.373 111.621-62.793L111.621-69.873C111.621-76.5137 107.764-80.8105 101.074-80.8105L23.0469-80.8105C16.6016-80.8105 12.4512-76.5137 12.4512-69.873L12.4512-62.793C12.4512-57.373 15.0391-53.5156 19.6777-52.2461L19.6777-4.98047C19.6777 5.07812 25.1953 10.4492 35.2539 10.4492ZM24.9023-60.791C22.6562-60.791 21.6797-61.8164 21.6797-64.0625L21.6797-68.6035C21.6797-70.8496 22.6562-71.875 24.9023-71.875L99.2676-71.875C101.465-71.875 102.393-70.8496 102.393-68.6035L102.393-64.0625C102.393-61.8164 101.465-60.791 99.2676-60.791ZM35.7422 1.12305C31.6406 1.12305 29.3945-1.07422 29.3945-5.22461L29.3945-51.8555L94.6777-51.8555L94.6777-5.22461C94.6777-1.07422 92.4316 1.12305 88.3789 1.12305ZM46.3379-31.8848L77.7832-31.8848C80.127-31.8848 81.7871-33.5938 81.7871-35.9863L81.7871-37.5488C81.7871-39.9414 80.127-41.5527 77.7832-41.5527L46.3379-41.5527C43.9941-41.5527 42.334-39.9414 42.334-37.5488L42.334-35.9863C42.334-33.5938 43.9941-31.8848 46.3379-31.8848Z"/>
  </g>
  <g id="Regular-M" transform="matrix(1 0 0 1 1388.59 1126)">
   <path d="M34.4727 9.76562L88.0371 9.76562C97.6562 9.76562 102.783 4.78516 102.783-4.78516L102.783-53.418C107.52-54.1992 110.059-57.7637 110.059-62.9883L110.059-70.4102C110.059-76.3672 106.787-80.127 100.781-80.127L21.7285-80.127C16.0156-80.127 12.4512-76.3672 12.4512-70.4102L12.4512-62.9883C12.4512-57.7637 14.9902-54.1992 19.7266-53.418L19.7266-4.78516C19.7266 4.83398 24.8535 9.76562 34.4727 9.76562ZM23.7305-60.6445C21.2891-60.6445 20.3125-61.6699 20.3125-64.1113L20.3125-69.2871C20.3125-71.7285 21.2891-72.7539 23.7305-72.7539L98.8281-72.7539C101.27-72.7539 102.197-71.7285 102.197-69.2871L102.197-64.1113C102.197-61.6699 101.27-60.6445 98.8281-60.6445ZM34.375 2.39258C29.9805 2.39258 27.5879 0 27.5879-4.39453L27.5879-53.2715L94.9219-53.2715L94.9219-4.39453C94.9219 0 92.4805 2.39258 88.1348 2.39258ZM45.166-33.5938L77.3926-33.5938C79.4434-33.5938 80.9082-35.0098 80.9082-37.1582L80.9082-38.7207C80.9082-40.8691 79.4434-42.2363 77.3926-42.2363L45.166-42.2363C43.1152-42.2363 41.6992-40.8691 41.6992-38.7207L41.6992-37.1582C41.6992-35.0098 43.1152-33.5938 45.166-33.5938Z"/>
  </g>
  <g id="Light-M" transform="matrix(1 0 0 1 1092.56 1126)">
   <path d="M33.4961 9.0332L87.6465 9.0332C96.7773 9.0332 101.66 4.24805 101.66-4.83398L101.66-54.541C106.201-55.0293 108.691-58.3008 108.691-63.1836L108.691-70.6543C108.691-75.9766 105.713-79.3945 100.342-79.3945L20.8008-79.3945C15.6738-79.3945 12.4512-75.9766 12.4512-70.6543L12.4512-63.1836C12.4512-58.3008 14.9902-55.0293 19.4824-54.541L19.4824-4.83398C19.4824 4.29688 24.3652 9.0332 33.4961 9.0332ZM22.1191-60.1562C19.6289-60.1562 18.5059-61.4258 18.5059-63.916L18.5059-69.9219C18.5059-72.4121 19.6289-73.6328 22.1191-73.6328L99.0723-73.6328C101.562-73.6328 102.686-72.4121 102.686-69.9219L102.686-63.916C102.686-61.4258 101.562-60.1562 99.0723-60.1562ZM33.4961 3.32031C28.3203 3.32031 25.5371 0.537109 25.5371-4.63867L25.5371-54.4434L95.6543-54.4434L95.6543-4.63867C95.6543 0.537109 92.7246 3.32031 87.6953 3.32031ZM44.1406-35.0098L77.0508-35.0098C78.9062-35.0098 80.127-36.2793 80.127-38.2324L80.127-39.6484C80.127-41.6016 78.9062-42.8223 77.0508-42.8223L44.1406-42.8223C42.2852-42.8223 41.0645-41.6016 41.0645-39.6484L41.0645-38.2324C41.0645-36.2793 42.2852-35.0098 44.1406-35.0098Z"/>
  </g>
  <g id="Thin-M" transform="matrix(1 0 0 1 796.754 1126)">
   <path d="M32.1777 8.05664L87.1582 8.05664C95.7031 8.05664 100.195 3.4668 100.195-4.93164L100.195-56.0059C104.395-56.1523 106.885-59.082 106.885-63.3789L106.885-70.9473C106.885-75.3906 104.248-78.3691 99.8047-78.3691L19.5801-78.3691C15.1855-78.3691 12.4512-75.3906 12.4512-70.9473L12.4512-63.3789C12.4512-59.082 14.9414-56.1523 19.1406-56.0059L19.1406-4.93164C19.1406 3.56445 23.6816 8.05664 32.1777 8.05664ZM20.0195-59.5215C17.4805-59.5215 16.0645-61.084 16.0645-63.623L16.0645-70.7031C16.0645-73.2422 17.4805-74.8535 20.0195-74.8535L99.3652-74.8535C101.904-74.8535 103.271-73.2422 103.271-70.7031L103.271-63.623C103.271-61.084 101.904-59.5215 99.3652-59.5215ZM32.2754 4.54102C26.0254 4.54102 22.7539 1.26953 22.7539-4.93164L22.7539-55.957L96.582-55.957L96.582-4.93164C96.582 1.26953 93.1152 4.54102 87.0605 4.54102ZM42.8223-36.8652L76.5625-36.8652C78.2227-36.8652 79.1016-37.9395 79.1016-39.5996L79.1016-40.918C79.1016-42.5781 78.2227-43.6035 76.5625-43.6035L42.8223-43.6035C41.1621-43.6035 40.2344-42.5781 40.2344-40.918L40.2344-39.5996C40.2344-37.9395 41.1621-36.8652 42.8223-36.8652Z"/>
  </g>
  <g id="Ultralight-M" transform="matrix(1 0 0 1 500.483 1126)">
   <path d="M31.543 7.56836L86.9141 7.56836C95.1172 7.56836 99.4629 3.07617 99.4629-4.98047L99.4629-56.7871L99.5117-56.7871C103.516-56.7871 106.006-59.4727 106.006-63.5254L106.006-71.0938C106.006-75.1465 103.516-77.832 99.5117-77.832L18.9453-77.832C14.9414-77.832 12.4512-75.1465 12.4512-71.0938L12.4512-63.5254C12.4512-59.4727 14.9414-56.7871 18.9453-56.7871L18.9941-56.7871L18.9941-4.98047C18.9941 3.22266 23.3398 7.56836 31.543 7.56836ZM18.8965-59.1797C16.3574-59.1797 14.8438-60.9375 14.8438-63.4766L14.8438-71.1426C14.8438-73.6816 16.3574-75.4395 18.8965-75.4395L99.5117-75.4395C102.1-75.4395 103.613-73.6816 103.613-71.1426L103.613-63.4766C103.613-60.9375 102.1-59.1797 99.5117-59.1797ZM31.6406 5.17578C24.9023 5.17578 21.3867 1.66016 21.3867-5.12695L21.3867-56.7871L97.0703-56.7871L97.0703-5.12695C97.0703 1.66016 93.3105 5.17578 86.7676 5.17578ZM42.1387-37.8418L76.3184-37.8418C77.8809-37.8418 78.6133-38.7695 78.6133-40.2832L78.6133-41.5527C78.6133-43.1152 77.8809-44.043 76.3184-44.043L42.1387-44.043C40.5762-44.043 39.8438-43.1152 39.8438-41.5527L39.8438-40.2832C39.8438-38.7695 40.5762-37.8418 42.1387-37.8418Z"/>
  </g>
  <g id="Black-S" transform="matrix(1 0 0 1 2882.03 696)">
   <path d="M30.4199 2.92969L72.3145 2.92969C81.8848 2.92969 87.5488-2.73438 87.5488-12.3047L87.5488-45.2637C90.9668-47.4609 92.9688-51.3184 92.9688-56.0547L92.9688-60.5469C92.9688-68.1152 87.8418-73.3398 80.2246-73.3398L22.5586-73.3398C14.9902-73.3398 9.76562-68.1152 9.76562-60.5469L9.76562-56.0547C9.76562-51.3184 11.8164-47.5098 15.1855-45.3125L15.1855-12.3047C15.1855-2.73438 20.8496 2.92969 30.4199 2.92969ZM23.5352-55.7617C22.5586-55.7617 21.7773-56.543 21.7773-57.5195L21.7773-59.082C21.7773-60.0586 22.5586-60.8398 23.5352-60.8398L79.1992-60.8398C80.1758-60.8398 80.957-60.0586 80.957-59.082L80.957-57.5195C80.957-56.543 80.1758-55.7617 79.1992-55.7617ZM32.666-11.2305C30.4199-11.2305 29.3457-12.1094 29.3457-14.5508L29.3457-43.2617L73.3887-43.2617L73.3887-14.5508C73.3887-12.1094 72.3145-11.2305 70.0684-11.2305ZM40.4297-26.709L62.3535-26.709C65.1367-26.709 67.2852-28.8574 67.2852-31.6895L67.2852-32.959C67.2852-35.791 65.1855-37.8906 62.3535-37.8906L40.4297-37.8906C37.5977-37.8906 35.498-35.791 35.498-32.959L35.498-31.6895C35.498-28.8574 37.6465-26.709 40.4297-26.709Z"/>
  </g>
  <g id="Heavy-S" transform="matrix(1 0 0 1 2586.03 696)">
   <path d="M29.7363 2.34375L71.582 2.34375C80.7129 2.34375 86.0352-2.92969 86.0352-12.0605L86.0352-45.9961C89.502-47.9004 91.5527-51.6113 91.5527-56.25L91.5527-61.0352C91.5527-68.0176 86.9629-72.7539 79.9805-72.7539L21.3379-72.7539C14.4531-72.7539 9.76562-68.0176 9.76562-61.0352L9.76562-56.25C9.76562-51.6113 11.8164-47.9492 15.2832-46.0449L15.2832-12.0605C15.2832-2.92969 20.6055 2.34375 29.7363 2.34375ZM22.5586-55.6641C21.3379-55.6641 20.6055-56.4453 20.6055-57.6172L20.6055-59.668C20.6055-60.8887 21.3379-61.6211 22.5586-61.6211L78.7598-61.6211C79.9316-61.6211 80.7129-60.8887 80.7129-59.668L80.7129-57.6172C80.7129-56.4453 79.9316-55.6641 78.7598-55.6641ZM31.4453-10.0586C29.0039-10.0586 27.7832-11.1328 27.7832-13.7207L27.7832-44.5801L73.5352-44.5801L73.5352-13.7207C73.5352-11.1328 72.3145-10.0586 69.873-10.0586ZM39.3555-28.2715L62.0117-28.2715C64.502-28.2715 66.4551-30.1758 66.4551-32.7637L66.4551-34.0332C66.4551-36.6211 64.5508-38.4766 62.0117-38.4766L39.3555-38.4766C36.8164-38.4766 34.9121-36.6211 34.9121-34.0332L34.9121-32.7637C34.9121-30.1758 36.8164-28.2715 39.3555-28.2715Z"/>
  </g>
  <g id="Bold-S" transform="matrix(1 0 0 1 2290.12 696)">
   <path d="M28.9551 1.66016L70.752 1.66016C79.3945 1.66016 84.3262-3.17383 84.3262-11.8164L84.3262-46.9238C87.8906-48.4863 89.9414-51.9043 89.9414-56.4941L89.9414-61.6211C89.9414-67.8711 86.0352-72.0703 79.6875-72.0703L20.0195-72.0703C13.8672-72.0703 9.76562-67.8711 9.76562-61.6211L9.76562-56.4941C9.76562-51.9531 11.8652-48.4863 15.3809-46.9238L15.3809-11.8164C15.3809-3.17383 20.3125 1.66016 28.9551 1.66016ZM21.4355-55.5664C20.0195-55.5664 19.2871-56.2988 19.2871-57.7637L19.2871-60.3516C19.2871-61.8164 20.0195-62.5 21.4355-62.5L78.2715-62.5C79.6875-62.5 80.4199-61.8164 80.4199-60.3516L80.4199-57.7637C80.4199-56.2988 79.6875-55.5664 78.2715-55.5664ZM30.0293-8.74023C27.3926-8.74023 25.9766-10.0098 25.9766-12.7441L25.9766-46.0449L73.7305-46.0449L73.7305-12.7441C73.7305-10.0098 72.3145-8.74023 69.6777-8.74023ZM38.1348-29.9805L61.5723-29.9805C63.8184-29.9805 65.5273-31.6406 65.5273-33.9844L65.5273-35.2539C65.5273-37.5488 63.8672-39.1602 61.5723-39.1602L38.1348-39.1602C35.8887-39.1602 34.2285-37.5488 34.2285-35.2539L34.2285-33.9844C34.2285-31.6406 35.9375-29.9805 38.1348-29.9805Z"/>
  </g>
  <g id="Semibold-S" transform="matrix(1 0 0 1 1993.97 696)">
   <path d="M28.418 1.17188L70.166 1.17188C78.5156 1.17188 83.1543-3.32031 83.1543-11.6699L83.1543-47.6074C86.7676-48.877 88.8184-52.1484 88.8184-56.6406L88.8184-62.0117C88.8184-67.8223 85.3516-71.582 79.4922-71.582L19.0918-71.582C13.4766-71.582 9.76562-67.8223 9.76562-62.0117L9.76562-56.6406C9.76562-52.1484 11.8164-48.877 15.4785-47.6074L15.4785-11.6699C15.4785-3.32031 20.1172 1.17188 28.418 1.17188ZM20.7031-55.5176C19.0918-55.5176 18.4082-56.2012 18.4082-57.8125L18.4082-60.791C18.4082-62.4023 19.0918-63.1348 20.7031-63.1348L77.9297-63.1348C79.541-63.1348 80.2246-62.4023 80.2246-60.791L80.2246-57.8125C80.2246-56.2012 79.541-55.5176 77.9297-55.5176ZM29.0527-7.8125C26.2695-7.8125 24.7559-9.22852 24.7559-12.1094L24.7559-47.0703L73.8281-47.0703L73.8281-12.1094C73.8281-9.22852 72.3145-7.8125 69.5312-7.8125ZM37.3047-31.2012L61.3281-31.2012C63.3301-31.2012 64.8926-32.666 64.8926-34.8145L64.8926-36.0352C64.8926-38.1836 63.3789-39.5996 61.3281-39.5996L37.3047-39.5996C35.2539-39.5996 33.7891-38.1836 33.7891-36.0352L33.7891-34.8145C33.7891-32.666 35.3027-31.2012 37.3047-31.2012Z"/>
  </g>
  <g id="Medium-S" transform="matrix(1 0 0 1 1697.68 696)">
   <path d="M28.0273 0.830078L69.7266 0.830078C77.832 0.830078 82.2266-3.4668 82.2266-11.5234L82.2266-48.1934C85.9375-49.2188 87.9883-52.3438 87.9883-56.7383L87.9883-62.3047C87.9883-67.7246 84.8633-71.2402 79.3457-71.2402L18.4082-71.2402C13.1348-71.2402 9.76562-67.7246 9.76562-62.3047L9.76562-56.7383C9.76562-52.3438 11.8164-49.2188 15.5273-48.1934L15.5273-11.5234C15.5273-3.4668 19.9219 0.830078 28.0273 0.830078ZM20.1172-55.4688C18.4082-55.4688 17.7246-56.1523 17.7246-57.9102L17.7246-61.1816C17.7246-62.8906 18.4082-63.5742 20.1172-63.5742L77.6855-63.5742C79.3945-63.5742 80.0781-62.8906 80.0781-61.1816L80.0781-57.9102C80.0781-56.1523 79.3945-55.4688 77.6855-55.4688ZM28.3691-7.12891C25.4395-7.12891 23.8281-8.69141 23.8281-11.6211L23.8281-47.8027L73.9258-47.8027L73.9258-11.6211C73.9258-8.69141 72.3145-7.12891 69.4336-7.12891ZM36.7188-32.0801L61.084-32.0801C62.9883-32.0801 64.4043-33.4473 64.4043-35.4492L64.4043-36.6699C64.4043-38.6719 62.9883-39.9902 61.084-39.9902L36.7188-39.9902C34.8145-39.9902 33.3984-38.6719 33.3984-36.6699L33.3984-35.4492C33.3984-33.4473 34.8145-32.0801 36.7188-32.0801Z"/>
  </g>
  <g id="Regular-S" transform="matrix(1 0 0 1 1401.5 696)">
   <path d="M27.4902 0.390625L69.1895 0.390625C76.9043 0.390625 81.0547-3.61328 81.0547-11.3281L81.0547-48.9746C84.8633-49.707 86.9141-52.5879 86.9141-56.9336L86.9141-62.6953C86.9141-67.6758 84.2285-70.8008 79.1992-70.8008L17.4805-70.8008C12.7441-70.8008 9.76562-67.6758 9.76562-62.6953L9.76562-56.9336C9.76562-52.5879 11.7676-49.707 15.5762-48.9746L15.5762-11.3281C15.5762-3.61328 19.7266 0.390625 27.4902 0.390625ZM19.3848-55.3711C17.4805-55.3711 16.7969-56.0547 16.7969-57.959L16.7969-61.6211C16.7969-63.5254 17.4805-64.209 19.3848-64.209L77.3438-64.209C79.248-64.209 79.834-63.5254 79.834-61.6211L79.834-57.959C79.834-56.0547 79.248-55.3711 77.3438-55.3711ZM27.3926-6.20117C24.3652-6.20117 22.6074-7.91016 22.6074-10.9863L22.6074-48.8281L74.0234-48.8281L74.0234-10.9863C74.0234-7.91016 72.3145-6.20117 69.2871-6.20117ZM35.8887-33.252L60.8398-33.252C62.5-33.252 63.7695-34.4727 63.7695-36.2305L63.7695-37.5C63.7695-39.2578 62.5-40.4297 60.8398-40.4297L35.8887-40.4297C34.1797-40.4297 32.959-39.2578 32.959-37.5L32.959-36.2305C32.959-34.4727 34.1797-33.252 35.8887-33.252Z"/>
  </g>
  <g id="Light-S" transform="matrix(1 0 0 1 1105.4 696)">
   <path d="M26.6113-0.292969L68.8477-0.292969C76.1719-0.292969 80.0781-4.10156 80.0781-11.377L80.0781-49.9023C83.6914-50.4395 85.6934-53.0762 85.6934-57.0801L85.6934-62.8906C85.6934-67.2852 83.252-70.1172 78.8086-70.1172L16.6504-70.1172C12.4023-70.1172 9.76562-67.2852 9.76562-62.8906L9.76562-57.0801C9.76562-53.0762 11.7676-50.4395 15.3809-49.9023L15.3809-11.377C15.3809-4.05273 19.2871-0.292969 26.6113-0.292969ZM17.9688-54.9316C16.0156-54.9316 15.1855-55.8594 15.1855-57.7637L15.1855-62.1582C15.1855-64.1113 16.0156-64.9902 17.9688-64.9902L77.5391-64.9902C79.4922-64.9902 80.2734-64.1113 80.2734-62.1582L80.2734-57.7637C80.2734-55.8594 79.4922-54.9316 77.5391-54.9316ZM26.6113-5.37109C22.8516-5.37109 20.8008-7.42188 20.8008-11.1816L20.8008-49.8535L74.6582-49.8535L74.6582-11.1816C74.6582-7.42188 72.5586-5.37109 68.8477-5.37109ZM34.9609-34.5215L60.498-34.5215C62.0605-34.5215 63.0859-35.5469 63.0859-37.1582L63.0859-38.3301C63.0859-39.9414 62.0605-40.9668 60.498-40.9668L34.9609-40.9668C33.4473-40.9668 32.4219-39.9414 32.4219-38.3301L32.4219-37.1582C32.4219-35.5469 33.4473-34.5215 34.9609-34.5215Z"/>
  </g>
  <g id="Thin-S" transform="matrix(1 0 0 1 809.474 696)">
   <path d="M25.4883-1.12305L68.4082-1.12305C75.1953-1.12305 78.8086-4.73633 78.8086-11.4746L78.8086-51.2207C82.1777-51.416 84.1309-53.7598 84.1309-57.2266L84.1309-63.1348C84.1309-66.7969 81.9824-69.2383 78.3203-69.2383L15.5762-69.2383C12.0117-69.2383 9.76562-66.7969 9.76562-63.1348L9.76562-57.2266C9.76562-53.7598 11.7188-51.416 15.0879-51.2207L15.0879-11.4746C15.0879-4.6875 18.7012-1.12305 25.4883-1.12305ZM16.0645-54.3945C14.1113-54.3945 13.0859-55.5664 13.0859-57.5195L13.0859-62.8906C13.0859-64.8438 14.1113-66.0156 16.0645-66.0156L77.7832-66.0156C79.7852-66.0156 80.8105-64.8438 80.8105-62.8906L80.8105-57.5195C80.8105-55.5664 79.7852-54.3945 77.7832-54.3945ZM25.5371-4.29688C20.8496-4.29688 18.3594-6.78711 18.3594-11.4258L18.3594-51.1719L75.4883-51.1719L75.4883-11.4258C75.4883-6.78711 72.9004-4.29688 68.3594-4.29688ZM33.7891-36.1816L60.1074-36.1816C61.4258-36.1816 62.207-37.0117 62.207-38.3789L62.207-39.4531C62.207-40.8203 61.4258-41.6504 60.1074-41.6504L33.7891-41.6504C32.4707-41.6504 31.6895-40.8203 31.6895-39.4531L31.6895-38.3789C31.6895-37.0117 32.4707-36.1816 33.7891-36.1816Z"/>
  </g>
  <g id="Ultralight-S" transform="matrix(1 0 0 1 513.178 696)">
   <path d="M24.9023-1.5625L68.1641-1.5625C74.6582-1.5625 78.125-5.07812 78.125-11.5234L78.125-51.9043C81.2988-51.9043 83.3008-54.1016 83.3008-57.373L83.3008-63.2812C83.3008-66.5527 81.2988-68.75 78.0273-68.75L15.0391-68.75C11.7676-68.75 9.76562-66.5527 9.76562-63.2812L9.76562-57.373C9.76562-54.1016 11.7188-51.9531 14.9414-51.9043L14.9414-11.5234C14.9414-5.0293 18.3594-1.5625 24.9023-1.5625ZM15.1367-54.0527C13.1348-54.0527 11.9629-55.4199 11.9629-57.4219L11.9629-63.2324C11.9629-65.2344 13.1348-66.5527 15.1367-66.5527L77.9297-66.5527C79.9316-66.5527 81.1035-65.2344 81.1035-63.2324L81.1035-57.4219C81.1035-55.4199 79.9316-54.0527 77.9297-54.0527ZM25-3.75977C19.8242-3.75977 17.1387-6.44531 17.1387-11.5723L17.1387-51.9043L75.9277-51.9043L75.9277-11.5723C75.9277-6.44531 73.0469-3.75977 68.0664-3.75977ZM33.2031-37.0117L59.8633-37.0117C61.084-37.0117 61.7188-37.7441 61.7188-39.0137L61.7188-39.9902C61.7188-41.2598 61.084-41.9922 59.8633-41.9922L33.2031-41.9922C31.9336-41.9922 31.3477-41.2598 31.3477-39.9902L31.3477-39.0137C31.3477-37.7441 31.9336-37.0117 33.2031-37.0117Z"/>
  </g>
 </g>
</svg>
