<?xml version="1.0" encoding="UTF-8"?>
<!--Generator: Apple Native CoreSVG 149-->
<!DOCTYPE svg
PUBLIC "-//W3C//DTD SVG 1.1//EN"
       "http://www.w3.org/Graphics/SVG/1.1/DTD/svg11.dtd">
<svg version="1.1" xmlns="http://www.w3.org/2000/svg" xmlns:xlink="http://www.w3.org/1999/xlink" width="3300" height="2200">
 <!--glyph: "uni100262.medium", point size: 100.000000, font version: "Version 16.0d18e1", template writer version: "8"-->
 <g id="Notes">
  <rect height="2200" id="artboard" style="fill:white;opacity:1" width="3300" x="0" y="0"/>
  <line id="" style="fill:none;stroke:black;opacity:1;stroke-width:0.5;" x1="263" x2="3036" y1="292" y2="292"/>
  <text style="stroke:none;fill:black;font-family:-apple-system,&quot;SF Pro Display&quot;,&quot;SF Pro Text&quot;,Helvetica,sans-serif;font-weight:bold;" transform="matrix(1 0 0 1 263 322)">Weight/Scale Variations</text>
  <text style="stroke:none;fill:black;font-family:-apple-system,&quot;SF Pro Display&quot;,&quot;SF Pro Text&quot;,Helvetica,sans-serif;text-anchor:middle;" transform="matrix(1 0 0 1 559.711 322)">Ultralight</text>
  <text style="stroke:none;fill:black;font-family:-apple-system,&quot;SF Pro Display&quot;,&quot;SF Pro Text&quot;,Helvetica,sans-serif;text-anchor:middle;" transform="matrix(1 0 0 1 856.422 322)">Thin</text>
  <text style="stroke:none;fill:black;font-family:-apple-system,&quot;SF Pro Display&quot;,&quot;SF Pro Text&quot;,Helvetica,sans-serif;text-anchor:middle;" transform="matrix(1 0 0 1 1153.13 322)">Light</text>
  <text style="stroke:none;fill:black;font-family:-apple-system,&quot;SF Pro Display&quot;,&quot;SF Pro Text&quot;,Helvetica,sans-serif;text-anchor:middle;" transform="matrix(1 0 0 1 1449.84 322)">Regular</text>
  <text style="stroke:none;fill:black;font-family:-apple-system,&quot;SF Pro Display&quot;,&quot;SF Pro Text&quot;,Helvetica,sans-serif;text-anchor:middle;" transform="matrix(1 0 0 1 1746.56 322)">Medium</text>
  <text style="stroke:none;fill:black;font-family:-apple-system,&quot;SF Pro Display&quot;,&quot;SF Pro Text&quot;,Helvetica,sans-serif;text-anchor:middle;" transform="matrix(1 0 0 1 2043.27 322)">Semibold</text>
  <text style="stroke:none;fill:black;font-family:-apple-system,&quot;SF Pro Display&quot;,&quot;SF Pro Text&quot;,Helvetica,sans-serif;text-anchor:middle;" transform="matrix(1 0 0 1 2339.98 322)">Bold</text>
  <text style="stroke:none;fill:black;font-family:-apple-system,&quot;SF Pro Display&quot;,&quot;SF Pro Text&quot;,Helvetica,sans-serif;text-anchor:middle;" transform="matrix(1 0 0 1 2636.69 322)">Heavy</text>
  <text style="stroke:none;fill:black;font-family:-apple-system,&quot;SF Pro Display&quot;,&quot;SF Pro Text&quot;,Helvetica,sans-serif;text-anchor:middle;" transform="matrix(1 0 0 1 2933.4 322)">Black</text>
  <line id="" style="fill:none;stroke:black;opacity:1;stroke-width:0.5;" x1="263" x2="3036" y1="1903" y2="1903"/>
  <g id="" transform="matrix(1 0 0 1 263 1933)">
   <path d="M9.24805 0.830078C13.5547 0.830078 17.1387-2.74414 17.1387-7.05078C17.1387-11.3574 13.5449-14.9316 9.23828-14.9316C4.94141-14.9316 1.36719-11.3574 1.36719-7.05078C1.36719-2.74414 4.95117 0.830078 9.24805 0.830078ZM9.24805-0.654297C5.70312-0.654297 2.87109-3.49609 2.87109-7.05078C2.87109-10.6055 5.69336-13.4473 9.23828-13.4473C12.793-13.4473 15.6348-10.6055 15.6445-7.05078C15.6543-3.49609 12.8027-0.654297 9.24805-0.654297ZM6.39648-6.31836L8.50586-6.31836L8.50586-4.19922C8.50586-3.75977 8.79883-3.45703 9.22852-3.45703C9.67773-3.45703 9.9707-3.75977 9.9707-4.19922L9.9707-6.31836L12.0996-6.31836C12.5391-6.31836 12.8418-6.61133 12.8418-7.04102C12.8418-7.48047 12.5391-7.7832 12.0996-7.7832L9.9707-7.7832L9.9707-9.89258C9.9707-10.3418 9.67773-10.6445 9.22852-10.6445C8.79883-10.6445 8.50586-10.3418 8.50586-9.89258L8.50586-7.7832L6.39648-7.7832C5.94727-7.7832 5.64453-7.48047 5.64453-7.04102C5.64453-6.61133 5.94727-6.31836 6.39648-6.31836Z"/>
  </g>
  <g id="" transform="matrix(1 0 0 1 281.506 1933)">
   <path d="M11.709 2.91016C17.1582 2.91016 21.6699-1.61133 21.6699-7.05078C21.6699-12.5 17.1484-17.0117 11.6992-17.0117C6.25977-17.0117 1.74805-12.5 1.74805-7.05078C1.74805-1.61133 6.26953 2.91016 11.709 2.91016ZM11.709 1.25C7.09961 1.25 3.41797-2.44141 3.41797-7.05078C3.41797-11.6602 7.08984-15.3516 11.6992-15.3516C16.3086-15.3516 20-11.6602 20.0098-7.05078C20.0195-2.44141 16.3184 1.25 11.709 1.25ZM7.98828-6.23047L10.8789-6.23047L10.8789-3.32031C10.8789-2.83203 11.2109-2.5 11.6895-2.5C12.1777-2.5 12.5195-2.83203 12.5195-3.32031L12.5195-6.23047L15.4297-6.23047C15.918-6.23047 16.25-6.5625 16.25-7.04102C16.25-7.5293 15.918-7.87109 15.4297-7.87109L12.5195-7.87109L12.5195-10.7617C12.5195-11.2695 12.1777-11.6016 11.6895-11.6016C11.2109-11.6016 10.8789-11.2598 10.8789-10.7617L10.8789-7.87109L7.98828-7.87109C7.48047-7.87109 7.14844-7.5293 7.14844-7.04102C7.14844-6.5625 7.49023-6.23047 7.98828-6.23047Z"/>
  </g>
  <g id="" transform="matrix(1 0 0 1 304.924 1933)">
   <path d="M14.9707 5.66406C21.9336 5.66406 27.6953-0.0976562 27.6953-7.05078C27.6953-14.0137 21.9238-19.7754 14.9609-19.7754C8.00781-19.7754 2.25586-14.0137 2.25586-7.05078C2.25586-0.0976562 8.01758 5.66406 14.9707 5.66406ZM14.9707 3.84766C8.93555 3.84766 4.08203-1.01562 4.08203-7.05078C4.08203-13.0957 8.92578-17.9492 14.9609-17.9492C21.0059-17.9492 25.8594-13.0957 25.8691-7.05078C25.8789-1.01562 21.0156 3.84766 14.9707 3.84766ZM10.0586-6.14258L14.0625-6.14258L14.0625-2.12891C14.0625-1.5918 14.4336-1.2207 14.9512-1.2207C15.4883-1.2207 15.8594-1.5918 15.8594-2.12891L15.8594-6.14258L19.8828-6.14258C20.4102-6.14258 20.791-6.51367 20.791-7.03125C20.791-7.56836 20.4199-7.94922 19.8828-7.94922L15.8594-7.94922L15.8594-11.9531C15.8594-12.5098 15.4883-12.8809 14.9512-12.8809C14.4336-12.8809 14.0625-12.5 14.0625-11.9531L14.0625-7.94922L10.0586-7.94922C9.50195-7.94922 9.13086-7.56836 9.13086-7.03125C9.13086-6.51367 9.51172-6.14258 10.0586-6.14258Z"/>
  </g>
  <text style="stroke:none;fill:black;font-family:-apple-system,&quot;SF Pro Display&quot;,&quot;SF Pro Text&quot;,Helvetica,sans-serif;font-weight:bold;" transform="matrix(1 0 0 1 263 1953)">Design Variations</text>
  <text style="stroke:none;fill:black;font-family:-apple-system,&quot;SF Pro Display&quot;,&quot;SF Pro Text&quot;,Helvetica,sans-serif;" transform="matrix(1 0 0 1 263 1971)">Symbols are supported in up to nine weights and three scales.</text>
  <text style="stroke:none;fill:black;font-family:-apple-system,&quot;SF Pro Display&quot;,&quot;SF Pro Text&quot;,Helvetica,sans-serif;" transform="matrix(1 0 0 1 263 1989)">For optimal layout with text and other symbols, vertically align</text>
  <text style="stroke:none;fill:black;font-family:-apple-system,&quot;SF Pro Display&quot;,&quot;SF Pro Text&quot;,Helvetica,sans-serif;" transform="matrix(1 0 0 1 263 2007)">symbols with the adjacent text.</text>
  <line id="" style="fill:none;stroke:#00AEEF;stroke-width:0.5;opacity:1.0;" x1="776" x2="776" y1="1919" y2="1933"/>
  <g id="" transform="matrix(1 0 0 1 776 1933)">
   <path d="M3.31055 0.126953C3.82812 0.126953 4.08203-0.0683594 4.26758-0.605469L5.52734-4.0625L11.2891-4.0625L12.5488-0.605469C12.7344-0.0683594 12.9883 0.126953 13.4961 0.126953C14.0137 0.126953 14.3457-0.185547 14.3457-0.673828C14.3457-0.839844 14.3164-0.986328 14.2383-1.20117L9.6582-13.3887C9.43359-13.9941 9.0332-14.2871 8.4082-14.2871C7.80273-14.2871 7.39258-13.9941 7.17773-13.3984L2.59766-1.19141C2.51953-0.976562 2.49023-0.830078 2.49023-0.664062C2.49023-0.175781 2.80273 0.126953 3.31055 0.126953ZM6.00586-5.53711L8.37891-12.1094L8.42773-12.1094L10.8008-5.53711Z"/>
  </g>
  <line id="" style="fill:none;stroke:#00AEEF;stroke-width:0.5;opacity:1.0;" x1="792.836" x2="792.836" y1="1919" y2="1933"/>
  <text style="stroke:none;fill:black;font-family:-apple-system,&quot;SF Pro Display&quot;,&quot;SF Pro Text&quot;,Helvetica,sans-serif;font-weight:bold;" transform="matrix(1 0 0 1 776 1953)">Margins</text>
  <text style="stroke:none;fill:black;font-family:-apple-system,&quot;SF Pro Display&quot;,&quot;SF Pro Text&quot;,Helvetica,sans-serif;" transform="matrix(1 0 0 1 776 1971)">Leading and trailing margins on the left and right side of each symbol</text>
  <text style="stroke:none;fill:black;font-family:-apple-system,&quot;SF Pro Display&quot;,&quot;SF Pro Text&quot;,Helvetica,sans-serif;" transform="matrix(1 0 0 1 776 1989)">can be adjusted by modifying the x-location of the margin guidelines.</text>
  <text style="stroke:none;fill:black;font-family:-apple-system,&quot;SF Pro Display&quot;,&quot;SF Pro Text&quot;,Helvetica,sans-serif;" transform="matrix(1 0 0 1 776 2007)">Modifications are automatically applied proportionally to all</text>
  <text style="stroke:none;fill:black;font-family:-apple-system,&quot;SF Pro Display&quot;,&quot;SF Pro Text&quot;,Helvetica,sans-serif;" transform="matrix(1 0 0 1 776 2025)">scales and weights.</text>
  <g id="" transform="matrix(1 0 0 1 1289 1933)">
   <path d="M2.8418 1.86523L4.54102 3.57422C5.40039 4.44336 6.38672 4.38477 7.31445 3.35938L17.4902-7.85156C17.7539-7.76367 18.0273-7.7832 18.3398-7.8418L19.4043-8.03711L20.0684-7.36328L20.0293-6.80664C19.9902-6.30859 20.1172-5.92773 20.6055-5.44922L21.3672-4.70703C21.8457-4.22852 22.4609-4.19922 22.9297-4.66797L25.8398-7.58789C26.3086-8.05664 26.2891-8.65234 25.8105-9.13086L25.0391-9.89258C24.5605-10.3711 24.1895-10.5273 23.7109-10.4883L23.1348-10.4395L22.4902-11.0742L22.7344-12.1973C22.8613-12.7637 22.7051-13.2031 22.1191-13.7891L19.9219-15.9766C16.582-19.2969 12.1484-19.2188 9.25781-16.3281C8.83789-15.918 8.80859-15.3418 9.04297-14.9512C9.27734-14.5898 9.73633-14.3555 10.3809-14.5215C11.8457-14.8633 13.3691-14.9219 14.7949-13.9844L14.209-12.5293C14.0137-12.0508 13.9844-11.6504 14.1113-11.2891L3.04688-0.898438C2.06055 0.0195312 1.98242 0.996094 2.8418 1.86523ZM10.752-15.957C13.1836-17.7344 16.4746-17.4316 18.7012-15.2051L21.1328-12.793C21.3672-12.5586 21.4062-12.373 21.3379-12.0312L21.0156-10.5469L22.5195-9.0625L23.5059-9.12109C23.7598-9.13086 23.8379-9.11133 24.0332-8.91602L24.6094-8.33984L22.168-5.89844L21.5918-6.47461C21.3965-6.66992 21.3672-6.74805 21.377-7.01172L21.4453-7.98828L19.9512-9.47266L18.4277-9.21875C18.1055-9.15039 17.959-9.17969 17.7148-9.41406L15.7129-11.416C15.459-11.6504 15.4297-11.8164 15.5859-12.1875L16.4648-14.2773C14.9023-15.7324 12.8711-16.3574 10.8398-15.7617C10.6836-15.7227 10.625-15.8496 10.752-15.957ZM5.27344 2.30469L4.10156 1.14258C3.63281 0.683594 3.74023 0.341797 4.14062-0.0195312L14.9512-10.1953L16.416-8.71094L6.42578 2.27539C6.07422 2.67578 5.74219 2.77344 5.27344 2.30469Z"/>
  </g>
  <text style="stroke:none;fill:black;font-family:-apple-system,&quot;SF Pro Display&quot;,&quot;SF Pro Text&quot;,Helvetica,sans-serif;font-weight:bold;" transform="matrix(1 0 0 1 1289 1953)">Exporting</text>
  <text style="stroke:none;fill:black;font-family:-apple-system,&quot;SF Pro Display&quot;,&quot;SF Pro Text&quot;,Helvetica,sans-serif;" transform="matrix(1 0 0 1 1289 1971)">Symbols should be outlined when exporting to ensure the</text>
  <text style="stroke:none;fill:black;font-family:-apple-system,&quot;SF Pro Display&quot;,&quot;SF Pro Text&quot;,Helvetica,sans-serif;" transform="matrix(1 0 0 1 1289 1989)">design is preserved when submitting to Xcode.</text>
  <text id="template-version" style="stroke:none;fill:black;font-family:-apple-system,&quot;SF Pro Display&quot;,&quot;SF Pro Text&quot;,Helvetica,sans-serif;text-anchor:end;" transform="matrix(1 0 0 1 3036 1933)">Template v.2.0</text>
  <text style="stroke:none;fill:black;font-family:-apple-system,&quot;SF Pro Display&quot;,&quot;SF Pro Text&quot;,Helvetica,sans-serif;text-anchor:end;" transform="matrix(1 0 0 1 3036 1951)">Requires Xcode 12 or greater</text>
  <text style="stroke:none;fill:black;font-family:-apple-system,&quot;SF Pro Display&quot;,&quot;SF Pro Text&quot;,Helvetica,sans-serif;text-anchor:end;" transform="matrix(1 0 0 1 3036 1969)">Generated from paperclip</text>
  <text style="stroke:none;fill:black;font-family:-apple-system,&quot;SF Pro Display&quot;,&quot;SF Pro Text&quot;,Helvetica,sans-serif;text-anchor:end;" transform="matrix(1 0 0 1 3036 1987)">Typeset at 100 points</text>
  <text style="stroke:none;fill:black;font-family:-apple-system,&quot;SF Pro Display&quot;,&quot;SF Pro Text&quot;,Helvetica,sans-serif;" transform="matrix(1 0 0 1 263 726)">Small</text>
  <text style="stroke:none;fill:black;font-family:-apple-system,&quot;SF Pro Display&quot;,&quot;SF Pro Text&quot;,Helvetica,sans-serif;" transform="matrix(1 0 0 1 263 1156)">Medium</text>
  <text style="stroke:none;fill:black;font-family:-apple-system,&quot;SF Pro Display&quot;,&quot;SF Pro Text&quot;,Helvetica,sans-serif;" transform="matrix(1 0 0 1 263 1586)">Large</text>
 </g>
 <g id="Guides">
  <g id="H-reference" style="fill:#27AAE1;stroke:none;" transform="matrix(1 0 0 1 339 696)">
   <path d="M0.976562 0L3.66211 0L12.9883-24.4629L45.752-24.4629L55.127 0L57.7637 0L30.6152-70.459L28.125-70.459ZM29.3457-67.1387L29.4434-67.1387L44.873-26.709L13.8672-26.709Z"/>
  </g>
  <line id="Baseline-S" style="fill:none;stroke:#27AAE1;opacity:1;stroke-width:0.5;" x1="263" x2="3036" y1="696" y2="696"/>
  <line id="Capline-S" style="fill:none;stroke:#27AAE1;opacity:1;stroke-width:0.5;" x1="263" x2="3036" y1="625.541" y2="625.541"/>
  <g id="H-reference" style="fill:#27AAE1;stroke:none;" transform="matrix(1 0 0 1 339 1126)">
   <path d="M0.976562 0L3.66211 0L12.9883-24.4629L45.752-24.4629L55.127 0L57.7637 0L30.6152-70.459L28.125-70.459ZM29.3457-67.1387L29.4434-67.1387L44.873-26.709L13.8672-26.709Z"/>
  </g>
  <line id="Baseline-M" style="fill:none;stroke:#27AAE1;opacity:1;stroke-width:0.5;" x1="263" x2="3036" y1="1126" y2="1126"/>
  <line id="Capline-M" style="fill:none;stroke:#27AAE1;opacity:1;stroke-width:0.5;" x1="263" x2="3036" y1="1055.54" y2="1055.54"/>
  <g id="H-reference" style="fill:#27AAE1;stroke:none;" transform="matrix(1 0 0 1 339 1556)">
   <path d="M0.976562 0L3.66211 0L12.9883-24.4629L45.752-24.4629L55.127 0L57.7637 0L30.6152-70.459L28.125-70.459ZM29.3457-67.1387L29.4434-67.1387L44.873-26.709L13.8672-26.709Z"/>
  </g>
  <line id="Baseline-L" style="fill:none;stroke:#27AAE1;opacity:1;stroke-width:0.5;" x1="263" x2="3036" y1="1556" y2="1556"/>
  <line id="Capline-L" style="fill:none;stroke:#27AAE1;opacity:1;stroke-width:0.5;" x1="263" x2="3036" y1="1485.54" y2="1485.54"/>
  <line id="left-margin" style="fill:none;stroke:#00AEEF;stroke-width:0.5;opacity:1.0;" x1="1392.08" x2="1392.08" y1="1030.79" y2="1150.12"/>
  <line id="right-margin" style="fill:none;stroke:#00AEEF;stroke-width:0.5;opacity:1.0;" x1="1507.61" x2="1507.61" y1="1030.79" y2="1150.12"/>
 </g>
 <g id="Symbols">
  <g id="Black-L" transform="matrix(1 0 0 1 2853.35 1556)">
   <path d="M121.191-33.1055L74.2676 13.7695C63.1348 25 48.1934 24.1699 38.5742 14.4531C28.8574 4.83398 28.0762-10.0098 39.3066-21.2402L104.346-86.2793C110.205-92.1387 119.482-94.2871 125.781-87.9883C132.178-81.543 129.932-72.3633 124.072-66.5039L59.4727-1.80664C57.7637-0.0488281 55.8105-0.585938 54.6875-1.66016C53.6621-2.73438 53.1738-4.6875 54.8828-6.39648L99.5605-51.0742C102.832-54.3945 102.881-59.2285 99.7559-62.4023C96.582-65.4785 91.6504-65.4297 88.4277-62.207L43.5059-17.2852C35.5957-9.375 35.9863 2.92969 43.0664 10.0098C50.7812 17.7246 62.4023 17.4805 70.3125 9.57031L135.352-55.4688C148.877-68.9941 148.828-86.9629 136.572-99.2676C124.512-111.182 106.25-111.572 92.7246-98.1445L27.1484-32.4219C9.91211-15.1367 10.6934 10.2051 26.7578 26.2695C42.8711 42.334 68.2129 43.1641 85.498 25.9277L132.812-21.3867C135.938-24.4141 135.889-30.2246 132.617-33.252C129.639-36.4746 124.414-36.2305 121.191-33.1055Z"/>
  </g>
  <g id="Heavy-L" transform="matrix(1 0 0 1 2558.17 1556)">
   <path d="M120.166-32.7148L73.2422 14.1602C61.8652 25.6348 46.6309 24.6582 36.8164 14.7949C26.9043 4.98047 26.0254-10.2051 37.4512-21.6797L102.051-86.2305C108.301-92.5293 117.969-94.2383 124.414-87.8418C130.859-81.2988 129.102-71.7285 122.803-65.4785L58.8867-1.41602C56.7871 0.683594 54.3457 0.0976562 52.8809-1.26953C51.5625-2.68555 50.9766-5.12695 53.0762-7.27539L97.5098-51.709C100.439-54.6387 100.488-58.8867 97.7051-61.6699C94.9219-64.4043 90.625-64.3555 87.7441-61.5234L43.0664-16.8457C35.5469-9.27734 35.9375 2.29492 42.627 8.98438C49.9023 16.2598 60.8887 16.1133 68.4082 8.59375L132.764-55.7617C145.801-68.7988 145.508-86.084 133.887-97.7539C122.412-109.131 104.883-109.717 91.7969-96.6797L26.7578-31.4941C9.96094-14.6973 10.8887 9.76562 26.3672 25.1953C41.8945 40.625 66.3086 41.6504 83.1543 24.9023L130.42-22.4121C133.203-25.0977 133.154-30.1758 130.273-32.8613C127.637-35.6934 123.047-35.498 120.166-32.7148Z"/>
  </g>
  <g id="Bold-L" transform="matrix(1 0 0 1 2263.17 1556)">
   <path d="M119.092-32.2754L72.168 14.6484C60.498 26.3184 44.873 25.2441 34.8633 15.1367C24.7559 5.12695 23.6816-10.4492 35.3516-22.168L99.4629-86.2305C106.201-92.9688 116.26-94.1895 122.803-87.6465C129.395-81.0059 128.125-71.0449 121.387-64.3066L58.252-1.02539C55.7129 1.51367 52.6855 0.830078 50.8789-0.878906C49.1699-2.68555 48.5352-5.66406 51.0254-8.20312L95.2637-52.4414C97.7539-54.8828 97.8027-58.5449 95.459-60.8887C93.0664-63.1836 89.4531-63.1348 86.9629-60.6934L42.5781-16.3086C35.498-9.17969 35.8398 1.61133 42.1387 7.86133C48.9258 14.6484 59.1797 14.5508 66.3086 7.42188L129.785-56.0547C142.334-68.6035 141.748-85.1074 130.859-96.0938C120.068-106.787 103.32-107.617 90.7715-95.0684L26.3184-30.5176C10.0098-14.209 11.1816 9.22852 25.9766 24.0234C40.8203 38.7695 64.209 39.9902 80.5664 23.6816L127.783-23.5352C130.176-25.8301 130.127-30.1758 127.686-32.4219C125.439-34.8633 121.533-34.6191 119.092-32.2754Z"/>
  </g>
  <g id="Semibold-L" transform="matrix(1 0 0 1 1967.66 1556)">
   <path d="M118.311-31.9336L71.3867 14.9902C59.5703 26.8555 43.6523 25.6348 33.4961 15.3809C23.2422 5.22461 22.0703-10.5957 33.9355-22.5098L97.6562-86.2305C104.736-93.3105 115.088-94.1406 121.729-87.5C128.369-80.8594 127.49-70.5566 120.41-63.4766L57.8125-0.732422C54.9316 2.09961 51.5625 1.36719 49.5117-0.634766C47.5586-2.63672 46.8262-6.00586 49.6582-8.88672L93.7012-52.8809C95.8984-55.0781 95.9473-58.252 93.8965-60.3516C91.7969-62.3535 88.623-62.3047 86.4258-60.1562L42.2363-15.9668C35.498-9.13086 35.8398 1.12305 41.7969 7.08008C48.2422 13.5254 58.0078 13.4766 64.8438 6.64062L127.783-56.2988C139.941-68.457 139.209-84.4238 128.76-94.9219C118.457-105.176 102.295-106.152 90.0879-93.9941L26.0254-29.834C10.0586-13.8672 11.377 8.83789 25.6836 23.1934C40.0391 37.5 62.793 38.8184 78.7598 22.9004L125.928-24.3164C128.027-26.3672 128.027-30.127 125.879-32.1289C123.877-34.2773 120.459-34.0332 118.311-31.9336Z"/>
  </g>
  <g id="Medium-L" transform="matrix(1 0 0 1 1671.82 1556)">
   <path d="M117.725-31.7383L70.8008 15.2344C58.8379 27.1973 42.7246 25.9277 32.4707 15.5762C22.1191 5.32227 20.8496-10.6934 32.8613-22.7539L96.3379-86.1816C103.662-93.5547 114.209-94.0918 120.898-87.4023C127.588-80.7129 127.002-70.166 119.678-62.8418L57.4707-0.537109C54.3945 2.53906 50.6836 1.75781 48.4375-0.390625C46.3379-2.63672 45.5566-6.25 48.6328-9.375L92.5293-53.2715C94.4824-55.2246 94.5312-58.0566 92.6758-59.9121C90.8691-61.7188 88.0371-61.6699 86.0352-59.7168L41.9922-15.6738C35.4492-9.08203 35.791 0.732422 41.5527 6.49414C47.7051 12.6465 57.1289 12.6465 63.7207 6.05469L126.221-56.4453C138.135-68.3594 137.256-83.9355 127.148-94.043C117.236-103.955 101.465-105.078 89.5508-93.1152L25.7812-29.3457C10.0586-13.623 11.4746 8.59375 25.4883 22.5586C39.502 36.5234 61.6699 37.9883 77.3926 22.2656L124.561-24.9023C126.465-26.7578 126.416-30.0781 124.512-31.8848C122.705-33.7891 119.678-33.5938 117.725-31.7383Z"/>
  </g>
  <g id="Regular-L" transform="matrix(1 0 0 1 1376.28 1556)">
   <path d="M116.992-31.3965L70.0195 15.5273C57.8613 27.6855 41.5527 26.3184 31.1035 15.8203C20.6543 5.41992 19.2383-10.8887 31.4453-23.0469L94.5801-86.1816C102.197-93.8477 113.086-94.043 119.824-87.3047C126.611-80.5176 126.367-69.7266 118.701-62.0605L57.0312-0.292969C53.6133 3.125 49.5605 2.24609 47.0703-0.146484C44.7266-2.58789 43.8965-6.64062 47.2168-10.0586L90.9668-53.7598C92.627-55.4199 92.6758-57.8125 91.1621-59.375C89.5996-60.8887 87.207-60.8887 85.498-59.1797L41.6992-15.332C35.4004-9.0332 35.7422 0.244141 41.2109 5.76172C47.0215 11.5723 55.957 11.5723 62.2559 5.27344L124.219-56.6895C135.791-68.2617 134.717-83.252 125.098-92.8711C115.625-102.344 100.439-103.662 88.8184-92.041L25.4883-28.6621C10.1074-13.2812 11.6699 8.20312 25.1953 21.7285C38.7695 35.2539 60.2539 36.8164 75.6348 21.4844L122.754-25.6348C124.365-27.2461 124.365-30.0781 122.754-31.5918C121.191-33.2031 118.604-33.0078 116.992-31.3965Z"/>
  </g>
  <g id="Light-L" transform="matrix(1 0 0 1 1080.94 1556)">
   <path d="M116.65-31.3965L68.8477 16.4062C56.5918 28.6621 39.9902 27.0508 29.4434 16.5039C18.8477 5.9082 17.2852-10.5957 29.541-22.9492L92.6758-85.9863C100.879-94.2383 111.963-93.4082 118.555-86.8164C125.146-80.2734 125.928-69.1895 117.725-60.9375L56.0059 0.830078C52.2949 4.54102 47.7539 3.75977 44.9219 1.02539C42.1387-1.80664 41.4551-6.34766 45.1172-10.0586L89.6484-54.5898C91.0645-55.957 91.0156-57.8125 89.7949-59.0332C88.623-60.1562 86.8164-60.2539 85.4004-58.8379L40.7715-14.209C34.7168-8.10547 35.2051 0.439453 40.332 5.56641C45.7031 10.9375 54.0527 11.2305 60.1074 5.17578L122.021-56.7383C133.301-68.0176 131.445-82.4219 122.656-91.2109C113.965-99.9023 99.5117-101.855 88.1836-90.5273L25.0977-27.3926C9.96094-12.2559 12.0605 8.20312 24.9023 21.0449C37.7441 33.8379 58.2031 35.9375 73.3398 20.8008L121.094-26.9531C122.461-28.2715 122.412-30.4199 121.191-31.5918C120.02-32.8125 117.969-32.7148 116.65-31.3965Z"/>
  </g>
  <g id="Thin-L" transform="matrix(1 0 0 1 786.036 1556)">
   <path d="M116.26-31.3965L67.334 17.5293C54.834 29.9316 37.9395 28.0762 27.1973 17.334C16.5039 6.5918 14.5996-10.2539 27.0508-22.7539L90.0879-85.7422C99.0723-94.7754 110.498-92.5293 116.846-86.1816C123.145-79.9316 125.391-68.5059 116.406-59.4727L54.6387 2.29492C50.4883 6.39648 45.3613 5.76172 42.041 2.53906C38.7695-0.78125 38.1836-5.95703 42.2363-10.1074L87.9395-55.7129C88.9648-56.6895 88.7695-57.8613 88.0371-58.5449C87.3535-59.2285 86.2793-59.4727 85.2051-58.3984L39.5508-12.7441C33.7891-6.93359 34.4727 0.683594 39.1602 5.37109C43.8965 10.1562 51.5137 10.791 57.2754 4.98047L119.092-56.7871C129.98-67.6758 127.148-81.25 119.482-88.9648C111.816-96.6309 98.291-99.4141 87.3535-88.4766L24.6094-25.7324C9.7168-10.8398 12.5977 8.1543 24.4629 20.0684C36.377 31.9824 55.5176 34.7656 70.3125 19.9707L118.945-28.7109C119.873-29.5898 119.775-30.9082 119.092-31.5918C118.408-32.2754 117.139-32.3242 116.26-31.3965Z"/>
  </g>
  <g id="Ultralight-L" transform="matrix(1 0 0 1 490.253 1556)">
   <path d="M116.016-31.3965L66.5527 18.0664C53.9551 30.5664 36.9141 28.6133 26.0742 17.7734C15.2832 6.98242 13.2812-10.1074 25.7812-22.7051L88.8184-85.6445C98.1445-95.0684 109.766-92.0898 115.967-85.8398C122.168-79.7363 125.098-68.1641 115.723-58.6914L53.9551 3.02734C49.6094 7.32422 44.1406 6.78711 40.5762 3.32031C37.0605-0.292969 36.5234-5.76172 40.8203-10.1074L87.0605-56.2988C87.8906-57.0801 87.5977-57.8613 87.1582-58.3008C86.7188-58.7402 85.9863-59.0332 85.1562-58.1543L38.9648-12.0117C33.3008-6.34766 34.082 0.830078 38.5742 5.27344C43.0176 9.7168 50.1953 10.5469 55.8594 4.88281L117.578-56.8359C128.271-67.5293 124.951-80.6641 117.822-87.793C110.693-94.9219 97.6562-98.1934 86.9141-87.4512L24.3164-24.9023C9.61914-10.1562 12.8418 8.1543 24.2676 19.5801C35.6934 31.0059 54.1016 34.1797 68.75 19.5312L117.871-29.5898C118.555-30.2734 118.457-31.1035 118.018-31.5918C117.578-31.9824 116.748-32.1289 116.016-31.3965Z"/>
  </g>
  <g id="Black-M" transform="matrix(1 0 0 1 2870 1126)">
   <path d="M95.1172-34.1309L58.3008 2.63672C49.9512 11.084 38.6719 10.5469 31.3965 3.17383C24.0723-4.10156 23.584-15.2832 32.0312-23.7305L83.0078-74.707C87.2559-79.0039 94.0918-80.7129 98.7305-76.0742C103.467-71.2891 101.66-64.5996 97.3633-60.3027L46.3867-9.17969C45.4102-8.25195 44.3359-8.44727 43.6523-9.08203C43.1152-9.66797 42.8711-10.7422 43.8477-11.7188L79.248-47.1191C82.1289-50.0488 82.1289-54.2969 79.3945-57.0801C76.6113-59.7656 72.2656-59.7656 69.4336-56.9336L33.8379-21.3867C27.3438-14.8438 27.6855-4.6875 33.5449 1.12305C39.8438 7.42188 49.4141 7.32422 55.957 0.830078L107.324-50.5859C118.262-61.5234 118.115-76.0254 108.252-85.9375C98.4863-95.6055 83.7402-95.9473 72.8027-85.1074L21.3867-33.5449C7.56836-19.6777 8.20312 0.634766 21.0938 13.5254C34.0332 26.3672 54.3457 27.0508 68.2129 13.2324L105.322-23.877C108.008-26.5137 107.959-31.5918 105.127-34.2285C102.539-37.0117 97.9492-36.9141 95.1172-34.1309Z"/>
  </g>
  <g id="Heavy-M" transform="matrix(1 0 0 1 2574.6 1126)">
   <path d="M94.0918-33.6914L57.5195 2.88086C48.9258 11.5234 37.3535 10.8887 29.8828 3.36914C22.4121-4.05273 21.7773-15.5762 30.4688-24.2676L80.957-74.7559C85.5469-79.3457 92.7246-80.8594 97.5098-76.0254C102.393-71.0938 100.83-64.0625 96.2402-59.4727L45.9961-9.08203C44.6777-7.76367 43.1641-8.1543 42.2363-8.98438C41.4551-9.86328 41.1133-11.3281 42.4316-12.6465L77.3438-47.6074C79.9316-50.1465 79.9316-53.9551 77.4902-56.3965C75.0488-58.7891 71.1914-58.7402 68.7012-56.25L33.5938-21.1426C27.4414-14.9902 27.7832-5.41992 33.252 0.0488281C39.209 6.00586 48.2422 5.9082 54.4434-0.292969L105.029-50.8789C115.527-61.377 115.332-75.293 105.908-84.7656C96.6309-93.9453 82.4707-94.3848 71.9238-83.9355L21.0449-32.9102C7.66602-19.4824 8.34961 0.0976562 20.752 12.5C33.2031 24.9023 52.7832 25.6836 66.2598 12.2559L103.125-24.6094C105.518-26.9531 105.469-31.4453 102.979-33.7891C100.684-36.2793 96.6309-36.1328 94.0918-33.6914Z"/>
  </g>
  <g id="Bold-M" transform="matrix(1 0 0 1 2279.38 1126)">
   <path d="M92.9688-33.2031L56.6406 3.125C47.7539 12.0605 35.8887 11.2793 28.2227 3.56445C20.5078-4.05273 19.8242-15.8691 28.7109-24.8047L78.6621-74.7559C83.5938-79.6875 91.1621-80.957 96.1914-75.9766C101.221-70.8984 99.9023-63.4277 94.9707-58.4961L45.5566-8.98438C43.8477-7.27539 41.8945-7.76367 40.6738-8.88672C39.5996-10.0098 39.1602-12.0117 40.8203-13.7207L75.2441-48.0957C77.3926-50.293 77.4414-53.5156 75.3906-55.6152C73.291-57.6172 70.0195-57.6172 67.8711-55.4688L33.3008-20.8984C27.5879-15.1367 27.8809-6.25 33.0078-1.12305C38.5254 4.39453 46.9238 4.29688 52.6855-1.46484L102.441-51.1719C112.451-61.2305 112.207-74.4629 103.271-83.3984C94.5312-92.1387 81.0547-92.627 70.9961-82.6172L20.7031-32.2266C7.76367-19.2383 8.49609-0.488281 20.4102 11.4258C32.3242 23.291 51.0742 24.0723 64.0625 11.1816L100.684-25.4395C102.734-27.4902 102.734-31.2988 100.586-33.3008C98.584-35.4492 95.1172-35.3027 92.9688-33.2031Z"/>
  </g>
  <g id="Semibold-M" transform="matrix(1 0 0 1 1983.7 1126)">
   <path d="M92.1875-32.8613L56.0059 3.32031C46.9727 12.4023 34.8633 11.5723 27.0996 3.71094C19.2383-4.05273 18.457-16.1133 27.5391-25.1953L77.0996-74.8047C82.2754-79.9805 90.0879-81.0547 95.2148-75.9277C100.391-70.752 99.2676-62.9883 94.0918-57.8125L45.2637-8.88672C43.3105-6.93359 40.9668-7.4707 39.5996-8.78906C38.3301-10.1562 37.793-12.4512 39.7461-14.4531L73.7793-48.4863C75.6836-50.3906 75.7812-53.2227 73.9258-55.0781C72.0703-56.8848 69.2383-56.8359 67.334-54.9316L33.1543-20.7031C27.6855-15.2344 27.9297-6.83594 32.7637-1.95312C38.0371 3.32031 46.0449 3.17383 51.5137-2.29492L100.635-51.416C110.352-61.1328 110.01-73.9258 101.465-82.5195C93.0664-90.8691 80.0781-91.4062 70.3613-81.6895L20.4102-31.6895C7.8125-19.0918 8.64258-0.878906 20.166 10.6445C31.6895 22.168 49.9023 22.998 62.5488 10.4004L98.9746-26.0254C100.83-27.832 100.83-31.2012 98.9258-32.959C97.1191-34.9121 94.0918-34.7168 92.1875-32.8613Z"/>
  </g>
  <g id="Medium-M" transform="matrix(1 0 0 1 1687.77 1126)">
   <path d="M91.6016-32.6172L55.5176 3.4668C46.3867 12.6465 34.082 11.7676 26.2207 3.85742C18.2617-4.05273 17.3828-16.2598 26.6113-25.4883L75.9277-74.8047C81.2988-80.1758 89.3066-81.1035 94.5312-75.8789C99.7559-70.6055 98.7793-62.6465 93.4082-57.3242L45.0195-8.83789C42.8711-6.64062 40.332-7.27539 38.7695-8.74023C37.3535-10.2539 36.7676-12.793 38.916-14.9902L72.6562-48.7305C74.3652-50.4883 74.4629-53.0273 72.8027-54.6875C71.1426-56.25 68.6035-56.2012 66.8945-54.4922L33.0078-20.6055C27.7344-15.332 27.9297-7.27539 32.6172-2.58789C37.6953 2.49023 45.3613 2.34375 50.6348-2.92969L99.2676-51.6113C108.74-61.0352 108.398-73.4863 100.098-81.7871C91.9434-89.8926 79.2969-90.4785 69.8242-81.0059L20.2148-31.3477C7.86133-18.9453 8.69141-1.17188 19.9707 10.1074C31.2012 21.2891 49.0234 22.168 61.377 9.81445L97.7051-26.4648C99.3652-28.125 99.3652-31.1523 97.6562-32.7148C96.0449-34.4727 93.3105-34.2285 91.6016-32.6172Z"/>
  </g>
  <g id="Regular-M" transform="matrix(1 0 0 1 1392.08 1126)">
   <path d="M90.8203-32.2754L54.9316 3.61328C45.6055 12.9883 33.0566 12.0605 25.0488 3.95508C16.9922-4.05273 16.0645-16.5039 25.3906-25.8789L74.3652-74.8047C79.9805-80.4199 88.2324-81.2012 93.6035-75.8789C98.9258-70.459 98.1445-62.2559 92.5781-56.6406L44.7266-8.78906C42.334-6.29883 39.4043-7.03125 37.7441-8.69141C36.084-10.4004 35.4004-13.2324 37.793-15.7227L71.2402-49.0723C72.7051-50.5859 72.8027-52.7344 71.3867-54.1504C69.9707-55.5176 67.8223-55.4199 66.3574-53.9551L32.8125-20.4102C27.832-15.4297 28.0273-7.8125 32.4219-3.41797C37.207 1.36719 44.4336 1.26953 49.4629-3.75977L97.5098-51.8066C106.641-60.9375 106.25-72.9492 98.291-80.9082C90.5273-88.6719 78.3203-89.2578 69.1895-80.127L19.9707-30.8594C7.91016-18.7988 8.83789-1.5625 19.7266 9.32617C30.6152 20.166 47.8516 21.0938 59.9121 9.08203L96.0449-27.0508C97.4609-28.4668 97.4609-31.0547 95.9961-32.373C94.5801-33.8867 92.2852-33.6914 90.8203-32.2754Z"/>
  </g>
  <g id="Light-M" transform="matrix(1 0 0 1 1096.59 1126)">
   <path d="M90.5273-32.2754L53.8574 4.39453C44.4336 13.8672 31.6895 12.6953 23.5352 4.54102C15.3809-3.56445 14.2578-16.2598 23.7305-25.7812L72.6562-74.6582C78.7598-80.8105 87.2559-80.6152 92.4316-75.4395C97.6074-70.2637 97.7539-61.7676 91.6504-55.6641L43.8477-7.76367C41.1133-5.0293 37.793-5.66406 35.7422-7.66602C33.7891-9.66797 33.2031-12.9883 35.8887-15.7227L70.0684-49.8535C71.2402-51.0742 71.2402-52.7344 70.166-53.8086C69.0918-54.8828 67.4316-54.8828 66.2109-53.6621L31.9824-19.4336C27.1973-14.5996 27.4902-7.66602 31.6406-3.51562C35.9863 0.830078 42.7246 0.927734 47.5586-3.85742L95.5566-51.8555C104.395-60.7422 103.32-72.168 96.1426-79.3457C89.0625-86.4258 77.4902-87.6465 68.6035-78.7598L19.6289-29.7363C7.76367-17.8711 9.17969-1.5625 19.4336 8.69141C29.6875 18.8965 45.9961 20.3125 57.8125 8.49609L94.5801-28.2227C95.752-29.3945 95.7031-31.3477 94.5801-32.373C93.5059-33.5449 91.6992-33.3984 90.5273-32.2754Z"/>
  </g>
  <g id="Thin-M" transform="matrix(1 0 0 1 801.515 1126)">
   <path d="M90.1367-32.2754L52.4902 5.41992C42.8711 14.9902 29.834 13.623 21.5332 5.32227C13.2812-2.92969 11.8652-15.9668 21.4844-25.5859L70.3613-74.4629C77.1484-81.2988 85.9375-79.834 90.8691-74.8535C95.8496-69.9219 97.2656-61.1816 90.4785-54.3457L42.627-6.44531C39.502-3.36914 35.6445-3.90625 33.1543-6.29883C30.7617-8.78906 30.2734-12.5977 33.3496-15.7227L68.5059-50.8789C69.3848-51.709 69.2383-52.7832 68.6035-53.418C67.9688-54.0527 66.9434-54.1504 66.0645-53.2715L30.9082-18.1152C26.3672-13.5742 26.8555-7.42188 30.5664-3.71094C34.375 0.0976562 40.4297 0.537109 45.0195-4.00391L92.9199-51.9531C101.416-60.4492 99.4629-71.1426 93.2617-77.3438C87.1094-83.4961 76.416-85.498 67.8223-76.9531L19.1406-28.2227C7.56836-16.6504 9.61914-1.61133 19.043 7.8125C28.4668 17.2363 43.5547 19.2871 55.127 7.71484L92.627-29.7852C93.457-30.5664 93.3594-31.7383 92.7246-32.373C92.0898-33.0566 90.9668-33.0566 90.1367-32.2754Z"/>
  </g>
  <g id="Ultralight-M" transform="matrix(1 0 0 1 505.634 1126)">
   <path d="M89.9902-32.2754L51.7578 5.9082C42.041 15.5762 28.9062 14.0625 20.5078 5.71289C12.1582-2.63672 10.6445-15.8203 20.3125-25.5371L69.1895-74.3164C76.3184-81.543 85.2539-79.3945 90.0879-74.5605C94.9707-69.7754 97.0215-60.8398 89.8926-53.6621L41.9922-5.81055C38.6719-2.53906 34.5703-2.97852 31.8359-5.61523C29.1992-8.30078 28.7598-12.4512 32.0312-15.7715L67.7246-51.3672C68.4082-52.0508 68.2129-52.7832 67.7734-53.1738C67.3828-53.6133 66.6992-53.8086 65.9668-53.0762L30.3711-17.4316C25.9277-13.0371 26.5137-7.32422 30.0293-3.80859C33.5938-0.244141 39.2578 0.292969 43.7012-4.10156L91.5527-51.9531C99.9023-60.3027 97.5098-70.6055 91.7969-76.3184C86.084-81.9824 75.8301-84.4238 67.4316-76.0254L18.8965-27.4902C7.4707-16.0156 9.86328-1.61133 18.8477 7.37305C27.832 16.4062 42.334 18.75 53.7109 7.32422L91.6504-30.5664C92.2363-31.2012 92.1875-31.9824 91.7969-32.373C91.3574-32.8125 90.5762-32.8613 89.9902-32.2754Z"/>
  </g>
  <g id="Black-S" transform="matrix(1 0 0 1 2883.82 696)">
   <path d="M74.4629-34.3262L45.6543-5.56641C39.0625 1.07422 30.2246 0.634766 24.5117-5.12695C18.75-10.8398 18.3594-19.6289 25-26.2695L64.8926-66.1621C68.2617-69.5312 73.6328-70.8984 77.2949-67.2363C81.0059-63.4766 79.5898-58.2031 76.2207-54.834L36.3281-14.8438C35.5469-14.0625 34.668-14.2578 34.1309-14.7461C33.6914-15.2344 33.4961-16.1133 34.2773-16.8945L61.9629-44.5801C64.209-46.8262 64.209-50.1465 62.0605-52.2949C59.9121-54.3945 56.543-54.3945 54.3457-52.1973L26.5137-24.3652C21.4355-19.2871 21.7285-11.377 26.2695-6.83594C31.2012-1.9043 38.6719-2.00195 43.75-7.08008L83.9355-47.2656C92.4805-55.8105 92.3828-67.1387 84.668-74.9023C77.0508-82.4219 65.5273-82.7148 56.9824-74.2188L16.748-33.8867C5.95703-23.0469 6.44531-7.17773 16.5039 2.88086C26.6113 12.9395 42.4805 13.4766 53.3203 2.68555L82.373-26.3672C84.4727-28.418 84.4238-32.373 82.2266-34.4238C80.2246-36.5723 76.6602-36.4746 74.4629-34.3262Z"/>
  </g>
  <g id="Heavy-S" transform="matrix(1 0 0 1 2587.98 696)">
   <path d="M73.6816-33.9844L45.1172-5.46875C38.3789 1.31836 29.3457 0.830078 23.5352-5.0293C17.627-10.8887 17.1875-19.873 23.9746-26.6602L63.5254-66.2109C67.041-69.7754 72.6562-71.0449 76.4648-67.2363C80.3223-63.3301 79.0039-57.8125 75.4395-54.2969L36.1328-14.8926C35.1074-13.8672 33.9355-14.1602 33.252-14.7949C32.666-15.4297 32.373-16.6016 33.3984-17.627L60.6445-44.873C62.6465-46.875 62.6953-49.8535 60.7422-51.8066C58.7891-53.7109 55.7617-53.6621 53.7598-51.709L26.416-24.3164C21.582-19.4824 21.8262-11.9629 26.123-7.61719C30.8594-2.92969 37.9395-3.07617 42.7734-7.91016L82.373-47.5098C90.625-55.7129 90.5273-66.6504 83.1055-74.1699C75.7812-81.3965 64.6484-81.6895 56.3965-73.4863L16.5039-33.5449C6.00586-22.998 6.49414-7.56836 16.2598 2.19727C26.0742 11.9629 41.5039 12.5 52.0508 2.00195L80.8594-26.8066C82.7637-28.6621 82.7148-32.2266 80.7129-34.082C78.9062-36.0352 75.6836-35.9375 73.6816-33.9844Z"/>
  </g>
  <g id="Bold-S" transform="matrix(1 0 0 1 2292.25 696)">
   <path d="M72.8516-33.6426L44.5801-5.37109C37.6465 1.61133 28.3691 1.07422 22.4121-4.98047C16.4062-10.9375 15.8691-20.166 22.8516-27.0996L61.9629-66.2598C65.7227-70.0195 71.6309-71.2402 75.5859-67.2363C79.5898-63.2324 78.3203-57.4219 74.5605-53.6621L35.8887-14.8926C34.6191-13.623 33.1543-14.0137 32.3242-14.8438C31.543-15.6738 31.1523-17.1387 32.4219-18.4082L59.1309-45.166C60.8887-46.9238 60.9863-49.5605 59.2773-51.2695C57.5684-52.9297 54.9316-52.8809 53.1738-51.123L26.2695-24.2188C21.7773-19.6777 21.9238-12.5977 26.0254-8.54492C30.4688-4.10156 37.1582-4.24805 41.6992-8.78906L80.6152-47.7539C88.5742-55.6641 88.5254-66.1621 81.3477-73.3398C74.3164-80.2734 63.623-80.5176 55.7129-72.6562L16.2598-33.1055C6.10352-22.9492 6.5918-8.00781 16.0156 1.41602C25.4883 10.8398 40.4297 11.377 50.5859 1.2207L79.1504-27.2949C80.8105-28.9551 80.8105-32.0801 79.0527-33.7402C77.3926-35.4492 74.6094-35.3027 72.8516-33.6426Z"/>
  </g>
  <g id="Semibold-S" transform="matrix(1 0 0 1 1996.22 696)">
   <path d="M72.2656-33.3496L44.1895-5.27344C37.1582 1.80664 27.7344 1.2207 21.6797-4.88281C15.5762-10.9375 14.9902-20.3613 22.0703-27.4414L60.9375-66.2598C64.8438-70.166 70.8984-71.3379 74.9512-67.2363C79.0527-63.1348 77.8809-57.1289 73.9746-53.2227L35.7422-14.9414C34.3262-13.4766 32.6172-13.9648 31.6406-14.8926C30.7129-15.8203 30.2734-17.4805 31.7383-18.9453L58.1055-45.3613C59.7168-46.9238 59.8145-49.3164 58.252-50.8789C56.6895-52.3438 54.3457-52.2949 52.7344-50.7324L26.2207-24.1699C21.875-19.8242 22.0215-13.0371 25.9277-9.13086C30.1758-4.88281 36.6211-5.07812 40.9668-9.42383L79.4434-47.9004C87.1094-55.5664 87.1094-65.7715 80.1758-72.7539C73.3398-79.541 62.9395-79.7363 55.2734-72.0703L16.1133-32.8125C6.15234-22.9004 6.64062-8.30078 15.8691 0.927734C25.0977 10.1074 39.6484 10.6445 49.6094 0.683594L77.9785-27.6367C79.4922-29.1504 79.4922-31.9824 77.8809-33.4473C76.416-35.0586 73.8281-34.8633 72.2656-33.3496Z"/>
  </g>
  <g id="Medium-S" transform="matrix(1 0 0 1 1700.02 696)">
   <path d="M71.8262-33.1543L43.8965-5.22461C36.7676 1.95312 27.2461 1.31836 21.0938-4.83398C14.9414-10.9863 14.3066-20.459 21.4844-27.6367L60.1074-66.3086C64.1113-70.3125 70.3125-71.4355 74.5117-67.2852C78.6621-63.0371 77.5391-56.8848 73.5352-52.9297L35.6445-14.9414C34.0332-13.3301 32.1777-13.8672 31.1523-14.8926C30.127-15.9668 29.6387-17.7734 31.2012-19.3848L57.373-45.5078C58.7891-46.9727 58.9355-49.1699 57.4707-50.5859C56.0547-51.9531 53.8574-51.9043 52.4414-50.4395L26.1719-24.1699C21.9727-19.9707 22.0703-13.3789 25.8789-9.61914C29.9805-5.51758 36.1816-5.66406 40.3809-9.91211L78.5645-48.0469C86.0352-55.5664 86.0352-65.5273 79.248-72.3145C72.6074-78.9551 62.4512-79.1504 54.9316-71.6309L15.9668-32.6172C6.20117-22.8516 6.68945-8.54492 15.7227 0.537109C24.8047 9.52148 39.1113 10.0586 48.877 0.292969L77.0996-27.9297C78.5156-29.2969 78.5156-31.8848 77.002-33.252C75.6348-34.7656 73.291-34.5703 71.8262-33.1543Z"/>
  </g>
  <g id="Regular-S" transform="matrix(1 0 0 1 1403.99 696)">
   <path d="M71.2891-32.9102L43.5059-5.17578C36.2793 2.14844 26.5625 1.46484 20.3613-4.78516C14.1113-11.0352 13.4277-20.6543 20.7031-27.9785L59.082-66.3086C63.2324-70.459 69.5801-71.5332 73.877-67.2852C78.125-62.9395 77.0508-56.6406 72.9492-52.4902L35.498-14.9902C33.7402-13.1836 31.6406-13.8184 30.4688-14.9414C29.3457-16.1133 28.8086-18.1152 30.5664-19.9219L56.3477-45.7031C57.6172-47.0215 57.7637-48.9258 56.4941-50.1953C55.2246-51.416 53.2715-51.3184 52.002-50.0488L26.0742-24.1211C22.1191-20.0684 22.168-13.8184 25.7812-10.2051C29.7363-6.29883 35.6445-6.49414 39.6973-10.498L77.3438-48.1934C84.6191-55.4688 84.6191-65.1855 78.0762-71.7285C71.6309-78.1738 61.7676-78.3691 54.4922-71.0938L15.8203-32.3242C6.25-22.8027 6.73828-8.83789 15.5762 0C24.4141 8.78906 38.3789 9.27734 47.9004-0.244141L75.9277-28.2715C77.1973-29.4922 77.1973-31.7871 75.8789-33.0078C74.6094-34.375 72.5586-34.1309 71.2891-32.9102Z"/>
  </g>
  <g id="Light-S" transform="matrix(1 0 0 1 1108.36 696)">
   <path d="M71.0449-32.9102L42.627-4.49219C35.2539 2.88086 25.3418 2.05078 19.043-4.29688C12.6953-10.5957 11.8652-20.459 19.2383-27.8809L57.5684-66.1621C62.1582-70.8008 68.75-70.9961 72.8516-66.8945C77.002-62.7441 76.7578-56.2012 72.168-51.6113L34.668-14.1113C32.666-12.0605 30.2246-12.5977 28.7598-14.0137C27.3438-15.4785 26.8555-17.8711 28.8574-19.9219L55.3223-46.3867C56.3477-47.4609 56.3965-48.9258 55.4199-49.9023C54.4434-50.8789 52.9785-50.8301 51.9043-49.8047L25.3906-23.2422C21.5332-19.3848 21.7285-13.6719 25.0977-10.3516C28.6621-6.78711 34.1309-6.78711 37.9883-10.5957L75.6348-48.2422C82.666-55.2734 82.0801-64.4531 76.1719-70.4102C70.3125-76.2207 61.0352-76.9043 53.9551-69.873L15.4785-31.3477C6.15234-21.9727 7.03125-8.83789 15.332-0.585938C23.584 7.66602 36.7676 8.59375 46.0938-0.732422L74.6582-29.2969C75.6836-30.2734 75.6348-32.0801 74.6582-33.0078C73.6816-34.0332 72.0703-33.8867 71.0449-32.9102Z"/>
  </g>
  <g id="Thin-S" transform="matrix(1 0 0 1 813.087 696)">
   <path d="M70.7031-32.9102L41.4062-3.61328C33.8867 3.90625 23.7305 2.88086 17.2852-3.61328C10.791-10.0586 9.76562-20.2148 17.2852-27.7344L55.5664-66.0156C60.7422-71.1914 67.5781-70.3125 71.5332-66.4062C75.4395-62.5 76.3184-55.6641 71.1426-50.4395L33.6426-12.9395C31.25-10.5957 28.3691-11.0352 26.5137-12.8418C24.707-14.6973 24.2676-17.5781 26.6113-19.9707L54.0039-47.2656C54.7363-47.998 54.6387-48.9746 54.0527-49.5605C53.4668-50.1465 52.5879-50.1953 51.8066-49.4629L24.4141-22.0703C20.8496-18.457 21.1914-13.5254 24.1699-10.498C27.2461-7.42188 32.1289-7.12891 35.7422-10.7422L73.291-48.291C80.0293-55.0293 78.6621-63.5742 73.6328-68.6035C68.6035-73.6328 60.1074-75.0488 53.3203-68.2617L15.0879-30.0293C5.95703-20.8984 7.4707-8.88672 14.9902-1.31836C22.5586 6.20117 34.6191 7.66602 43.7012-1.41602L72.9492-30.6641C73.6328-31.3477 73.6328-32.4219 72.998-33.0078C72.4121-33.6426 71.4355-33.5938 70.7031-32.9102Z"/>
  </g>
  <g id="Ultralight-S" transform="matrix(1 0 0 1 517.109 696)">
   <path d="M70.5566-32.9102L40.7715-3.125C33.2031 4.44336 22.9004 3.27148 16.3574-3.27148C9.86328-9.76562 8.69141-20.0684 16.2598-27.6367L54.541-65.8691C60.0586-71.4355 66.9922-69.9707 70.8496-66.1133C74.6582-62.3535 76.0742-55.3711 70.6055-49.8535L33.1055-12.3535C30.5664-9.86328 27.3926-10.2051 25.3418-12.207C23.3398-14.2578 22.9492-17.4316 25.4883-19.9707L53.3203-47.7539C53.8574-48.3398 53.7598-48.9746 53.3691-49.3652C52.9785-49.7559 52.3438-49.9023 51.7578-49.2676L23.9746-21.4844C20.459-17.9688 20.8984-13.3789 23.6816-10.5957C26.5625-7.71484 31.1035-7.32422 34.6191-10.8398L72.1191-48.3398C78.7109-54.9316 76.9043-63.0859 72.3145-67.6758C67.7246-72.2656 59.6191-74.0723 52.9785-67.4316L14.8926-29.3457C5.9082-20.3613 7.66602-8.88672 14.8438-1.70898C22.0215 5.46875 33.4961 7.17773 42.4805-1.75781L72.0703-31.3965C72.6074-31.8848 72.5586-32.6172 72.168-33.0078C71.7773-33.3984 71.0938-33.4473 70.5566-32.9102Z"/>
  </g>
 </g>
</svg>
