<?xml version="1.0" encoding="UTF-8"?>
<!--Generator: Apple Native CoreSVG 149-->
<!DOCTYPE svg
PUBLIC "-//W3C//DTD SVG 1.1//EN"
       "http://www.w3.org/Graphics/SVG/1.1/DTD/svg11.dtd">
<svg version="1.1" xmlns="http://www.w3.org/2000/svg" xmlns:xlink="http://www.w3.org/1999/xlink" width="3300" height="2200">
 <!--glyph: "uni10070A.medium", point size: 100.000000, font version: "Version 16.0d18e1", template writer version: "8"-->
 <g id="Notes">
  <rect height="2200" id="artboard" style="fill:white;opacity:1" width="3300" x="0" y="0"/>
  <line id="" style="fill:none;stroke:black;opacity:1;stroke-width:0.5;" x1="263" x2="3036" y1="292" y2="292"/>
  <text style="stroke:none;fill:black;font-family:-apple-system,&quot;SF Pro Display&quot;,&quot;SF Pro Text&quot;,Helvetica,sans-serif;font-weight:bold;" transform="matrix(1 0 0 1 263 322)">Weight/Scale Variations</text>
  <text style="stroke:none;fill:black;font-family:-apple-system,&quot;SF Pro Display&quot;,&quot;SF Pro Text&quot;,Helvetica,sans-serif;text-anchor:middle;" transform="matrix(1 0 0 1 559.711 322)">Ultralight</text>
  <text style="stroke:none;fill:black;font-family:-apple-system,&quot;SF Pro Display&quot;,&quot;SF Pro Text&quot;,Helvetica,sans-serif;text-anchor:middle;" transform="matrix(1 0 0 1 856.422 322)">Thin</text>
  <text style="stroke:none;fill:black;font-family:-apple-system,&quot;SF Pro Display&quot;,&quot;SF Pro Text&quot;,Helvetica,sans-serif;text-anchor:middle;" transform="matrix(1 0 0 1 1153.13 322)">Light</text>
  <text style="stroke:none;fill:black;font-family:-apple-system,&quot;SF Pro Display&quot;,&quot;SF Pro Text&quot;,Helvetica,sans-serif;text-anchor:middle;" transform="matrix(1 0 0 1 1449.84 322)">Regular</text>
  <text style="stroke:none;fill:black;font-family:-apple-system,&quot;SF Pro Display&quot;,&quot;SF Pro Text&quot;,Helvetica,sans-serif;text-anchor:middle;" transform="matrix(1 0 0 1 1746.56 322)">Medium</text>
  <text style="stroke:none;fill:black;font-family:-apple-system,&quot;SF Pro Display&quot;,&quot;SF Pro Text&quot;,Helvetica,sans-serif;text-anchor:middle;" transform="matrix(1 0 0 1 2043.27 322)">Semibold</text>
  <text style="stroke:none;fill:black;font-family:-apple-system,&quot;SF Pro Display&quot;,&quot;SF Pro Text&quot;,Helvetica,sans-serif;text-anchor:middle;" transform="matrix(1 0 0 1 2339.98 322)">Bold</text>
  <text style="stroke:none;fill:black;font-family:-apple-system,&quot;SF Pro Display&quot;,&quot;SF Pro Text&quot;,Helvetica,sans-serif;text-anchor:middle;" transform="matrix(1 0 0 1 2636.69 322)">Heavy</text>
  <text style="stroke:none;fill:black;font-family:-apple-system,&quot;SF Pro Display&quot;,&quot;SF Pro Text&quot;,Helvetica,sans-serif;text-anchor:middle;" transform="matrix(1 0 0 1 2933.4 322)">Black</text>
  <line id="" style="fill:none;stroke:black;opacity:1;stroke-width:0.5;" x1="263" x2="3036" y1="1903" y2="1903"/>
  <g id="" transform="matrix(1 0 0 1 263 1933)">
   <path d="M9.24805 0.830078C13.5547 0.830078 17.1387-2.74414 17.1387-7.05078C17.1387-11.3574 13.5449-14.9316 9.23828-14.9316C4.94141-14.9316 1.36719-11.3574 1.36719-7.05078C1.36719-2.74414 4.95117 0.830078 9.24805 0.830078ZM9.24805-0.654297C5.70312-0.654297 2.87109-3.49609 2.87109-7.05078C2.87109-10.6055 5.69336-13.4473 9.23828-13.4473C12.793-13.4473 15.6348-10.6055 15.6445-7.05078C15.6543-3.49609 12.8027-0.654297 9.24805-0.654297ZM6.39648-6.31836L8.50586-6.31836L8.50586-4.19922C8.50586-3.75977 8.79883-3.45703 9.22852-3.45703C9.67773-3.45703 9.9707-3.75977 9.9707-4.19922L9.9707-6.31836L12.0996-6.31836C12.5391-6.31836 12.8418-6.61133 12.8418-7.04102C12.8418-7.48047 12.5391-7.7832 12.0996-7.7832L9.9707-7.7832L9.9707-9.89258C9.9707-10.3418 9.67773-10.6445 9.22852-10.6445C8.79883-10.6445 8.50586-10.3418 8.50586-9.89258L8.50586-7.7832L6.39648-7.7832C5.94727-7.7832 5.64453-7.48047 5.64453-7.04102C5.64453-6.61133 5.94727-6.31836 6.39648-6.31836Z"/>
  </g>
  <g id="" transform="matrix(1 0 0 1 281.506 1933)">
   <path d="M11.709 2.91016C17.1582 2.91016 21.6699-1.61133 21.6699-7.05078C21.6699-12.5 17.1484-17.0117 11.6992-17.0117C6.25977-17.0117 1.74805-12.5 1.74805-7.05078C1.74805-1.61133 6.26953 2.91016 11.709 2.91016ZM11.709 1.25C7.09961 1.25 3.41797-2.44141 3.41797-7.05078C3.41797-11.6602 7.08984-15.3516 11.6992-15.3516C16.3086-15.3516 20-11.6602 20.0098-7.05078C20.0195-2.44141 16.3184 1.25 11.709 1.25ZM7.98828-6.23047L10.8789-6.23047L10.8789-3.32031C10.8789-2.83203 11.2109-2.5 11.6895-2.5C12.1777-2.5 12.5195-2.83203 12.5195-3.32031L12.5195-6.23047L15.4297-6.23047C15.918-6.23047 16.25-6.5625 16.25-7.04102C16.25-7.5293 15.918-7.87109 15.4297-7.87109L12.5195-7.87109L12.5195-10.7617C12.5195-11.2695 12.1777-11.6016 11.6895-11.6016C11.2109-11.6016 10.8789-11.2598 10.8789-10.7617L10.8789-7.87109L7.98828-7.87109C7.48047-7.87109 7.14844-7.5293 7.14844-7.04102C7.14844-6.5625 7.49023-6.23047 7.98828-6.23047Z"/>
  </g>
  <g id="" transform="matrix(1 0 0 1 304.924 1933)">
   <path d="M14.9707 5.66406C21.9336 5.66406 27.6953-0.0976562 27.6953-7.05078C27.6953-14.0137 21.9238-19.7754 14.9609-19.7754C8.00781-19.7754 2.25586-14.0137 2.25586-7.05078C2.25586-0.0976562 8.01758 5.66406 14.9707 5.66406ZM14.9707 3.84766C8.93555 3.84766 4.08203-1.01562 4.08203-7.05078C4.08203-13.0957 8.92578-17.9492 14.9609-17.9492C21.0059-17.9492 25.8594-13.0957 25.8691-7.05078C25.8789-1.01562 21.0156 3.84766 14.9707 3.84766ZM10.0586-6.14258L14.0625-6.14258L14.0625-2.12891C14.0625-1.5918 14.4336-1.2207 14.9512-1.2207C15.4883-1.2207 15.8594-1.5918 15.8594-2.12891L15.8594-6.14258L19.8828-6.14258C20.4102-6.14258 20.791-6.51367 20.791-7.03125C20.791-7.56836 20.4199-7.94922 19.8828-7.94922L15.8594-7.94922L15.8594-11.9531C15.8594-12.5098 15.4883-12.8809 14.9512-12.8809C14.4336-12.8809 14.0625-12.5 14.0625-11.9531L14.0625-7.94922L10.0586-7.94922C9.50195-7.94922 9.13086-7.56836 9.13086-7.03125C9.13086-6.51367 9.51172-6.14258 10.0586-6.14258Z"/>
  </g>
  <text style="stroke:none;fill:black;font-family:-apple-system,&quot;SF Pro Display&quot;,&quot;SF Pro Text&quot;,Helvetica,sans-serif;font-weight:bold;" transform="matrix(1 0 0 1 263 1953)">Design Variations</text>
  <text style="stroke:none;fill:black;font-family:-apple-system,&quot;SF Pro Display&quot;,&quot;SF Pro Text&quot;,Helvetica,sans-serif;" transform="matrix(1 0 0 1 263 1971)">Symbols are supported in up to nine weights and three scales.</text>
  <text style="stroke:none;fill:black;font-family:-apple-system,&quot;SF Pro Display&quot;,&quot;SF Pro Text&quot;,Helvetica,sans-serif;" transform="matrix(1 0 0 1 263 1989)">For optimal layout with text and other symbols, vertically align</text>
  <text style="stroke:none;fill:black;font-family:-apple-system,&quot;SF Pro Display&quot;,&quot;SF Pro Text&quot;,Helvetica,sans-serif;" transform="matrix(1 0 0 1 263 2007)">symbols with the adjacent text.</text>
  <line id="" style="fill:none;stroke:#00AEEF;stroke-width:0.5;opacity:1.0;" x1="776" x2="776" y1="1919" y2="1933"/>
  <g id="" transform="matrix(1 0 0 1 776 1933)">
   <path d="M3.31055 0.126953C3.82812 0.126953 4.08203-0.0683594 4.26758-0.605469L5.52734-4.0625L11.2891-4.0625L12.5488-0.605469C12.7344-0.0683594 12.9883 0.126953 13.4961 0.126953C14.0137 0.126953 14.3457-0.185547 14.3457-0.673828C14.3457-0.839844 14.3164-0.986328 14.2383-1.20117L9.6582-13.3887C9.43359-13.9941 9.0332-14.2871 8.4082-14.2871C7.80273-14.2871 7.39258-13.9941 7.17773-13.3984L2.59766-1.19141C2.51953-0.976562 2.49023-0.830078 2.49023-0.664062C2.49023-0.175781 2.80273 0.126953 3.31055 0.126953ZM6.00586-5.53711L8.37891-12.1094L8.42773-12.1094L10.8008-5.53711Z"/>
  </g>
  <line id="" style="fill:none;stroke:#00AEEF;stroke-width:0.5;opacity:1.0;" x1="792.836" x2="792.836" y1="1919" y2="1933"/>
  <text style="stroke:none;fill:black;font-family:-apple-system,&quot;SF Pro Display&quot;,&quot;SF Pro Text&quot;,Helvetica,sans-serif;font-weight:bold;" transform="matrix(1 0 0 1 776 1953)">Margins</text>
  <text style="stroke:none;fill:black;font-family:-apple-system,&quot;SF Pro Display&quot;,&quot;SF Pro Text&quot;,Helvetica,sans-serif;" transform="matrix(1 0 0 1 776 1971)">Leading and trailing margins on the left and right side of each symbol</text>
  <text style="stroke:none;fill:black;font-family:-apple-system,&quot;SF Pro Display&quot;,&quot;SF Pro Text&quot;,Helvetica,sans-serif;" transform="matrix(1 0 0 1 776 1989)">can be adjusted by modifying the x-location of the margin guidelines.</text>
  <text style="stroke:none;fill:black;font-family:-apple-system,&quot;SF Pro Display&quot;,&quot;SF Pro Text&quot;,Helvetica,sans-serif;" transform="matrix(1 0 0 1 776 2007)">Modifications are automatically applied proportionally to all</text>
  <text style="stroke:none;fill:black;font-family:-apple-system,&quot;SF Pro Display&quot;,&quot;SF Pro Text&quot;,Helvetica,sans-serif;" transform="matrix(1 0 0 1 776 2025)">scales and weights.</text>
  <g id="" transform="matrix(1 0 0 1 1289 1933)">
   <path d="M2.8418 1.86523L4.54102 3.57422C5.40039 4.44336 6.38672 4.38477 7.31445 3.35938L17.4902-7.85156C17.7539-7.76367 18.0273-7.7832 18.3398-7.8418L19.4043-8.03711L20.0684-7.36328L20.0293-6.80664C19.9902-6.30859 20.1172-5.92773 20.6055-5.44922L21.3672-4.70703C21.8457-4.22852 22.4609-4.19922 22.9297-4.66797L25.8398-7.58789C26.3086-8.05664 26.2891-8.65234 25.8105-9.13086L25.0391-9.89258C24.5605-10.3711 24.1895-10.5273 23.7109-10.4883L23.1348-10.4395L22.4902-11.0742L22.7344-12.1973C22.8613-12.7637 22.7051-13.2031 22.1191-13.7891L19.9219-15.9766C16.582-19.2969 12.1484-19.2188 9.25781-16.3281C8.83789-15.918 8.80859-15.3418 9.04297-14.9512C9.27734-14.5898 9.73633-14.3555 10.3809-14.5215C11.8457-14.8633 13.3691-14.9219 14.7949-13.9844L14.209-12.5293C14.0137-12.0508 13.9844-11.6504 14.1113-11.2891L3.04688-0.898438C2.06055 0.0195312 1.98242 0.996094 2.8418 1.86523ZM10.752-15.957C13.1836-17.7344 16.4746-17.4316 18.7012-15.2051L21.1328-12.793C21.3672-12.5586 21.4062-12.373 21.3379-12.0312L21.0156-10.5469L22.5195-9.0625L23.5059-9.12109C23.7598-9.13086 23.8379-9.11133 24.0332-8.91602L24.6094-8.33984L22.168-5.89844L21.5918-6.47461C21.3965-6.66992 21.3672-6.74805 21.377-7.01172L21.4453-7.98828L19.9512-9.47266L18.4277-9.21875C18.1055-9.15039 17.959-9.17969 17.7148-9.41406L15.7129-11.416C15.459-11.6504 15.4297-11.8164 15.5859-12.1875L16.4648-14.2773C14.9023-15.7324 12.8711-16.3574 10.8398-15.7617C10.6836-15.7227 10.625-15.8496 10.752-15.957ZM5.27344 2.30469L4.10156 1.14258C3.63281 0.683594 3.74023 0.341797 4.14062-0.0195312L14.9512-10.1953L16.416-8.71094L6.42578 2.27539C6.07422 2.67578 5.74219 2.77344 5.27344 2.30469Z"/>
  </g>
  <text style="stroke:none;fill:black;font-family:-apple-system,&quot;SF Pro Display&quot;,&quot;SF Pro Text&quot;,Helvetica,sans-serif;font-weight:bold;" transform="matrix(1 0 0 1 1289 1953)">Exporting</text>
  <text style="stroke:none;fill:black;font-family:-apple-system,&quot;SF Pro Display&quot;,&quot;SF Pro Text&quot;,Helvetica,sans-serif;" transform="matrix(1 0 0 1 1289 1971)">Symbols should be outlined when exporting to ensure the</text>
  <text style="stroke:none;fill:black;font-family:-apple-system,&quot;SF Pro Display&quot;,&quot;SF Pro Text&quot;,Helvetica,sans-serif;" transform="matrix(1 0 0 1 1289 1989)">design is preserved when submitting to Xcode.</text>
  <text id="template-version" style="stroke:none;fill:black;font-family:-apple-system,&quot;SF Pro Display&quot;,&quot;SF Pro Text&quot;,Helvetica,sans-serif;text-anchor:end;" transform="matrix(1 0 0 1 3036 1933)">Template v.2.0</text>
  <text style="stroke:none;fill:black;font-family:-apple-system,&quot;SF Pro Display&quot;,&quot;SF Pro Text&quot;,Helvetica,sans-serif;text-anchor:end;" transform="matrix(1 0 0 1 3036 1951)">Requires Xcode 12 or greater</text>
  <text style="stroke:none;fill:black;font-family:-apple-system,&quot;SF Pro Display&quot;,&quot;SF Pro Text&quot;,Helvetica,sans-serif;text-anchor:end;" transform="matrix(1 0 0 1 3036 1969)">Generated from switch.2</text>
  <text style="stroke:none;fill:black;font-family:-apple-system,&quot;SF Pro Display&quot;,&quot;SF Pro Text&quot;,Helvetica,sans-serif;text-anchor:end;" transform="matrix(1 0 0 1 3036 1987)">Typeset at 100 points</text>
  <text style="stroke:none;fill:black;font-family:-apple-system,&quot;SF Pro Display&quot;,&quot;SF Pro Text&quot;,Helvetica,sans-serif;" transform="matrix(1 0 0 1 263 726)">Small</text>
  <text style="stroke:none;fill:black;font-family:-apple-system,&quot;SF Pro Display&quot;,&quot;SF Pro Text&quot;,Helvetica,sans-serif;" transform="matrix(1 0 0 1 263 1156)">Medium</text>
  <text style="stroke:none;fill:black;font-family:-apple-system,&quot;SF Pro Display&quot;,&quot;SF Pro Text&quot;,Helvetica,sans-serif;" transform="matrix(1 0 0 1 263 1586)">Large</text>
 </g>
 <g id="Guides">
  <g id="H-reference" style="fill:#27AAE1;stroke:none;" transform="matrix(1 0 0 1 339 696)">
   <path d="M0.976562 0L3.66211 0L12.9883-24.4629L45.752-24.4629L55.127 0L57.7637 0L30.6152-70.459L28.125-70.459ZM29.3457-67.1387L29.4434-67.1387L44.873-26.709L13.8672-26.709Z"/>
  </g>
  <line id="Baseline-S" style="fill:none;stroke:#27AAE1;opacity:1;stroke-width:0.5;" x1="263" x2="3036" y1="696" y2="696"/>
  <line id="Capline-S" style="fill:none;stroke:#27AAE1;opacity:1;stroke-width:0.5;" x1="263" x2="3036" y1="625.541" y2="625.541"/>
  <g id="H-reference" style="fill:#27AAE1;stroke:none;" transform="matrix(1 0 0 1 339 1126)">
   <path d="M0.976562 0L3.66211 0L12.9883-24.4629L45.752-24.4629L55.127 0L57.7637 0L30.6152-70.459L28.125-70.459ZM29.3457-67.1387L29.4434-67.1387L44.873-26.709L13.8672-26.709Z"/>
  </g>
  <line id="Baseline-M" style="fill:none;stroke:#27AAE1;opacity:1;stroke-width:0.5;" x1="263" x2="3036" y1="1126" y2="1126"/>
  <line id="Capline-M" style="fill:none;stroke:#27AAE1;opacity:1;stroke-width:0.5;" x1="263" x2="3036" y1="1055.54" y2="1055.54"/>
  <g id="H-reference" style="fill:#27AAE1;stroke:none;" transform="matrix(1 0 0 1 339 1556)">
   <path d="M0.976562 0L3.66211 0L12.9883-24.4629L45.752-24.4629L55.127 0L57.7637 0L30.6152-70.459L28.125-70.459ZM29.3457-67.1387L29.4434-67.1387L44.873-26.709L13.8672-26.709Z"/>
  </g>
  <line id="Baseline-L" style="fill:none;stroke:#27AAE1;opacity:1;stroke-width:0.5;" x1="263" x2="3036" y1="1556" y2="1556"/>
  <line id="Capline-L" style="fill:none;stroke:#27AAE1;opacity:1;stroke-width:0.5;" x1="263" x2="3036" y1="1485.54" y2="1485.54"/>
  <line id="left-margin" style="fill:none;stroke:#00AEEF;stroke-width:0.5;opacity:1.0;" x1="1387.52" x2="1387.52" y1="1030.79" y2="1150.12"/>
  <line id="right-margin" style="fill:none;stroke:#00AEEF;stroke-width:0.5;opacity:1.0;" x1="1512.17" x2="1512.17" y1="1030.79" y2="1150.12"/>
 </g>
 <g id="Symbols">
  <g id="Black-L" transform="matrix(1 0 0 1 2847.9 1556)">
   <path d="M49.7559-37.207L121.24-37.207C141.016-37.207 154.932-50.293 154.932-69.9219C154.932-89.5508 141.016-102.637 121.24-102.637L49.7559-102.637C29.9316-102.637 16.0645-89.5508 16.0645-69.9219C16.0645-50.293 29.9316-37.207 49.7559-37.207ZM49.7559-55.0293C40.625-55.0293 33.8867-61.2793 33.8867-69.9219C33.8867-78.5645 40.625-84.8145 49.7559-84.8145L121.24-84.8145C130.371-84.8145 137.109-78.5645 137.109-69.9219C137.109-61.2793 130.371-55.0293 121.24-55.0293ZM49.7559-58.8379C55.957-58.8379 60.8887-63.7695 60.8887-70.0195C60.9375-76.2207 56.0059-81.1035 49.7559-81.1035C43.5547-81.1035 38.623-76.1719 38.623-70.0195C38.623-63.8184 43.5547-58.8379 49.7559-58.8379ZM47.168 32.1289L123.828 32.1289C141.357 32.1289 154.932 19.4824 154.932 2.05078C154.932-15.3809 141.357-27.9785 123.828-27.9785L47.168-27.9785C29.5898-27.9785 16.0645-15.3809 16.0645 2.05078C16.0645 19.4824 29.5898 32.1289 47.168 32.1289ZM125.488 14.8438C118.262 14.7949 112.646 9.13086 112.646 2.00195C112.646-5.17578 118.262-10.8398 125.439-10.8398C132.666-10.8398 138.379-5.17578 138.33 1.85547C138.232 9.13086 132.52 14.9414 125.488 14.8438Z"/>
  </g>
  <g id="Heavy-L" transform="matrix(1 0 0 1 2552.61 1556)">
   <path d="M48.584-37.3535L119.58-37.3535C138.428-37.3535 152.1-50.0488 152.1-68.9941C152.1-87.9395 138.428-100.635 119.58-100.635L48.584-100.635C29.7363-100.635 16.0645-87.9395 16.0645-68.9941C16.0645-50.0488 29.7363-37.3535 48.584-37.3535ZM48.584-52.8809C39.0625-52.8809 31.5918-59.6191 31.5918-68.9941C31.5918-78.418 39.0625-85.1074 48.584-85.1074L119.58-85.1074C129.102-85.1074 136.572-78.418 136.572-68.9941C136.572-59.6191 129.102-52.8809 119.58-52.8809ZM48.584-56.8359C55.4199-56.7871 60.8398-62.2559 60.8887-69.1406C60.8887-75.8789 55.4688-81.2988 48.584-81.2988C41.7969-81.2988 36.4258-75.8789 36.4258-69.0918C36.4258-62.2559 41.7969-56.8359 48.584-56.8359ZM46.0449 30.0781L122.168 30.0781C139.014 30.0781 152.1 18.0176 152.1 1.17188C152.1-15.6738 139.014-27.7344 122.168-27.7344L46.0449-27.7344C29.1504-27.7344 16.0645-15.6738 16.0645 1.17188C16.0645 18.0176 29.1504 30.0781 46.0449 30.0781ZM123.779 14.9414C116.064 14.8438 110.01 8.78906 110.01 1.12305C110.01-6.54297 116.064-12.6465 123.73-12.6465C131.494-12.6465 137.646-6.5918 137.598 0.976562C137.5 8.78906 131.396 14.9902 123.779 14.9414Z"/>
  </g>
  <g id="Bold-L" transform="matrix(1 0 0 1 2257.46 1556)">
   <path d="M47.3145-37.5488L117.676-37.5488C135.498-37.5488 148.975-49.8047 148.975-68.0176C148.975-86.1816 135.498-98.4375 117.676-98.4375L47.3145-98.4375C29.541-98.4375 16.0645-86.1816 16.0645-68.0176C16.0645-49.8047 29.541-37.5488 47.3145-37.5488ZM47.3145-50.5371C37.3047-50.5371 29.0527-57.7148 29.0527-68.0176C29.0527-78.2715 37.3047-85.4492 47.3145-85.4492L117.676-85.4492C127.734-85.4492 135.986-78.2715 135.986-68.0176C135.986-57.7148 127.734-50.5371 117.676-50.5371ZM47.3145-54.541C54.834-54.4922 60.8398-60.5469 60.8398-68.1152C60.8887-75.5371 54.8828-81.4941 47.3145-81.4941C39.8438-81.4941 33.8867-75.5371 33.8867-68.0664C33.8867-60.5957 39.8438-54.5898 47.3145-54.541ZM44.7266 27.7832L120.264 27.7832C136.377 27.7832 148.975 16.3574 148.975 0.146484C148.975-16.0156 136.377-27.4902 120.264-27.4902L44.7266-27.4902C28.6133-27.4902 16.0645-16.0156 16.0645 0.146484C16.0645 16.3574 28.6133 27.7832 44.7266 27.7832ZM121.924 15.0391C113.574 14.9414 107.031 8.39844 107.031 0.0976562C107.031-8.10547 113.623-14.6973 121.875-14.6973C130.176-14.6973 136.865-8.1543 136.816 0C136.719 8.34961 130.078 15.0879 121.924 15.0391Z"/>
  </g>
  <g id="Semibold-L" transform="matrix(1 0 0 1 1961.85 1556)">
   <path d="M46.4355-37.6465L116.406-37.6465C133.496-37.6465 146.777-49.6094 146.777-67.2852C146.777-84.9609 133.496-96.9238 116.406-96.9238L46.4355-96.9238C29.3457-96.9238 16.0645-84.9609 16.0645-67.2852C16.0645-49.6094 29.3457-37.6465 46.4355-37.6465ZM46.4355-48.877C36.084-48.877 27.2949-56.4453 27.2949-67.2852C27.2949-78.125 36.084-85.6934 46.4355-85.6934L116.406-85.6934C126.758-85.6934 135.547-78.125 135.547-67.2852C135.547-56.4453 126.758-48.877 116.406-48.877ZM46.4844-52.9785C54.3945-52.9297 60.791-59.4238 60.8398-67.4316C60.8887-75.293 54.4434-81.6406 46.4844-81.6406C38.5254-81.6406 32.1777-75.293 32.1777-67.334C32.1777-59.375 38.4766-53.0273 46.4844-52.9785ZM43.8965 26.2207L118.994 26.2207C134.57 26.2207 146.777 15.2344 146.777-0.537109C146.777-16.2598 134.57-27.2949 118.994-27.2949L43.8965-27.2949C28.2715-27.2949 16.0645-16.2598 16.0645-0.537109C16.0645 15.2344 28.2715 26.2207 43.8965 26.2207ZM120.605 15.0879C111.914 15.0391 105.029 8.10547 105.029-0.585938C105.029-9.17969 111.914-16.1621 120.605-16.1621C129.297-16.1621 136.279-9.22852 136.23-0.683594C136.182 8.10547 129.199 15.1367 120.605 15.0879Z"/>
  </g>
  <g id="Medium-L" transform="matrix(1 0 0 1 1665.96 1556)">
   <path d="M45.8008-37.7441L115.43-37.7441C131.934-37.7441 145.117-49.5117 145.117-66.748C145.117-84.0332 131.934-95.752 115.43-95.752L45.8008-95.752C29.248-95.752 16.0645-84.0332 16.0645-66.748C16.0645-49.5117 29.248-37.7441 45.8008-37.7441ZM45.8008-47.6562C35.2051-47.6562 25.9766-55.4688 25.9766-66.748C25.9766-78.0762 35.2051-85.8887 45.8008-85.8887L115.43-85.8887C126.025-85.8887 135.254-78.0762 135.254-66.748C135.254-55.4688 126.025-47.6562 115.43-47.6562ZM45.8008-51.8066C54.1016-51.7578 60.791-58.4961 60.8398-66.8945C60.8887-75.1465 54.1504-81.7383 45.8008-81.7383C37.5-81.7383 30.8594-75.0977 30.8594-66.7969C30.8594-58.4961 37.4512-51.8555 45.8008-51.8066ZM43.2129 25.0488L118.018 25.0488C133.203 25.0488 145.117 14.3555 145.117-1.07422C145.117-16.4551 133.203-27.1484 118.018-27.1484L43.2129-27.1484C27.9785-27.1484 16.0645-16.4551 16.0645-1.07422C16.0645 14.3555 27.9785 25.0488 43.2129 25.0488ZM119.629 15.1367C110.596 15.0879 103.467 7.91016 103.467-1.07422C103.467-10.0098 110.645-17.2363 119.629-17.2363C128.613-17.2363 135.889-10.0586 135.84-1.17188C135.791 7.86133 128.564 15.1855 119.629 15.1367Z"/>
  </g>
  <g id="Regular-L" transform="matrix(1 0 0 1 1370.33 1556)">
   <path d="M44.9219-37.8906L114.16-37.8906C129.98-37.8906 142.969-49.3164 142.969-66.0645C142.969-82.8125 129.98-94.2871 114.16-94.2871L44.9219-94.2871C29.1016-94.2871 16.0645-82.8125 16.0645-66.0645C16.0645-49.3164 29.1016-37.8906 44.9219-37.8906ZM44.9219-46.0449C33.9844-46.0449 24.2188-54.1992 24.2188-66.0645C24.2188-77.9297 33.9844-86.084 44.9219-86.084L114.16-86.084C125.049-86.084 134.814-77.9297 134.814-66.0645C134.814-54.1992 125.049-46.0449 114.16-46.0449ZM44.9219-50.2441C53.7109-50.1953 60.7422-57.373 60.791-66.2109C60.8398-74.9023 53.7598-81.8848 44.9219-81.8848C36.1816-81.8848 29.1504-74.8535 29.1504-66.1133C29.1504-57.3242 36.1328-50.293 44.9219-50.2441ZM42.334 23.4863L116.699 23.4863C131.396 23.4863 142.969 13.2324 142.969-1.75781C142.969-16.6992 131.396-26.9531 116.699-26.9531L42.334-26.9531C27.6367-26.9531 16.0645-16.6992 16.0645-1.75781C16.0645 13.2324 27.6367 23.4863 42.334 23.4863ZM118.311 15.1855C108.936 15.1367 101.465 7.61719 101.465-1.75781C101.465-11.084 108.936-18.6035 118.311-18.6035C127.734-18.6035 135.352-11.1328 135.303-1.85547C135.254 7.61719 127.686 15.2344 118.311 15.1855Z"/>
  </g>
  <g id="Light-L" transform="matrix(1 0 0 1 1074.84 1556)">
   <path d="M43.9941-38.623L112.598-38.623C127.832-38.623 140.527-49.8535 140.527-66.0645C140.527-82.2754 127.832-93.5059 112.598-93.5059L43.9941-93.5059C28.7598-93.5059 16.0645-82.2754 16.0645-66.0645C16.0645-49.8535 28.7598-38.623 43.9941-38.623ZM43.9941-44.9219C32.5684-44.9219 22.3633-53.6621 22.3633-66.0645C22.3633-78.5156 32.5684-87.207 43.9941-87.207L112.598-87.207C124.023-87.207 134.229-78.5156 134.229-66.0645C134.229-53.6621 124.023-44.9219 112.598-44.9219ZM44.043-49.0723C53.3691-49.0234 61.0352-56.6895 61.084-66.1621C61.084-75.4883 53.4668-83.0566 44.043-83.0566C34.6191-83.0566 27.0996-75.4883 27.0996-66.1133C27.0996-56.6895 34.5703-49.1211 44.043-49.0723ZM41.4062 22.5586L115.186 22.5586C129.492 22.5586 140.527 12.5488 140.527-1.75781C140.527-16.0156 129.492-26.0254 115.186-26.0254L41.4062-26.0254C27.0996-26.0254 16.0645-16.0156 16.0645-1.75781C16.0645 12.5488 27.0996 22.5586 41.4062 22.5586ZM116.797 16.0156C106.934 15.9668 99.1211 8.05664 99.1211-1.70898C99.1211-11.4746 106.982-19.3359 116.797-19.3359C126.611-19.3359 134.521-11.4746 134.473-1.80664C134.473 8.05664 126.514 16.0156 116.797 16.0156Z"/>
  </g>
  <g id="Thin-L" transform="matrix(1 0 0 1 779.762 1556)">
   <path d="M42.7734-39.5996L110.547-39.5996C125-39.5996 137.256-50.5859 137.256-66.0645C137.256-81.543 125-92.5293 110.547-92.5293L42.7734-92.5293C28.3203-92.5293 16.0645-81.543 16.0645-66.0645C16.0645-50.5859 28.3203-39.5996 42.7734-39.5996ZM42.7734-43.457C30.6641-43.457 19.9219-52.9297 19.9219-66.0645C19.9219-79.248 30.6641-88.6719 42.7734-88.6719L110.547-88.6719C122.656-88.6719 133.398-79.248 133.398-66.0645C133.398-52.9297 122.656-43.457 110.547-43.457ZM42.8223-47.5098C52.9785-47.5098 61.4258-55.7617 61.4258-66.1621C61.4258-76.3184 53.125-84.5703 42.8223-84.5703C32.6172-84.5703 24.3652-76.3184 24.3652-66.0645C24.3652-55.8594 32.5195-47.5098 42.8223-47.5098ZM40.1855 21.3379L113.135 21.3379C127.002 21.3379 137.256 11.6699 137.256-1.75781C137.256-15.1367 127.002-24.8047 113.135-24.8047L40.1855-24.8047C26.3184-24.8047 16.0645-15.1367 16.0645-1.75781C16.0645 11.6699 26.3184 21.3379 40.1855 21.3379ZM114.697 17.041C104.346 17.041 96.0938 8.64258 96.0938-1.66016C96.0938-11.9629 104.395-20.3125 114.697-20.3125C125.098-20.3125 133.447-11.9629 133.447-1.75781C133.447 8.69141 124.951 17.041 114.697 17.041Z"/>
  </g>
  <g id="Ultralight-L" transform="matrix(1 0 0 1 483.905 1556)">
   <path d="M42.1387-40.0879L109.473-40.0879C123.535-40.0879 135.547-50.9766 135.547-66.0645C135.547-81.1523 123.535-92.041 109.473-92.041L42.1387-92.041C28.0762-92.041 16.0645-81.1523 16.0645-66.0645C16.0645-50.9766 28.0762-40.0879 42.1387-40.0879ZM42.1387-42.7246C29.6875-42.7246 18.7012-52.5391 18.7012-66.0645C18.7012-79.5898 29.6875-89.4531 42.1387-89.4531L109.473-89.4531C121.973-89.4531 132.959-79.5898 132.959-66.0645C132.959-52.5391 121.973-42.7246 109.473-42.7246ZM42.2363-46.7285C52.7832-46.7285 61.5723-55.3223 61.5723-66.1621C61.5723-76.709 52.9785-85.3516 42.2363-85.3516C31.543-85.3516 22.9492-76.709 22.9492-66.0645C22.9492-55.4199 31.4941-46.6797 42.2363-46.7285ZM39.5508 20.7031L112.061 20.7031C125.684 20.7031 135.547 11.2305 135.547-1.75781C135.547-14.6973 125.684-24.1699 112.061-24.1699L39.5508-24.1699C25.9277-24.1699 16.0645-14.6973 16.0645-1.75781C16.0645 11.2305 25.9277 20.7031 39.5508 20.7031ZM113.672 17.5781C102.979 17.5781 94.5312 8.93555 94.5312-1.66016C94.5312-12.2559 103.076-20.8008 113.672-20.8008C124.365-20.8008 132.91-12.207 132.91-1.70898C132.91 9.0332 124.17 17.5781 113.672 17.5781Z"/>
  </g>
  <g id="Black-M" transform="matrix(1 0 0 1 2865.92 1126)">
   <path d="M39.5996-36.9629L95.4102-36.9629C111.67-36.9629 122.51-47.5098 122.51-63.3301C122.51-79.1504 111.67-89.7461 95.4102-89.7461L39.5996-89.7461C23.291-89.7461 12.4512-79.1504 12.4512-63.3301C12.4512-47.5098 23.291-36.9629 39.5996-36.9629ZM39.5996-52.832C32.8125-52.832 28.3203-57.373 28.3203-63.3301C28.3203-69.3359 32.8125-73.877 39.5996-73.877L95.4102-73.877C102.148-73.877 106.641-69.3359 106.641-63.3301C106.641-57.373 102.148-52.832 95.4102-52.832ZM39.5996-55.6152C43.8965-55.6152 47.3633-59.0332 47.3633-63.4277C47.3633-67.7246 43.9941-71.1426 39.5996-71.1426C35.2539-71.1426 31.8848-67.7246 31.8848-63.4277C31.8848-59.082 35.2539-55.6152 39.5996-55.6152ZM37.5977 19.1895L97.4121 19.1895C111.719 19.1895 122.51 8.78906 122.51-5.12695C122.51-19.043 111.719-29.4434 97.4121-29.4434L37.5977-29.4434C23.2422-29.4434 12.4512-19.043 12.4512-5.12695C12.4512 8.78906 23.2422 19.1895 37.5977 19.1895ZM98.6816 3.90625C93.5547 3.85742 89.5996-0.0976562 89.5996-5.17578C89.5996-10.2539 93.5547-14.209 98.6328-14.209C103.76-14.209 107.812-10.2539 107.715-5.32227C107.666-0.0976562 103.662 3.95508 98.6816 3.90625Z"/>
  </g>
  <g id="Heavy-M" transform="matrix(1 0 0 1 2570.4 1126)">
   <path d="M38.5742-36.9141L93.9453-36.9141C109.375-36.9141 120.117-47.1191 120.117-62.3535C120.117-77.5879 109.375-87.7441 93.9453-87.7441L38.5742-87.7441C23.1934-87.7441 12.4512-77.5879 12.4512-62.3535C12.4512-47.1191 23.1934-36.9141 38.5742-36.9141ZM38.5742-50.7812C31.4941-50.7812 26.3184-55.6641 26.3184-62.3535C26.3184-69.043 31.4941-73.877 38.5742-73.877L93.9453-73.877C101.074-73.877 106.25-69.043 106.25-62.3535C106.25-55.6641 101.074-50.7812 93.9453-50.7812ZM38.5742-53.7109C43.4082-53.7109 47.2656-57.5684 47.2656-62.4023C47.2656-67.2363 43.457-71.0449 38.5742-71.0449C33.7402-71.0449 29.9805-67.2363 29.9805-62.4023C29.9805-57.5684 33.7402-53.7109 38.5742-53.7109ZM36.5723 17.2363L95.9473 17.2363C109.668 17.2363 120.117 7.37305 120.117-6.10352C120.117-19.5801 109.668-29.4434 95.9473-29.4434L36.5723-29.4434C22.9004-29.4434 12.4512-19.5801 12.4512-6.10352C12.4512 7.37305 22.9004 17.2363 36.5723 17.2363ZM97.2656 3.80859C91.6504 3.71094 87.3535-0.634766 87.3535-6.15234C87.3535-11.6699 91.6992-16.0156 97.2168-16.0156C102.783-16.0156 107.227-11.6699 107.129-6.25C107.08-0.634766 102.686 3.85742 97.2656 3.80859Z"/>
  </g>
  <g id="Bold-M" transform="matrix(1 0 0 1 2275.06 1126)">
   <path d="M37.4512-36.9141L92.3828-36.9141C106.787-36.9141 117.383-46.6797 117.383-61.2305C117.383-75.7812 106.787-85.5469 92.3828-85.5469L37.4512-85.5469C22.998-85.5469 12.4512-75.7812 12.4512-61.2305C12.4512-46.6797 22.998-36.9141 37.4512-36.9141ZM37.4512-48.5352C29.9805-48.5352 24.0723-53.8086 24.0723-61.2305C24.0723-68.6523 29.9805-73.9258 37.4512-73.9258L92.3828-73.9258C99.8535-73.9258 105.762-68.6523 105.762-61.2305C105.762-53.8086 99.8535-48.5352 92.3828-48.5352ZM37.4512-51.5625C42.8223-51.5625 47.168-55.9082 47.168-61.3281C47.2168-66.6992 42.8711-70.9473 37.4512-70.9473C32.0801-70.9473 27.832-66.6504 27.832-61.2793C27.832-55.9082 32.0801-51.6113 37.4512-51.5625ZM35.4492 14.9902L94.3848 14.9902C107.324 14.9902 117.383 5.76172 117.383-7.17773C117.383-20.166 107.324-29.3945 94.3848-29.3945L35.4492-29.3945C22.5098-29.3945 12.4512-20.166 12.4512-7.17773C12.4512 5.76172 22.5098 14.9902 35.4492 14.9902ZM95.6543 3.66211C89.5508 3.61328 84.7656-1.17188 84.7656-7.22656C84.7656-13.2812 89.5508-18.0664 95.6055-18.0664C101.709-18.0664 106.543-13.2812 106.494-7.32422C106.445-1.2207 101.611 3.71094 95.6543 3.66211Z"/>
  </g>
  <g id="Semibold-M" transform="matrix(1 0 0 1 1979.28 1126)">
   <path d="M36.6699-36.9141L91.2598-36.9141C105.029-36.9141 115.527-46.3867 115.527-60.4492C115.527-74.5605 105.029-84.0332 91.2598-84.0332L36.6699-84.0332C22.9004-84.0332 12.4512-74.5605 12.4512-60.4492C12.4512-46.3867 22.9004-36.9141 36.6699-36.9141ZM36.6699-46.9727C28.9551-46.9727 22.5098-52.4902 22.5098-60.4492C22.5098-68.4082 28.9551-73.9746 36.6699-73.9746L91.2598-73.9746C98.9746-73.9746 105.42-68.4082 105.42-60.4492C105.42-52.4902 98.9746-46.9727 91.2598-46.9727ZM36.7188-50.0977C42.4316-50.0977 47.0703-54.7363 47.1191-60.5469C47.1191-66.3086 42.4805-70.8496 36.7188-70.8496C30.9082-70.8496 26.3672-66.2598 26.3672-60.5469C26.3672-54.7363 30.9082-50.1465 36.7188-50.0977ZM34.668 13.4766L93.2617 13.4766C105.713 13.4766 115.527 4.63867 115.527-7.95898C115.527-20.5566 105.713-29.3945 93.2617-29.3945L34.668-29.3945C22.2168-29.3945 12.4512-20.5566 12.4512-7.95898C12.4512 4.63867 22.2168 13.4766 34.668 13.4766ZM94.5312 3.56445C88.0859 3.51562 83.0078-1.61133 83.0078-8.00781C83.0078-14.3555 88.0859-19.4824 94.5312-19.4824C100.928-19.4824 106.104-14.4043 106.055-8.05664C106.006-1.61133 100.879 3.61328 94.5312 3.56445Z"/>
  </g>
  <g id="Medium-M" transform="matrix(1 0 0 1 1683.3 1126)">
   <path d="M36.084-36.8652L90.4297-36.8652C103.711-36.8652 114.062-46.1426 114.062-59.9121C114.062-73.6328 103.711-82.9102 90.4297-82.9102L36.084-82.9102C22.8516-82.9102 12.4512-73.6328 12.4512-59.9121C12.4512-46.1426 22.8516-36.8652 36.084-36.8652ZM36.084-45.8008C28.1738-45.8008 21.3379-51.5137 21.3379-59.9121C21.3379-68.2617 28.1738-73.9746 36.084-73.9746L90.4297-73.9746C98.3398-73.9746 105.176-68.2617 105.176-59.9121C105.176-51.5137 98.3398-45.8008 90.4297-45.8008ZM36.1328-49.0234C42.1387-48.9746 47.0215-53.9062 47.0703-60.0098C47.0703-66.0156 42.1875-70.8008 36.1328-70.8008C30.0293-70.8008 25.2441-65.9668 25.2441-59.9609C25.2441-53.8574 30.0293-49.0234 36.1328-49.0234ZM34.082 12.3047L92.4316 12.3047C104.492 12.3047 114.062 3.80859 114.062-8.54492C114.062-20.8496 104.492-29.3457 92.4316-29.3457L34.082-29.3457C22.0215-29.3457 12.4512-20.8496 12.4512-8.54492C12.4512 3.80859 22.0215 12.3047 34.082 12.3047ZM93.7012 3.51562C87.0117 3.41797 81.6895-1.9043 81.6895-8.54492C81.6895-15.1855 87.0117-20.5566 93.6523-20.5566C100.391-20.5566 105.762-15.2344 105.713-8.64258C105.664-1.9043 100.342 3.56445 93.7012 3.51562Z"/>
  </g>
  <g id="Regular-M" transform="matrix(1 0 0 1 1387.52 1126)">
   <path d="M35.3516-36.8652L89.3555-36.8652C101.953-36.8652 112.207-45.8496 112.207-59.1309C112.207-72.4121 101.953-81.3965 89.3555-81.3965L35.3516-81.3965C22.7539-81.3965 12.4512-72.4121 12.4512-59.1309C12.4512-45.8496 22.7539-36.8652 35.3516-36.8652ZM35.3516-44.2383C27.1484-44.2383 19.8242-50.2441 19.8242-59.1309C19.8242-68.0176 27.1484-74.0234 35.3516-74.0234L89.3555-74.0234C97.5098-74.0234 104.834-68.0176 104.834-59.1309C104.834-50.2441 97.5098-44.2383 89.3555-44.2383ZM35.3516-47.5586C41.7969-47.5098 46.9238-52.7832 46.9727-59.2285C47.0215-65.625 41.7969-70.752 35.3516-70.752C28.9062-70.752 23.7793-65.5762 23.7793-59.1797C23.7793-52.7344 28.9062-47.6074 35.3516-47.5586ZM33.3496 10.791L91.3574 10.791C102.93 10.791 112.207 2.68555 112.207-9.27734C112.207-21.2402 102.93-29.3457 91.3574-29.3457L33.3496-29.3457C21.7773-29.3457 12.4512-21.2402 12.4512-9.27734C12.4512 2.68555 21.7773 10.791 33.3496 10.791ZM92.5781 3.41797C85.5469 3.36914 79.9316-2.29492 79.9316-9.32617C79.9316-16.3086 85.5469-21.9727 92.5781-21.9727C99.6094-21.9727 105.322-16.3574 105.273-9.375C105.225-2.29492 99.6094 3.4668 92.5781 3.41797Z"/>
  </g>
  <g id="Light-M" transform="matrix(1 0 0 1 1091.9 1126)">
   <path d="M34.5215-37.5L87.9395-37.5C100-37.5 110.01-46.3379 110.01-59.1309C110.01-71.9238 100-80.7617 87.9395-80.7617L34.5215-80.7617C22.4609-80.7617 12.4512-71.9238 12.4512-59.1309C12.4512-46.3379 22.4609-37.5 34.5215-37.5ZM34.5215-43.2617C25.8789-43.2617 18.1641-49.7559 18.1641-59.1309C18.1641-68.5059 25.8789-75 34.5215-75L87.9395-75C96.582-75 104.297-68.5059 104.297-59.1309C104.297-49.7559 96.582-43.2617 87.9395-43.2617ZM34.5215-46.4844C41.5039-46.4355 47.168-52.1484 47.2168-59.2285C47.2656-66.1621 41.5527-71.7773 34.5215-71.7773C27.5391-71.7773 21.9238-66.1133 21.9238-59.1797C21.9238-52.1484 27.4902-46.5332 34.5215-46.4844ZM32.5195 9.96094L89.9414 9.96094C101.221 9.96094 110.01 2.09961 110.01-9.27734C110.01-20.6543 101.221-28.5156 89.9414-28.5156L32.5195-28.5156C21.2402-28.5156 12.4512-20.6543 12.4512-9.27734C12.4512 2.09961 21.2402 9.96094 32.5195 9.96094ZM91.2109 4.10156C83.7891 4.10156 77.8809-1.9043 77.8809-9.27734C77.8809-16.6504 83.7891-22.6074 91.2109-22.6074C98.6328-22.6074 104.59-16.6504 104.59-9.32617C104.541-1.9043 98.5352 4.15039 91.2109 4.10156Z"/>
  </g>
  <g id="Thin-M" transform="matrix(1 0 0 1 796.657 1126)">
   <path d="M33.3984-38.3789L86.1328-38.3789C97.4609-38.3789 107.08-46.9727 107.08-59.1309C107.08-71.2891 97.4609-79.8828 86.1328-79.8828L33.3984-79.8828C22.0703-79.8828 12.4512-71.2891 12.4512-59.1309C12.4512-46.9727 22.0703-38.3789 33.3984-38.3789ZM33.3984-41.9434C24.1699-41.9434 15.9668-49.0723 15.9668-59.1309C15.9668-69.1895 24.1699-76.3184 33.3984-76.3184L86.1328-76.3184C95.3613-76.3184 103.564-69.1895 103.564-59.1309C103.564-49.0723 95.3613-41.9434 86.1328-41.9434ZM33.4473-45.0684C41.1621-45.0684 47.5098-51.3672 47.5098-59.1797C47.5098-66.8945 41.2598-73.1445 33.4473-73.1445C25.7324-73.1445 19.4824-66.8945 19.4824-59.1309C19.4824-51.3672 25.6348-45.0684 33.4473-45.0684ZM31.3965 8.88672L88.0859 8.88672C98.9746 8.88672 107.08 1.31836 107.08-9.27734C107.08-19.873 98.9746-27.4414 88.0859-27.4414L31.3965-27.4414C20.5566-27.4414 12.4512-19.873 12.4512-9.27734C12.4512 1.31836 20.5566 8.88672 31.3965 8.88672ZM89.3555 5.07812C81.4453 5.0293 75.1465-1.36719 75.1465-9.22852C75.1465-17.0898 81.4941-23.4375 89.3555-23.4375C97.2656-23.4375 103.662-17.0898 103.662-9.27734C103.613-1.31836 97.168 5.07812 89.3555 5.07812Z"/>
  </g>
  <g id="Ultralight-M" transform="matrix(1 0 0 1 500.702 1126)">
   <path d="M32.8613-38.8672L85.1562-38.8672C96.1914-38.8672 105.566-47.3145 105.566-59.1309C105.566-70.9473 96.1914-79.3945 85.1562-79.3945L32.8613-79.3945C21.8262-79.3945 12.4512-70.9473 12.4512-59.1309C12.4512-47.3145 21.8262-38.8672 32.8613-38.8672ZM32.8613-41.2598C23.291-41.2598 14.8438-48.7793 14.8438-59.1309C14.8438-69.4824 23.291-77.002 32.8613-77.002L85.1562-77.002C94.7266-77.002 103.174-69.4824 103.174-59.1309C103.174-48.7793 94.7266-41.2598 85.1562-41.2598ZM32.9102-44.3848C40.9668-44.3848 47.6562-50.9277 47.6562-59.1797C47.6562-67.2852 41.1133-73.8281 32.9102-73.8281C24.7559-73.8281 18.2129-67.2852 18.2129-59.1309C18.2129-50.9766 24.707-44.3848 32.9102-44.3848ZM30.8594 8.30078L87.1582 8.30078C97.8027 8.30078 105.566 0.927734 105.566-9.27734C105.566-19.4824 97.8027-26.8555 87.1582-26.8555L30.8594-26.8555C20.2148-26.8555 12.4512-19.4824 12.4512-9.27734C12.4512 0.927734 20.2148 8.30078 30.8594 8.30078ZM88.4277 5.51758C80.2246 5.51758 73.7305-1.07422 73.7305-9.22852C73.7305-17.334 80.2734-23.877 88.4277-23.877C96.582-23.877 103.174-17.334 103.174-9.27734C103.174-1.02539 96.4844 5.51758 88.4277 5.51758Z"/>
  </g>
  <g id="Black-S" transform="matrix(1 0 0 1 2880.59 696)">
   <path d="M30.957-36.5723L74.6582-36.5723C87.3535-36.5723 95.8496-44.8242 95.8496-57.1777C95.8496-69.5312 87.3535-77.7832 74.6582-77.7832L30.957-77.7832C18.2617-77.7832 9.76562-69.5312 9.76562-57.1777C9.76562-44.8242 18.2617-36.5723 30.957-36.5723ZM30.957-48.877C25.6348-48.877 22.0703-52.4414 22.0703-57.1777C22.0703-61.9141 25.6348-65.4785 30.957-65.4785L74.6582-65.4785C79.9805-65.4785 83.5449-61.9141 83.5449-57.1777C83.5449-52.4414 79.9805-48.877 74.6582-48.877ZM30.957-51.0742C34.375-51.0742 37.1094-53.7598 37.1094-57.2266C37.1094-60.6445 34.4238-63.3301 30.957-63.3301C27.5391-63.3301 24.8535-60.6445 24.8535-57.2266C24.8535-53.8086 27.5391-51.0742 30.957-51.0742ZM29.3945 7.27539L76.2207 7.27539C87.4023 7.27539 95.8496-0.830078 95.8496-11.7188C95.8496-22.6074 87.4023-30.7129 76.2207-30.7129L29.3945-30.7129C18.2129-30.7129 9.76562-22.6074 9.76562-11.7188C9.76562-0.830078 18.2129 7.27539 29.3945 7.27539ZM77.2461-4.58984C73.1934-4.63867 70.0684-7.76367 70.0684-11.7676C70.0684-15.7715 73.1934-18.8965 77.1973-18.8965C81.25-18.8965 84.4238-15.7715 84.375-11.8652C84.3262-7.76367 81.1523-4.54102 77.2461-4.58984Z"/>
  </g>
  <g id="Heavy-S" transform="matrix(1 0 0 1 2584.69 696)">
   <path d="M30.2734-36.4746L73.7305-36.4746C85.791-36.4746 94.2383-44.4824 94.2383-56.3965C94.2383-68.3594 85.791-76.3672 73.7305-76.3672L30.2734-76.3672C18.2129-76.3672 9.76562-68.3594 9.76562-56.3965C9.76562-44.4824 18.2129-36.4746 30.2734-36.4746ZM30.2734-47.4121C24.7559-47.4121 20.7031-51.2207 20.7031-56.3965C20.7031-61.6211 24.7559-65.3809 30.2734-65.3809L73.7305-65.3809C79.248-65.3809 83.3008-61.6211 83.3008-56.3965C83.3008-51.2207 79.248-47.4121 73.7305-47.4121ZM30.2734-49.7559C34.0332-49.707 37.0117-52.6855 37.0117-56.4941C37.0117-60.2051 34.082-63.1348 30.2734-63.1348C26.5625-63.1348 23.584-60.2051 23.584-56.4453C23.584-52.7344 26.5625-49.7559 30.2734-49.7559ZM28.7109 5.85938L75.293 5.85938C85.9863 5.85938 94.2383-1.85547 94.2383-12.4512C94.2383-23.0469 85.9863-30.8105 75.293-30.8105L28.7109-30.8105C18.0176-30.8105 9.76562-23.0469 9.76562-12.4512C9.76562-1.85547 18.0176 5.85938 28.7109 5.85938ZM76.3184-4.73633C71.9238-4.78516 68.5547-8.20312 68.5547-12.5C68.5547-16.8457 71.9238-20.2148 76.2695-20.2148C80.6152-20.2148 84.082-16.8457 84.0332-12.5977C83.9844-8.20312 80.5176-4.6875 76.3184-4.73633Z"/>
  </g>
  <g id="Bold-S" transform="matrix(1 0 0 1 2288.88 696)">
   <path d="M29.541-36.377L72.6562-36.377C84.082-36.377 92.4316-44.043 92.4316-55.5664C92.4316-67.0898 84.082-74.7559 72.6562-74.7559L29.541-74.7559C18.1152-74.7559 9.76562-67.0898 9.76562-55.5664C9.76562-44.043 18.1152-36.377 29.541-36.377ZM29.541-45.8008C23.7793-45.8008 19.1895-49.8535 19.1895-55.5664C19.1895-61.2793 23.7793-65.332 29.541-65.332L72.6562-65.332C78.418-65.332 83.0078-61.2793 83.0078-55.5664C83.0078-49.8535 78.418-45.8008 72.6562-45.8008ZM29.541-48.2422C33.6426-48.1934 36.8652-51.5137 36.9141-55.6152C36.9141-59.7168 33.6426-62.9395 29.541-62.9395C25.4395-62.9395 22.2168-59.668 22.2168-55.6152C22.2168-51.5137 25.4395-48.2422 29.541-48.2422ZM27.9785 4.24805L74.2188 4.24805C84.4238 4.24805 92.4316-3.02734 92.4316-13.3301C92.4316-23.584 84.4238-30.8594 74.2188-30.8594L27.9785-30.8594C17.7734-30.8594 9.76562-23.584 9.76562-13.3301C9.76562-3.02734 17.7734 4.24805 27.9785 4.24805ZM75.2441-4.93164C70.5566-4.98047 66.8457-8.69141 66.8457-13.3301C66.8457-18.0176 70.5566-21.7285 75.1953-21.7285C79.8828-21.7285 83.6426-18.0176 83.5938-13.4277C83.5449-8.69141 79.834-4.88281 75.2441-4.93164Z"/>
  </g>
  <g id="Semibold-S" transform="matrix(1 0 0 1 1992.8 696)">
   <path d="M29.0039-36.3281L71.9238-36.3281C82.9102-36.3281 91.1621-43.7988 91.1621-54.9805C91.1621-66.1621 82.9102-73.6328 71.9238-73.6328L29.0039-73.6328C18.0664-73.6328 9.76562-66.1621 9.76562-54.9805C9.76562-43.7988 18.0664-36.3281 29.0039-36.3281ZM29.0039-44.7266C23.0957-44.7266 18.1641-48.877 18.1641-54.9805C18.1641-61.084 23.0957-65.2344 29.0039-65.2344L71.9238-65.2344C77.832-65.2344 82.7637-61.084 82.7637-54.9805C82.7637-48.877 77.832-44.7266 71.9238-44.7266ZM29.0039-47.2168C33.3496-47.168 36.8164-50.6836 36.8164-55.0781C36.8652-59.375 33.3496-62.793 29.0039-62.793C24.6582-62.793 21.2402-59.3262 21.2402-55.0293C21.2402-50.6836 24.6582-47.2168 29.0039-47.2168ZM27.4414 3.17383L73.4863 3.17383C83.3496 3.17383 91.1621-3.80859 91.1621-13.8672C91.1621-23.9258 83.3496-30.9082 73.4863-30.9082L27.4414-30.9082C17.5781-30.9082 9.76562-23.9258 9.76562-13.8672C9.76562-3.80859 17.5781 3.17383 27.4414 3.17383ZM74.5117-5.07812C69.5801-5.12695 65.6738-9.0332 65.6738-13.916C65.6738-18.7988 69.5801-22.7051 74.4629-22.7051C79.3945-22.7051 83.3984-18.8477 83.3496-14.0137C83.3008-9.0332 79.3945-5.0293 74.5117-5.07812Z"/>
  </g>
  <g id="Medium-S" transform="matrix(1 0 0 1 1696.56 696)">
   <path d="M28.6133-36.2793L71.3867-36.2793C81.9824-36.2793 90.2344-43.5547 90.2344-54.541C90.2344-65.5273 81.9824-72.8027 71.3867-72.8027L28.6133-72.8027C18.0176-72.8027 9.76562-65.5273 9.76562-54.541C9.76562-43.5547 18.0176-36.2793 28.6133-36.2793ZM28.6133-43.8477C22.6074-43.8477 17.3828-48.1934 17.3828-54.541C17.3828-60.8887 22.6074-65.1855 28.6133-65.1855L71.3867-65.1855C77.4414-65.1855 82.6172-60.8887 82.6172-54.541C82.6172-48.1934 77.4414-43.8477 71.3867-43.8477ZM28.6133-46.4355C33.1543-46.3867 36.7188-50.0977 36.7676-54.6387C36.8164-59.1309 33.1543-62.6953 28.6133-62.6953C24.0723-62.6953 20.5078-59.082 20.5078-54.5898C20.5078-50.0488 24.0723-46.4355 28.6133-46.4355ZM27.0508 2.34375L72.9492 2.34375C82.5195 2.34375 90.2344-4.44336 90.2344-14.3066C90.2344-24.2188 82.5195-30.957 72.9492-30.957L27.0508-30.957C17.4805-30.957 9.76562-24.2188 9.76562-14.3066C9.76562-4.44336 17.4805 2.34375 27.0508 2.34375ZM73.9258-5.17578C68.8477-5.22461 64.7949-9.27734 64.7949-14.3555C64.7949-19.4336 68.8477-23.4863 73.9258-23.4863C79.0527-23.4863 83.1543-19.4336 83.1055-14.4043C83.0566-9.32617 79.0039-5.12695 73.9258-5.17578Z"/>
  </g>
  <g id="Regular-S" transform="matrix(1 0 0 1 1400.45 696)">
   <path d="M28.0762-36.1816L70.7031-36.1816C80.8105-36.1816 89.0137-43.3105 89.0137-53.9551C89.0137-64.5996 80.8105-71.7285 70.7031-71.7285L28.0762-71.7285C17.9688-71.7285 9.76562-64.5996 9.76562-53.9551C9.76562-43.3105 17.9688-36.1816 28.0762-36.1816ZM28.0762-42.7734C21.9238-42.7734 16.3574-47.2168 16.3574-53.9551C16.3574-60.6934 21.9238-65.1367 28.0762-65.1367L70.7031-65.1367C76.8555-65.1367 82.4219-60.6934 82.4219-53.9551C82.4219-47.2168 76.8555-42.7734 70.7031-42.7734ZM28.0762-45.4102C32.8613-45.3613 36.6699-49.2676 36.7188-54.0527C36.7676-58.7891 32.8613-62.5488 28.0762-62.5488C23.3398-62.5488 19.5312-58.7402 19.5312-54.0039C19.5312-49.2188 23.3398-45.459 28.0762-45.4102ZM26.5137 1.2207L72.2656 1.2207C81.4941 1.2207 89.0137-5.22461 89.0137-14.8926C89.0137-24.5605 81.4941-31.0059 72.2656-31.0059L26.5137-31.0059C17.2852-31.0059 9.76562-24.5605 9.76562-14.8926C9.76562-5.22461 17.2852 1.2207 26.5137 1.2207ZM73.2422-5.32227C67.8711-5.37109 63.623-9.61914 63.623-14.9414C63.623-20.2148 67.8711-24.5117 73.2422-24.5117C78.5645-24.5117 82.9102-20.2637 82.8613-14.9902C82.8125-9.66797 78.5645-5.27344 73.2422-5.32227Z"/>
  </g>
  <g id="Light-S" transform="matrix(1 0 0 1 1104.72 696)">
   <path d="M27.3438-36.7676L69.4336-36.7676C79.1016-36.7676 87.0605-43.75 87.0605-53.9551C87.0605-64.1602 79.1016-71.1426 69.4336-71.1426L27.3438-71.1426C17.7246-71.1426 9.76562-64.1602 9.76562-53.9551C9.76562-43.75 17.7246-36.7676 27.3438-36.7676ZM27.3438-41.8945C20.752-41.8945 14.8926-46.7773 14.8926-53.9551C14.8926-61.1328 20.752-66.0156 27.3438-66.0156L69.4336-66.0156C76.0254-66.0156 81.9336-61.1328 81.9336-53.9551C81.9336-46.7773 76.0254-41.8945 69.4336-41.8945ZM27.3926-44.4336C32.6172-44.4336 36.8652-48.7305 36.9141-54.0527C36.9629-59.2773 32.666-63.4766 27.3926-63.4766C22.1191-63.4766 17.8711-59.2285 17.8711-54.0039C17.8711-48.7305 22.0703-44.4824 27.3926-44.4336ZM25.7812 0.488281L70.9961 0.488281C79.9805 0.488281 87.0605-5.76172 87.0605-14.8926C87.0605-24.0234 79.9805-30.2734 70.9961-30.2734L25.7812-30.2734C16.8457-30.2734 9.76562-24.0234 9.76562-14.8926C9.76562-5.76172 16.8457 0.488281 25.7812 0.488281ZM71.9727-4.6875C66.3086-4.6875 61.8164-9.27734 61.8164-14.8926C61.8164-20.5078 66.3574-25.0977 71.9727-25.0977C77.6367-25.0977 82.2266-20.5566 82.2266-14.9414C82.1777-9.27734 77.6367-4.63867 71.9727-4.6875Z"/>
  </g>
  <g id="Thin-S" transform="matrix(1 0 0 1 809.303 696)">
   <path d="M26.416-37.5488L67.8223-37.5488C76.8555-37.5488 84.4727-44.2871 84.4727-53.9551C84.4727-63.623 76.8555-70.3613 67.8223-70.3613L26.416-70.3613C17.3828-70.3613 9.76562-63.623 9.76562-53.9551C9.76562-44.2871 17.3828-37.5488 26.416-37.5488ZM26.416-40.7227C19.2871-40.7227 12.9395-46.2402 12.9395-53.9551C12.9395-61.6699 19.2871-67.1875 26.416-67.1875L67.8223-67.1875C74.9512-67.1875 81.2988-61.6699 81.2988-53.9551C81.2988-46.2402 74.9512-40.7227 67.8223-40.7227ZM26.416-43.2129C32.3242-43.2129 37.1582-47.998 37.1582-54.0039C37.207-59.9121 32.4219-64.6484 26.416-64.6484C20.5078-64.6484 15.7227-59.8633 15.7227-53.9551C15.7227-48.0469 20.459-43.2129 26.416-43.2129ZM24.8535-0.439453L69.3848-0.439453C77.9785-0.439453 84.4727-6.44531 84.4727-14.8926C84.4727-23.3398 77.9785-29.3457 69.3848-29.3457L24.8535-29.3457C16.2598-29.3457 9.76562-23.3398 9.76562-14.8926C9.76562-6.44531 16.2598-0.439453 24.8535-0.439453ZM70.3613-3.85742C64.2578-3.85742 59.375-8.78906 59.375-14.8926C59.375-20.9473 64.3066-25.8301 70.3613-25.8301C76.4648-25.8301 81.3965-20.9473 81.3965-14.9414C81.3965-8.78906 76.416-3.85742 70.3613-3.85742Z"/>
  </g>
  <g id="Ultralight-S" transform="matrix(1 0 0 1 513.276 696)">
   <path d="M25.8789-37.9395L66.9922-37.9395C75.6836-37.9395 83.1055-44.6289 83.1055-53.9551C83.1055-63.2812 75.6836-69.9707 66.9922-69.9707L25.8789-69.9707C17.1875-69.9707 9.76562-63.2812 9.76562-53.9551C9.76562-44.6289 17.1875-37.9395 25.8789-37.9395ZM25.8789-40.1367C18.5059-40.1367 11.9629-45.8984 11.9629-53.9551C11.9629-62.0117 18.5059-67.7734 25.8789-67.7734L66.9922-67.7734C74.4141-67.7734 80.957-62.0117 80.957-53.9551C80.957-45.8984 74.4141-40.1367 66.9922-40.1367ZM25.9277-42.5781C32.1777-42.5781 37.3047-47.6562 37.3047-54.0039C37.3047-60.2051 32.2754-65.2832 25.9277-65.2832C19.6777-65.2832 14.5996-60.2051 14.5996-53.9551C14.5996-47.7051 19.6289-42.5781 25.9277-42.5781ZM24.3164-0.976562L68.5547-0.976562C76.9531-0.976562 83.1055-6.78711 83.1055-14.8926C83.1055-22.998 76.9531-28.8086 68.5547-28.8086L24.3164-28.8086C15.918-28.8086 9.76562-22.998 9.76562-14.8926C9.76562-6.78711 15.918-0.976562 24.3164-0.976562ZM69.5312-3.41797C63.1836-3.41797 58.1543-8.54492 58.1543-14.8438C58.1543-21.1426 63.2324-26.2207 69.5312-26.2207C75.8789-26.2207 80.957-21.1426 80.957-14.8926C80.957-8.49609 75.7812-3.41797 69.5312-3.41797Z"/>
  </g>
 </g>
</svg>
